<?xml version="1.0" encoding="utf-8"?>
<!-- Generator: Adobe Illustrator 15.1.0, SVG Export Plug-In . SVG Version: 6.00 Build 0)  -->
<!DOCTYPE svg PUBLIC "-//W3C//DTD SVG 1.0//EN" "http://www.w3.org/TR/2001/REC-SVG-20010904/DTD/svg10.dtd">
<svg version="1.0" id="Layer_1" xmlns="http://www.w3.org/2000/svg" xmlns:xlink="http://www.w3.org/1999/xlink" x="0px" y="0px"
	 width="800px" height="800px" viewBox="0 0 800 800" enable-background="new 0 0 800 800" xml:space="preserve">
<g>
	<path fill="#BCC2C6" d="M4955.596,207.445h388.612c4.461,0,8.521,1.826,11.453,4.76v0.017c2.936,2.934,4.76,6.985,4.76,11.437
		v345.522c0,4.452-1.824,8.503-4.76,11.438v0.017c-2.933,2.935-6.992,4.751-11.453,4.751h-388.612
		c-4.466,0-8.518-1.816-11.452-4.751v-0.017c-2.936-2.935-4.761-6.985-4.761-11.438V223.659c0-4.452,1.825-8.503,4.761-11.437
		v-0.017C4947.078,209.271,4951.13,207.445,4955.596,207.445"/>
	<path fill="#EBEFF0" d="M5354.538,223.659v345.522c0,6.519-4.536,10.338-10.33,10.338h-388.612
		c-5.784,0-10.327-3.719-10.327-10.338V223.659c0-6.744,4.559-10.329,10.327-10.329h388.612
		C5349.993,213.33,5354.538,217.04,5354.538,223.659"/>
	<path fill="#34495E" d="M4953.454,254.919h392.896c3.877,0,7.394,1.576,9.938,4.126c2.551,2.543,4.133,6.069,4.133,9.946v302.341
		c0,3.868-1.582,7.386-4.133,9.937c-2.544,2.551-6.061,4.117-9.938,4.117h-392.896c-3.866,0-7.395-1.566-9.938-4.117
		c-2.549-2.551-4.134-6.068-4.134-9.937V268.991c0-3.876,1.585-7.403,4.134-9.946
		C4946.06,256.495,4949.588,254.919,4953.454,254.919"/>
	<path fill-rule="evenodd" clip-rule="evenodd" fill="#FFFFFF" d="M4953.454,260.796c-2.176,0-4.244,0.875-5.785,2.409
		c-1.535,1.542-2.409,3.609-2.409,5.786v302.341c0,2.167,0.874,4.234,2.409,5.769c1.541,1.551,3.609,2.418,5.785,2.418h392.896
		c2.175,0,4.244-0.867,5.777-2.418c1.542-1.534,2.41-3.602,2.41-5.769V268.991c0-2.185-0.868-4.244-2.41-5.786
		c-1.533-1.542-3.608-2.409-5.777-2.409H4953.454z"/>
	<path fill-rule="evenodd" clip-rule="evenodd" fill="#94A4A5" d="M5295.784,227.418c4.135,0,7.493,3.352,7.493,7.486
		c0,4.135-3.35,7.495-7.493,7.495c-4.135,0-7.486-3.36-7.486-7.495C5288.298,230.77,5291.649,227.418,5295.784,227.418
		 M5319.308,227.418c4.136,0,7.486,3.352,7.486,7.486c0,4.135-3.351,7.495-7.486,7.495c-4.135,0-7.493-3.36-7.493-7.495
		C5311.814,230.77,5315.173,227.418,5319.308,227.418z M5272.27,227.418c4.134,0,7.484,3.352,7.484,7.486
		c0,4.135-3.351,7.495-7.484,7.495c-4.135,0-7.495-3.36-7.495-7.495C5264.774,230.77,5268.135,227.418,5272.27,227.418z"/>
	<rect x="4993.884" y="291.739" fill-rule="evenodd" clip-rule="evenodd" fill="#34495E" width="69.023" height="69.023"/>
	<rect x="4999.546" y="297.4" fill="#22A6EF" width="57.699" height="57.703"/>
	<path fill-rule="evenodd" clip-rule="evenodd" fill="#34495E" d="M5028.396,329.161c14.037,0,25.418,11.387,25.418,25.424
		l-0.01,0.518h-50.824l-0.008-0.518C5002.972,340.547,5014.35,329.161,5028.396,329.161"/>
	<path fill-rule="evenodd" clip-rule="evenodd" fill="#34495E" d="M5028.396,306.828c7.91,0,14.329,6.411,14.329,14.33
		c0,7.912-6.419,14.331-14.329,14.331c-7.92,0-14.33-6.419-14.33-14.331C5014.065,313.238,5020.476,306.828,5028.396,306.828"/>
	<path fill-rule="evenodd" clip-rule="evenodd" fill="#39D4FF" d="M5028.396,312.488c4.784,0,8.661,3.885,8.661,8.669
		c0,4.786-3.877,8.67-8.661,8.67c-4.785,0-8.67-3.885-8.67-8.67C5019.726,316.373,5023.61,312.488,5028.396,312.488"/>
	<path fill-rule="evenodd" clip-rule="evenodd" fill="#39D4FF" d="M5028.396,334.829c10.911,0,19.756,8.845,19.756,19.756
		l-0.008,0.518h-39.505l-0.009-0.518C5008.63,343.673,5017.483,334.829,5028.396,334.829"/>
	<path fill-rule="evenodd" clip-rule="evenodd" fill="#BCC2C6" d="M5001.137,404.702h54.511c2.166,0,3.926-1.767,3.926-3.927l0,0
		c0-2.167-1.76-3.934-3.926-3.934h-54.511c-2.16,0-3.927,1.767-3.927,3.934l0,0C4997.21,402.936,4998.977,404.702,5001.137,404.702"
		/>
	<path fill-rule="evenodd" clip-rule="evenodd" fill="#BCC2C6" d="M4993.075,384.946h70.643c2.157,0,3.924-1.768,3.924-3.935l0,0
		c0-2.159-1.767-3.926-3.924-3.926h-70.643c-2.168,0-3.936,1.768-3.936,3.926l0,0
		C4989.14,383.178,4990.907,384.946,4993.075,384.946"/>
	<rect x="5115.392" y="291.739" fill-rule="evenodd" clip-rule="evenodd" fill="#34495E" width="69.021" height="69.023"/>
	<rect x="5121.052" y="297.4" fill="#22A6EF" width="57.703" height="57.703"/>
	<path fill-rule="evenodd" clip-rule="evenodd" fill="#34495E" d="M5149.902,329.161c14.038,0,25.416,11.387,25.416,25.424v0.518
		h-50.832l-0.009-0.518C5124.478,340.547,5135.864,329.161,5149.902,329.161"/>
	<path fill-rule="evenodd" clip-rule="evenodd" fill="#34495E" d="M5149.902,306.828c7.911,0,14.329,6.411,14.329,14.33
		c0,7.912-6.418,14.331-14.329,14.331s-14.329-6.419-14.329-14.331C5135.573,313.238,5141.991,306.828,5149.902,306.828"/>
	<path fill-rule="evenodd" clip-rule="evenodd" fill="#39D4FF" d="M5149.902,312.488c4.784,0,8.671,3.885,8.671,8.669
		c0,4.786-3.887,8.67-8.671,8.67s-8.669-3.885-8.669-8.67C5141.233,316.373,5145.118,312.488,5149.902,312.488"/>
	<path fill-rule="evenodd" clip-rule="evenodd" fill="#39D4FF" d="M5149.902,334.829c10.913,0,19.757,8.845,19.757,19.756
		l-0.01,0.518h-39.504v-0.518C5130.146,343.673,5138.989,334.829,5149.902,334.829"/>
	<path fill-rule="evenodd" clip-rule="evenodd" fill="#BCC2C6" d="M5122.651,404.702h54.502c2.168,0,3.936-1.767,3.936-3.927l0,0
		c0-2.167-1.768-3.934-3.936-3.934h-54.502c-2.166,0-3.934,1.767-3.934,3.934l0,0
		C5118.718,402.936,5120.485,404.702,5122.651,404.702"/>
	<path fill-rule="evenodd" clip-rule="evenodd" fill="#BCC2C6" d="M5114.583,384.946h70.639c2.16,0,3.927-1.768,3.927-3.935l0,0
		c0-2.159-1.767-3.926-3.927-3.926h-70.639c-2.16,0-3.927,1.768-3.927,3.926l0,0
		C5110.656,383.178,5112.423,384.946,5114.583,384.946"/>
	<rect x="5236.897" y="291.739" fill-rule="evenodd" clip-rule="evenodd" fill="#34495E" width="69.023" height="69.023"/>
	<rect x="5242.56" y="297.4" fill="#22A6EF" width="57.699" height="57.703"/>
	<path fill-rule="evenodd" clip-rule="evenodd" fill="#34495E" d="M5271.409,329.161c14.037,0,25.426,11.387,25.426,25.424
		l-0.008,0.518h-50.835l-0.008-0.518C5245.984,340.547,5257.372,329.161,5271.409,329.161"/>
	<path fill-rule="evenodd" clip-rule="evenodd" fill="#34495E" d="M5271.409,306.828c7.91,0,14.33,6.411,14.33,14.33
		c0,7.912-6.42,14.331-14.33,14.331s-14.33-6.419-14.33-14.331C5257.079,313.238,5263.499,306.828,5271.409,306.828"/>
	<path fill-rule="evenodd" clip-rule="evenodd" fill="#39D4FF" d="M5271.409,312.488c4.785,0,8.67,3.885,8.67,8.669
		c0,4.786-3.885,8.67-8.67,8.67s-8.67-3.885-8.67-8.67C5262.739,316.373,5266.624,312.488,5271.409,312.488"/>
	<path fill-rule="evenodd" clip-rule="evenodd" fill="#39D4FF" d="M5271.409,334.829c10.912,0,19.757,8.845,19.757,19.756v0.518
		h-39.514v-0.518C5251.652,343.673,5260.497,334.829,5271.409,334.829"/>
	<path fill-rule="evenodd" clip-rule="evenodd" fill="#BCC2C6" d="M5244.159,404.702h54.502c2.166,0,3.934-1.767,3.934-3.927l0,0
		c0-2.167-1.768-3.934-3.934-3.934h-54.502c-2.168,0-3.936,1.767-3.936,3.934l0,0
		C5240.224,402.936,5241.991,404.702,5244.159,404.702"/>
	<path fill-rule="evenodd" clip-rule="evenodd" fill="#BCC2C6" d="M5236.089,384.946h70.643c2.155,0,3.924-1.768,3.924-3.935l0,0
		c0-2.159-1.769-3.926-3.924-3.926h-70.643c-2.157,0-3.926,1.768-3.926,3.926l0,0
		C5232.163,383.178,5233.932,384.946,5236.089,384.946"/>
	<rect x="4993.884" y="435.604" fill-rule="evenodd" clip-rule="evenodd" fill="#34495E" width="69.023" height="69.021"/>
	<rect x="4999.546" y="441.264" fill="#22A6EF" width="57.699" height="57.703"/>
	<path fill-rule="evenodd" clip-rule="evenodd" fill="#34495E" d="M5028.396,473.032c14.037,0,25.418,11.38,25.418,25.418
		l-0.01,0.517h-50.824l-0.008-0.517C5002.972,484.412,5014.35,473.032,5028.396,473.032"/>
	<path fill-rule="evenodd" clip-rule="evenodd" fill="#34495E" d="M5028.396,450.692c7.91,0,14.329,6.419,14.329,14.329
		c0,7.912-6.419,14.33-14.329,14.33c-7.92,0-14.33-6.418-14.33-14.33C5014.065,457.111,5020.476,450.692,5028.396,450.692"/>
	<path fill-rule="evenodd" clip-rule="evenodd" fill="#39D4FF" d="M5028.396,456.36c4.784,0,8.661,3.877,8.661,8.661
		c0,4.794-3.877,8.671-8.661,8.671c-4.785,0-8.67-3.877-8.67-8.671C5019.726,460.237,5023.61,456.36,5028.396,456.36"/>
	<path fill-rule="evenodd" clip-rule="evenodd" fill="#39D4FF" d="M5028.396,478.693c10.911,0,19.756,8.845,19.756,19.757
		l-0.008,0.517h-39.505l-0.009-0.517C5008.63,487.538,5017.483,478.693,5028.396,478.693"/>
	<path fill-rule="evenodd" clip-rule="evenodd" fill="#BCC2C6" d="M5001.137,548.575h54.511c2.166,0,3.926-1.769,3.926-3.936l0,0
		c0-2.15-1.76-3.935-3.926-3.935h-54.511c-2.16,0-3.927,1.784-3.927,3.935l0,0C4997.21,546.807,4998.977,548.575,5001.137,548.575"
		/>
	<path fill-rule="evenodd" clip-rule="evenodd" fill="#BCC2C6" d="M4993.075,528.818h70.643c2.157,0,3.924-1.769,3.924-3.935
		c0-2.167-1.767-3.936-3.924-3.936h-70.643c-2.168,0-3.936,1.769-3.936,3.936C4989.14,527.05,4990.907,528.818,4993.075,528.818"/>
	<rect x="5115.392" y="435.604" fill-rule="evenodd" clip-rule="evenodd" fill="#34495E" width="69.021" height="69.021"/>
	<rect x="5121.052" y="441.264" fill="#22A6EF" width="57.703" height="57.703"/>
	<path fill-rule="evenodd" clip-rule="evenodd" fill="#34495E" d="M5149.902,473.032c14.038,0,25.416,11.38,25.416,25.418v0.517
		h-50.832l-0.009-0.517C5124.478,484.412,5135.864,473.032,5149.902,473.032"/>
	<path fill-rule="evenodd" clip-rule="evenodd" fill="#34495E" d="M5149.902,450.692c7.911,0,14.329,6.419,14.329,14.329
		c0,7.912-6.418,14.33-14.329,14.33s-14.329-6.418-14.329-14.33C5135.573,457.111,5141.991,450.692,5149.902,450.692"/>
	<path fill-rule="evenodd" clip-rule="evenodd" fill="#39D4FF" d="M5149.902,456.36c4.784,0,8.671,3.877,8.671,8.661
		c0,4.794-3.887,8.671-8.671,8.671s-8.669-3.877-8.669-8.671C5141.233,460.237,5145.118,456.36,5149.902,456.36"/>
	<path fill-rule="evenodd" clip-rule="evenodd" fill="#39D4FF" d="M5149.902,478.693c10.913,0,19.757,8.845,19.757,19.757
		l-0.01,0.517h-39.504v-0.517C5130.146,487.538,5138.989,478.693,5149.902,478.693"/>
	<path fill-rule="evenodd" clip-rule="evenodd" fill="#BCC2C6" d="M5122.651,548.575h54.502c2.168,0,3.936-1.769,3.936-3.936l0,0
		c0-2.15-1.768-3.935-3.936-3.935h-54.502c-2.166,0-3.934,1.784-3.934,3.935l0,0
		C5118.718,546.807,5120.485,548.575,5122.651,548.575"/>
	<path fill-rule="evenodd" clip-rule="evenodd" fill="#BCC2C6" d="M5114.583,528.818h70.639c2.16,0,3.927-1.769,3.927-3.935
		c0-2.167-1.767-3.936-3.927-3.936h-70.639c-2.16,0-3.927,1.769-3.927,3.936C5110.656,527.05,5112.423,528.818,5114.583,528.818"/>
	<rect x="5236.897" y="435.604" fill-rule="evenodd" clip-rule="evenodd" fill="#34495E" width="69.023" height="69.021"/>
	<rect x="5242.56" y="441.264" fill="#22A6EF" width="57.699" height="57.703"/>
	<path fill-rule="evenodd" clip-rule="evenodd" fill="#34495E" d="M5271.409,473.032c14.037,0,25.426,11.38,25.426,25.418
		l-0.008,0.517h-50.835l-0.008-0.517C5245.984,484.412,5257.372,473.032,5271.409,473.032"/>
	<path fill-rule="evenodd" clip-rule="evenodd" fill="#34495E" d="M5271.409,450.692c7.91,0,14.33,6.419,14.33,14.329
		c0,7.912-6.42,14.33-14.33,14.33s-14.33-6.418-14.33-14.33C5257.079,457.111,5263.499,450.692,5271.409,450.692"/>
	<path fill-rule="evenodd" clip-rule="evenodd" fill="#39D4FF" d="M5271.409,456.36c4.785,0,8.67,3.877,8.67,8.661
		c0,4.794-3.885,8.671-8.67,8.671s-8.67-3.877-8.67-8.671C5262.739,460.237,5266.624,456.36,5271.409,456.36"/>
	<path fill-rule="evenodd" clip-rule="evenodd" fill="#39D4FF" d="M5271.409,478.693c10.912,0,19.757,8.845,19.757,19.757v0.517
		h-39.514v-0.517C5251.652,487.538,5260.497,478.693,5271.409,478.693"/>
	<path fill-rule="evenodd" clip-rule="evenodd" fill="#BCC2C6" d="M5244.159,548.575h54.502c2.166,0,3.934-1.769,3.934-3.936l0,0
		c0-2.15-1.768-3.935-3.934-3.935h-54.502c-2.168,0-3.936,1.784-3.936,3.935l0,0
		C5240.224,546.807,5241.991,548.575,5244.159,548.575"/>
	<path fill-rule="evenodd" clip-rule="evenodd" fill="#BCC2C6" d="M5236.089,528.818h70.643c2.155,0,3.924-1.769,3.924-3.935
		c0-2.167-1.769-3.936-3.924-3.936h-70.643c-2.157,0-3.926,1.769-3.926,3.936C5232.163,527.05,5233.932,528.818,5236.089,528.818"/>
	<path opacity="0.5" fill-rule="evenodd" clip-rule="evenodd" fill="#34495E" d="M4953.454,260.796
		c-2.176,0-4.244,0.875-5.785,2.409c-1.535,1.542-2.409,3.609-2.409,5.786v302.341c0,2.167,0.874,4.234,2.409,5.769
		c1.541,1.551,3.609,2.418,5.785,2.418h392.896c2.175,0,4.244-0.867,5.777-2.418c1.542-1.534,2.41-3.602,2.41-5.769V268.991
		c0-2.185-0.868-4.244-2.41-5.786c-1.533-1.542-3.608-2.409-5.777-2.409H4953.454z"/>
	<path fill="#34495E" d="M5028.753,318.257h242.299c2.391,0,4.56,0.976,6.127,2.542c1.574,1.576,2.55,3.743,2.55,6.136V513.38
		c0,2.401-0.976,4.567-2.55,6.135c-1.567,1.568-3.736,2.552-6.127,2.552h-242.299c-2.383,0-4.56-0.983-6.127-2.552
		c-1.574-1.567-2.549-3.733-2.549-6.135V326.935c0-2.393,0.975-4.56,2.549-6.136C5024.193,319.232,5026.37,318.257,5028.753,318.257
		"/>
	<path fill-rule="evenodd" clip-rule="evenodd" fill="#FFFFFF" d="M5028.753,324.134c-0.75,0-1.44,0.292-1.974,0.825
		c-0.526,0.525-0.816,1.226-0.816,1.976V513.38c0,0.75,0.29,1.451,0.816,1.983c0.533,0.517,1.224,0.817,1.974,0.817h242.299
		c0.74,0,1.441-0.301,1.969-0.817c0.53-0.532,0.822-1.233,0.822-1.983V326.935c0-0.75-0.292-1.451-0.822-1.976
		c-0.527-0.534-1.229-0.825-1.969-0.825H5028.753z"/>
	<path fill="#BCC2C6" d="M5124.511,479.136h-44.574c-1.717,0-3.275,0.708-4.4,1.833c-1.133,1.133-1.841,2.693-1.841,4.401
		c0,1.726,0.699,3.285,1.824,4.409l0.017,0.01c1.117,1.125,2.676,1.824,4.4,1.824h44.574c1.718,0,3.276-0.708,4.401-1.834
		c1.133-1.133,1.835-2.692,1.835-4.409c0-1.718-0.702-3.276-1.826-4.409C5127.796,479.835,5126.229,479.136,5124.511,479.136
		 M5079.937,473.025h44.574c3.393,0,6.476,1.391,8.712,3.625l0.015,0.009c2.236,2.242,3.619,5.327,3.619,8.711
		c0,3.401-1.383,6.494-3.619,8.729c-2.24,2.234-5.324,3.625-8.727,3.625h-44.574c-3.384,0-6.469-1.391-8.711-3.625l-0.008-0.009
		l-0.008-0.009c-2.235-2.241-3.619-5.326-3.619-8.711c0-3.394,1.384-6.485,3.619-8.72
		C5073.453,474.416,5076.536,473.025,5079.937,473.025z"/>
	<path fill="#34495E" d="M5077.512,467.982h44.581c3.385,0,6.469,1.384,8.703,3.625l0.017,0.008
		c2.234,2.243,3.628,5.318,3.628,8.711c0,3.403-1.394,6.486-3.628,8.721c-2.233,2.242-5.327,3.625-8.72,3.625h-44.581
		c-3.384,0-6.468-1.383-8.711-3.625h-0.007v-0.009c-2.244-2.243-3.629-5.326-3.629-8.712c0-3.401,1.385-6.484,3.629-8.719
		C5071.026,469.366,5074.11,467.982,5077.512,467.982"/>
	<path fill="#27CABF" d="M5122.093,471.658c2.303,0,4.502,0.908,6.127,2.533c1.627,1.634,2.543,3.835,2.543,6.135
		c0,2.302-0.916,4.502-2.551,6.127c-1.625,1.625-3.816,2.544-6.119,2.544h-44.581c-2.3,0-4.501-0.901-6.127-2.534l-0.009-0.01
		c-1.634-1.625-2.535-3.825-2.535-6.127c0-2.3,0.919-4.501,2.544-6.126c1.626-1.625,3.827-2.542,6.127-2.542H5122.093z"/>
	<path fill="#51F4E9" d="M5122.093,471.658c2.303,0,4.502,0.908,6.127,2.533c1.627,1.634,2.543,3.835,2.543,6.135
		c0,0.592-0.059,1.176-0.184,1.743c-0.333-1.65-1.15-3.168-2.359-4.377c-1.625-1.633-3.824-2.543-6.127-2.543h-44.581
		c-2.3,0-4.501,0.918-6.127,2.543c-1.208,1.209-2.026,2.733-2.368,4.385c-0.115-0.566-0.176-1.159-0.176-1.751
		c0-2.3,0.919-4.501,2.544-6.126c1.626-1.625,3.827-2.542,6.127-2.542H5122.093z"/>
	<path fill="#BCC2C6" d="M5222.293,479.136h-44.581c-1.711,0-3.268,0.708-4.4,1.833c-1.134,1.133-1.836,2.693-1.836,4.401
		c0,1.726,0.702,3.285,1.826,4.409l0.01,0.01c1.124,1.125,2.684,1.824,4.4,1.824h44.581c1.71,0,3.27-0.708,4.402-1.834
		c1.133-1.133,1.833-2.692,1.833-4.409c0-1.718-0.7-3.276-1.825-4.409C5225.569,479.835,5224.009,479.136,5222.293,479.136
		 M5177.712,473.025h44.581c3.394,0,6.469,1.391,8.712,3.625l0.008,0.009c2.235,2.242,3.627,5.327,3.627,8.711
		c0,3.401-1.392,6.494-3.627,8.729c-2.234,2.234-5.326,3.625-8.72,3.625h-44.581c-3.385,0-6.469-1.391-8.712-3.625v-0.009
		l-0.007-0.009c-2.235-2.241-3.627-5.326-3.627-8.711c0-3.394,1.392-6.485,3.627-8.72
		C5171.226,474.416,5174.31,473.025,5177.712,473.025z"/>
	<path fill="#34495E" d="M5175.286,467.982h44.582c3.392,0,6.469,1.384,8.711,3.625l0.009,0.008
		c2.242,2.243,3.625,5.318,3.625,8.711c0,3.403-1.383,6.486-3.625,8.721c-2.234,2.242-5.319,3.625-8.72,3.625h-44.582
		c-3.377,0-6.461-1.383-8.703-3.625h-0.008l-0.009-0.009c-2.233-2.243-3.628-5.326-3.628-8.712c0-3.401,1.395-6.484,3.628-8.719
		C5168.808,469.366,5171.894,467.982,5175.286,467.982"/>
	<path fill="#F65C4C" d="M5219.868,471.658c2.3,0,4.5,0.908,6.133,2.533c1.627,1.634,2.537,3.835,2.537,6.135
		c0,2.302-0.918,4.502-2.543,6.127c-1.627,1.625-3.827,2.544-6.127,2.544h-44.582c-2.301,0-4.493-0.901-6.119-2.534l-0.018-0.01
		c-1.625-1.625-2.532-3.825-2.532-6.127c0-2.3,0.915-4.501,2.55-6.126c1.626-1.625,3.818-2.542,6.119-2.542H5219.868z"/>
	<path fill="#FF7C6C" d="M5219.868,471.658c2.3,0,4.5,0.908,6.133,2.533c1.627,1.634,2.537,3.835,2.537,6.135
		c0,0.592-0.059,1.176-0.176,1.743c-0.344-1.65-1.16-3.168-2.361-4.377c-1.633-1.633-3.833-2.543-6.133-2.543h-44.582
		c-2.301,0-4.493,0.918-6.119,2.543c-1.217,1.209-2.027,2.733-2.367,4.385c-0.125-0.566-0.183-1.159-0.183-1.751
		c0-2.3,0.915-4.501,2.55-6.126c1.626-1.625,3.818-2.542,6.119-2.542H5219.868z"/>
	<path fill-rule="evenodd" clip-rule="evenodd" fill="#FFFFFF" d="M5313.698,280.735l6.228,6.219l6.218-6.219
		c1.527-1.533,4.027-1.533,5.561,0l0,0c1.525,1.526,1.525,4.027,0,5.562l-6.218,6.218l6.218,6.227c1.525,1.526,1.525,4.026,0,5.552
		v0.008c-1.533,1.526-4.033,1.526-5.561,0l-6.218-6.227l-6.228,6.227c-1.524,1.526-4.027,1.526-5.552,0v-0.008
		c-1.534-1.525-1.534-4.026,0-5.552l6.218-6.227l-6.226-6.218c-1.526-1.535-1.526-4.035,0-5.562h0.008
		C5309.671,279.202,5312.174,279.202,5313.698,280.735"/>
	<path fill-rule="evenodd" clip-rule="evenodd" fill="#94A4A5" d="M5219.3,236.513l-6.66-8.436h-2.076v13.604h2.561v-9.178
		l7.143,9.178h1.594v-13.604h-2.561V236.513z M5199.536,230.153c3.209,0,4.484,2.559,4.441,4.851
		c-0.031,2.226-1.232,4.635-4.441,4.635c-3.202,0-4.402-2.385-4.461-4.618C5195.019,232.728,5196.334,230.153,5199.536,230.153z
		 M5199.536,227.827c-4.693,0-6.987,3.584-6.987,7.152c0,3.577,2.218,7.011,6.987,7.011c4.776,0,6.926-3.518,6.969-7.027
		C5206.546,231.411,5204.211,227.827,5199.536,227.827z M5188.357,241.682v-13.604h-2.542v13.604H5188.357z M5175.386,241.682h2.559
		v-11.279h4.309v-2.325c-3.933,0-7.25,0-11.178,0v2.325h4.311V241.682z M5166.899,238.206c-0.893,0.892-2.225,1.375-3.408,1.375
		c-3.359,0-4.66-2.351-4.678-4.602c-0.024-2.268,1.391-4.709,4.678-4.709c1.184,0,2.383,0.408,3.275,1.275l1.71-1.643
		c-1.401-1.384-3.144-2.076-4.985-2.076c-4.912,0-7.22,3.602-7.203,7.152c0.017,3.535,2.158,7.011,7.203,7.011
		c1.957,0,3.759-0.642,5.16-2.017L5166.899,238.206z M5152.712,239.156h-7.628v-3.068h7.354v-2.384h-7.354v-3.143h7.628v-2.483
		h-10.17c0,4.535,0,9.078,0,13.604h10.17V239.156z M5135.69,236.513l-6.654-8.436h-2.082v13.604h2.566v-9.178l7.135,9.178h1.594
		v-13.604h-2.559V236.513z M5119.868,236.513l-6.652-8.436h-2.076v13.604h2.559v-9.178l7.146,9.178h1.593v-13.604h-2.568V236.513z
		 M5100.11,230.153c3.201,0,4.484,2.559,4.444,4.851c-0.043,2.226-1.243,4.635-4.444,4.635s-4.409-2.385-4.46-4.618
		C5095.594,232.728,5096.909,230.153,5100.11,230.153z M5100.11,227.827c-4.702,0-6.984,3.584-6.984,7.152
		c0,3.577,2.209,7.011,6.984,7.011c4.777,0,6.928-3.518,6.961-7.027C5107.113,231.411,5104.788,227.827,5100.11,227.827z
		 M5088.558,238.206c-0.893,0.892-2.234,1.375-3.41,1.375c-3.359,0-4.659-2.351-4.685-4.602c-0.018-2.268,1.399-4.709,4.685-4.709
		c1.176,0,2.384,0.408,3.277,1.275l1.708-1.643c-1.401-1.384-3.143-2.076-4.985-2.076c-4.91,0-7.218,3.602-7.201,7.152
		c0.015,3.535,2.15,7.011,7.201,7.011c1.959,0,3.759-0.642,5.16-2.017L5088.558,238.206z"/>
	<path fill-rule="evenodd" clip-rule="evenodd" fill="#34495E" d="M5149.902,365.597c19.056,0,34.511,15.455,34.511,34.511
		c0,19.057-15.455,34.512-34.511,34.512c-19.064,0-34.511-15.455-34.511-34.512C5115.392,381.052,5130.838,365.597,5149.902,365.597
		"/>
	<path fill="#22A6EF" d="M5149.902,371.258c15.931,0,28.853,12.921,28.853,28.851c0,15.931-12.922,28.853-28.853,28.853
		s-28.851-12.922-28.851-28.853C5121.052,384.179,5133.972,371.258,5149.902,371.258"/>
	<path fill-rule="evenodd" clip-rule="evenodd" fill="#34495E" d="M5149.902,403.026c10.145,0,18.898,5.943,22.974,14.529
		c-5.268,6.929-13.596,11.405-22.974,11.405s-17.706-4.477-22.974-11.405C5131.005,408.97,5139.757,403.026,5149.902,403.026"/>
	<path fill-rule="evenodd" clip-rule="evenodd" fill="#34495E" d="M5149.902,380.686c7.911,0,14.329,6.418,14.329,14.329
		c0,7.912-6.418,14.331-14.329,14.331s-14.329-6.419-14.329-14.331C5135.573,387.104,5141.991,380.686,5149.902,380.686"/>
	<path fill-rule="evenodd" clip-rule="evenodd" fill="#39D4FF" d="M5149.902,386.354c4.784,0,8.671,3.876,8.671,8.661
		s-3.887,8.67-8.671,8.67s-8.669-3.886-8.669-8.67S5145.118,386.354,5149.902,386.354"/>
	<path fill-rule="evenodd" clip-rule="evenodd" fill="#39D4FF" d="M5149.902,408.688c8.677,0,16.056,5.602,18.706,13.387
		c-5.033,4.293-11.57,6.887-18.706,6.887c-7.144,0-13.673-2.594-18.706-6.887C5133.847,414.289,5141.216,408.688,5149.902,408.688"
		/>
</g>
<g>
	<path fill="#BCC2C6" d="M204.85,207.445h388.611c4.459,0,8.52,1.826,11.454,4.76v0.017c2.935,2.934,4.759,6.985,4.759,11.437
		v345.522c0,4.452-1.824,8.503-4.759,11.438v0.017c-2.935,2.935-6.995,4.751-11.454,4.751H204.85c-4.46,0-8.52-1.816-11.455-4.751
		v-0.017c-2.934-2.935-4.761-6.985-4.761-11.438V223.659c0-4.452,1.827-8.503,4.761-11.437v-0.017
		C196.33,209.271,200.39,207.445,204.85,207.445"/>
	<path fill="#EBEFF0" d="M603.788,223.659v345.522c0,6.519-4.535,10.338-10.327,10.338H204.85c-5.786,0-10.33-3.719-10.33-10.338
		V223.659c0-6.744,4.561-10.329,10.33-10.329h388.611C599.246,213.33,603.788,217.04,603.788,223.659"/>
	<path fill="#BCC2C6" d="M202.706,254.919h392.897c3.876,0,7.394,1.576,9.936,4.126c2.551,2.543,4.135,6.069,4.135,9.946v302.341
		c0,3.868-1.584,7.386-4.135,9.937c-2.542,2.551-6.06,4.117-9.936,4.117H202.706c-3.876,0-7.394-1.566-9.938-4.117
		c-2.55-2.551-4.135-6.068-4.135-9.937V268.991c0-3.876,1.585-7.403,4.135-9.946C195.313,256.495,198.83,254.919,202.706,254.919"/>
	<path fill-rule="evenodd" clip-rule="evenodd" fill="#FFFFFF" d="M202.706,260.796c-2.175,0-4.243,0.875-5.776,2.409
		c-1.543,1.542-2.41,3.609-2.41,5.786v302.341c0,2.167,0.867,4.234,2.41,5.769c1.533,1.551,3.602,2.418,5.776,2.418h392.897
		c2.175,0,4.242-0.867,5.783-2.418c1.535-1.534,2.401-3.602,2.401-5.769V268.991c0-2.185-0.866-4.244-2.401-5.786
		c-1.541-1.542-3.608-2.409-5.783-2.409H202.706z"/>
	<path fill-rule="evenodd" clip-rule="evenodd" fill="#94A4A5" d="M545.035,227.418c4.137,0,7.494,3.352,7.494,7.486
		c0,4.135-3.357,7.495-7.494,7.495c-4.135,0-7.484-3.36-7.484-7.495C537.551,230.77,540.9,227.418,545.035,227.418 M568.561,227.418
		c4.135,0,7.485,3.352,7.485,7.486c0,4.135-3.351,7.495-7.485,7.495s-7.495-3.36-7.495-7.495
		C561.065,230.77,564.426,227.418,568.561,227.418z M521.52,227.418c4.136,0,7.486,3.352,7.486,7.486
		c0,4.135-3.351,7.495-7.486,7.495c-4.135,0-7.486-3.36-7.486-7.495C514.033,230.77,517.385,227.418,521.52,227.418z"/>
	<!-- <path fill-rule="evenodd" clip-rule="evenodd" fill="#94A4A5" d="M429.056,242.982h3.052v-13.446h5.143v-2.776
		c-4.701,0-8.661,0-13.328,0v2.776h5.134V242.982z M415.052,237.08h-6.019l3.008-6.91L415.052,237.08z M417.644,242.982h3.335
		l-7.271-16.223h-3.335l-7.26,16.223h3.311l1.383-3.06h8.471L417.644,242.982z M396.745,242.982v-16.18h-3.026v6.828h-7.968v-6.828
		h-3.052v16.18h3.052v-6.527h7.968v6.527H396.745z M373.721,238.839c-1.066,1.067-2.659,1.642-4.076,1.642
		c-4.001,0-5.552-2.8-5.576-5.484c-0.025-2.71,1.666-5.619,5.576-5.619c1.417,0,2.852,0.483,3.91,1.525l2.043-1.967
		c-1.668-1.642-3.753-2.476-5.953-2.476c-5.852,0-8.611,4.301-8.586,8.537c0.025,4.209,2.567,8.353,8.586,8.353
		c2.342,0,4.492-0.759,6.16-2.4L373.721,238.839z"/> -->
	<path fill-rule="evenodd" clip-rule="evenodd" fill="#34495E" d="M272.697,296.208c19.063,0,34.51,15.447,34.51,34.511
		c0,19.057-15.446,34.512-34.51,34.512c-19.058,0-34.514-15.455-34.514-34.512C238.184,311.654,253.64,296.208,272.697,296.208"/>
	<path fill="#22A6EF" d="M272.697,301.868c15.938,0,28.85,12.913,28.85,28.851c0,15.931-12.912,28.852-28.85,28.852
		c-15.932,0-28.853-12.921-28.853-28.852C243.845,314.781,256.766,301.868,272.697,301.868"/>
	<path fill-rule="evenodd" clip-rule="evenodd" fill="#34495E" d="M272.697,333.637c10.143,0,18.896,5.943,22.98,14.529
		c-5.276,6.928-13.604,11.404-22.98,11.404c-9.371,0-17.707-4.477-22.977-11.404C253.799,339.58,262.561,333.637,272.697,333.637"/>
	<path fill-rule="evenodd" clip-rule="evenodd" fill="#34495E" d="M272.697,311.296c7.917,0,14.329,6.418,14.329,14.33
		c0,7.911-6.412,14.33-14.329,14.33c-7.912,0-14.331-6.419-14.331-14.33C258.366,317.714,264.785,311.296,272.697,311.296"/>
	<path fill-rule="evenodd" clip-rule="evenodd" fill="#39D4FF" d="M272.697,316.956c4.791,0,8.668,3.884,8.668,8.67
		c0,4.785-3.877,8.669-8.668,8.669c-4.786,0-8.662-3.885-8.662-8.669C264.035,320.84,267.911,316.956,272.697,316.956"/>
	<path fill-rule="evenodd" clip-rule="evenodd" fill="#39D4FF" d="M272.697,339.297c8.686,0,16.063,5.602,18.713,13.38
		c-5.033,4.301-11.57,6.894-18.713,6.894c-7.137,0-13.672-2.592-18.708-6.894C256.64,344.899,264.018,339.297,272.697,339.297"/>
	<path fill-rule="evenodd" clip-rule="evenodd" fill="#BCC2C6" d="M340.977,334.537h208.278c2.166,0,3.934-1.768,3.934-3.927
		c0-2.167-1.768-3.934-3.934-3.934H340.977c-2.166,0-3.936,1.767-3.936,3.934C337.041,332.77,338.811,334.537,340.977,334.537"/>
	<path fill-rule="evenodd" clip-rule="evenodd" fill="#BCC2C6" d="M340.977,354.202H504.59c2.167,0,3.934-1.768,3.934-3.926v-0.008
		c0-2.158-1.767-3.926-3.934-3.926H340.977c-2.166,0-3.936,1.768-3.936,3.926v0.008
		C337.041,352.434,338.811,354.202,340.977,354.202"/>
	<path fill-rule="evenodd" clip-rule="evenodd" fill="#BCC2C6" d="M340.977,315.098h135.379c2.158,0,3.934-1.767,3.934-3.935l0,0
		c0-2.168-1.775-3.926-3.934-3.926H340.977c-2.166,0-3.936,1.758-3.936,3.926l0,0C337.041,313.331,338.811,315.098,340.977,315.098"
		/>
	<path fill-rule="evenodd" clip-rule="evenodd" fill="#BCC2C6" d="M242.119,433.37h208.277c2.168,0,3.935-1.769,3.935-3.927v-0.009
		c0-2.159-1.767-3.926-3.935-3.926H242.119c-2.168,0-3.936,1.767-3.936,3.926v0.009C238.184,431.602,239.951,433.37,242.119,433.37"
		/>
	<path fill-rule="evenodd" clip-rule="evenodd" fill="#BCC2C6" d="M242.119,453.034H405.73c2.168,0,3.936-1.767,3.936-3.935
		c0-2.157-1.768-3.926-3.936-3.926H242.119c-2.158,0-3.936,1.769-3.936,3.926C238.184,451.268,239.961,453.034,242.119,453.034"/>
	<path fill-rule="evenodd" clip-rule="evenodd" fill="#BCC2C6" d="M242.119,413.922h135.377c2.168,0,3.936-1.767,3.936-3.927l0,0
		c0-2.167-1.768-3.935-3.936-3.935H242.119c-2.158,0-3.936,1.768-3.936,3.935l0,0C238.184,412.155,239.961,413.922,242.119,413.922"
		/>
	<path fill-rule="evenodd" clip-rule="evenodd" fill="#34495E" d="M525.612,395.04c19.056,0,34.503,15.447,34.503,34.503
		c0,19.064-15.447,34.52-34.503,34.52c-19.063,0-34.52-15.455-34.52-34.52C491.093,410.487,506.549,395.04,525.612,395.04"/>
	<path fill="#22A6EF" d="M525.612,400.7c15.931,0,28.843,12.913,28.843,28.843c0,15.938-12.912,28.86-28.843,28.86
		c-15.938,0-28.859-12.922-28.859-28.86C496.753,413.613,509.674,400.7,525.612,400.7"/>
	<path fill-rule="evenodd" clip-rule="evenodd" fill="#34495E" d="M525.612,432.462c10.138,0,18.89,5.943,22.974,14.537
		c-5.275,6.928-13.603,11.404-22.974,11.404c-9.377,0-17.714-4.477-22.983-11.404C506.715,438.405,515.468,432.462,525.612,432.462"
		/>
	<path fill-rule="evenodd" clip-rule="evenodd" fill="#34495E" d="M525.612,410.128c7.913,0,14.322,6.42,14.322,14.331
		c0,7.91-6.409,14.329-14.322,14.329c-7.919,0-14.329-6.419-14.329-14.329C511.283,416.548,517.693,410.128,525.612,410.128"/>
	<path fill-rule="evenodd" clip-rule="evenodd" fill="#39D4FF" d="M525.612,415.788c4.786,0,8.661,3.886,8.661,8.671
		c0,4.784-3.875,8.669-8.661,8.669c-4.792,0-8.668-3.885-8.668-8.669C516.944,419.674,520.82,415.788,525.612,415.788"/>
	<path fill-rule="evenodd" clip-rule="evenodd" fill="#39D4FF" d="M525.612,438.13c8.678,0,16.056,5.594,18.706,13.379
		c-5.033,4.293-11.57,6.895-18.706,6.895c-7.144,0-13.679-2.602-18.714-6.895C509.551,443.724,516.926,438.13,525.612,438.13"/>
	<path fill-rule="evenodd" clip-rule="evenodd" fill="#BCC2C6" d="M243.161,508.545h200.408c2.734,0,4.978,2.234,4.978,4.969v15.271
		c0,2.733-2.243,4.984-4.978,4.984H243.161c-2.733,0-4.978-2.251-4.978-4.984v-15.271
		C238.184,510.779,240.428,508.545,243.161,508.545"/>
	<rect x="244.069" y="514.429" fill-rule="evenodd" clip-rule="evenodd" fill="#FFFFFF" width="198.592" height="13.455"/>
	<path fill="#BCC2C6" d="M543.828,519.582h-58.837c-2.259,0-4.317,0.917-5.811,2.418c-1.501,1.5-2.427,3.551-2.427,5.816l0,0
		c0,2.268,0.926,4.319,2.41,5.803l0.017,0.018c1.483,1.483,3.543,2.417,5.811,2.417h58.837c2.258,0,4.318-0.934,5.809-2.435
		c1.492-1.483,2.427-3.551,2.427-5.803l0,0c0-2.266-0.935-4.333-2.417-5.816C548.153,520.499,546.096,519.582,543.828,519.582
		 M484.991,511.514h58.837c4.467,0,8.543,1.832,11.494,4.784l0.018,0.017c2.951,2.951,4.775,7.019,4.775,11.502l0,0
		c0,4.486-1.824,8.554-4.775,11.505c-2.959,2.952-7.029,4.784-11.512,4.784h-58.837c-4.468,0-8.536-1.832-11.495-4.784h-0.008
		l-0.01-0.017c-2.949-2.951-4.784-7.019-4.784-11.488l0,0c0-4.483,1.835-8.567,4.784-11.519
		C476.43,513.346,480.507,511.514,484.991,511.514z"/>
	<path fill="#34495E" d="M481.79,504.853h58.835c4.477,0,8.547,1.834,11.498,4.792l0.015,0.018c2.951,2.95,4.784,7.019,4.784,11.486
		l0,0c0,4.485-1.833,8.57-4.784,11.521c-2.95,2.95-7.026,4.786-11.513,4.786H481.79c-4.468,0-8.536-1.836-11.495-4.786l-0.01-0.017
		h-0.006c-2.953-2.967-4.786-7.036-4.786-11.504l0,0c0-4.485,1.833-8.553,4.786-11.504
		C473.229,506.687,477.306,504.853,481.79,504.853"/>
	<path fill="#27CABF" d="M540.625,509.712c3.035,0,5.944,1.199,8.095,3.351c2.144,2.15,3.351,5.052,3.351,8.086
		c0,3.051-1.207,5.936-3.358,8.086c-2.149,2.15-5.044,3.369-8.087,3.369H481.79c-3.034,0-5.937-1.202-8.085-3.353l-0.01-0.017
		c-2.15-2.15-3.351-5.05-3.351-8.086c0-3.034,1.218-5.936,3.36-8.086c2.148-2.151,5.043-3.351,8.085-3.351H540.625z"/>
	<path fill="#51F4E9" d="M540.625,509.712c3.035,0,5.944,1.199,8.095,3.351c2.144,2.15,3.351,5.052,3.351,8.086
		c0,0.784-0.082,1.551-0.232,2.302c-0.451-2.167-1.525-4.185-3.118-5.785c-2.15-2.151-5.06-3.351-8.095-3.351H481.79
		c-3.042,0-5.937,1.216-8.085,3.366c-1.594,1.6-2.677,3.603-3.127,5.787c-0.15-0.751-0.233-1.535-0.233-2.319
		c0-3.034,1.218-5.936,3.36-8.086c2.148-2.151,5.043-3.351,8.085-3.351H540.625z"/>
</g>
</svg>
