<?xml version="1.0" encoding="utf-8"?>
<!-- Generator: Adobe Illustrator 15.1.0, SVG Export Plug-In . SVG Version: 6.00 Build 0)  -->
<!DOCTYPE svg PUBLIC "-//W3C//DTD SVG 1.0//EN" "http://www.w3.org/TR/2001/REC-SVG-20010904/DTD/svg10.dtd">
<svg version="1.0" id="Layer_1" xmlns="http://www.w3.org/2000/svg" xmlns:xlink="http://www.w3.org/1999/xlink" x="0px" y="0px"
	 width="800px" height="800px" viewBox="0 0 800 800" enable-background="new 0 0 800 800" xml:space="preserve">
<g>
	<!-- <path fill="#BCC2C6" d="M4955.596,207.445h388.612c4.461,0,8.521,1.826,11.453,4.76v0.017c2.936,2.934,4.76,6.985,4.76,11.437
		v345.522c0,4.452-1.824,8.503-4.76,11.438v0.017c-2.933,2.935-6.992,4.751-11.453,4.751h-388.612
		c-4.466,0-8.518-1.816-11.452-4.751v-0.017c-2.936-2.935-4.761-6.985-4.761-11.438V223.659c0-4.452,1.825-8.503,4.761-11.437
		v-0.017C4947.078,209.271,4951.13,207.445,4955.596,207.445"/>
	<path fill="#EBEFF0" d="M5354.538,223.659v345.522c0,6.519-4.536,10.338-10.33,10.338h-388.612
		c-5.784,0-10.327-3.719-10.327-10.338V223.659c0-6.744,4.559-10.329,10.327-10.329h388.612
		C5349.993,213.33,5354.538,217.04,5354.538,223.659"/> -->
	<path fill="#34495E" d="M4953.454,254.919h392.896c3.877,0,7.394,1.576,9.938,4.126c2.551,2.543,4.133,6.069,4.133,9.946v302.341
		c0,3.868-1.582,7.386-4.133,9.937c-2.544,2.551-6.061,4.117-9.938,4.117h-392.896c-3.866,0-7.395-1.566-9.938-4.117
		c-2.549-2.551-4.134-6.068-4.134-9.937V268.991c0-3.876,1.585-7.403,4.134-9.946
		C4946.06,256.495,4949.588,254.919,4953.454,254.919"/>
	<path fill-rule="evenodd" clip-rule="evenodd" fill="#FFFFFF" d="M4953.454,260.796c-2.176,0-4.244,0.875-5.785,2.409
		c-1.535,1.542-2.409,3.609-2.409,5.786v302.341c0,2.167,0.874,4.234,2.409,5.769c1.541,1.551,3.609,2.418,5.785,2.418h392.896
		c2.175,0,4.244-0.867,5.777-2.418c1.542-1.534,2.41-3.602,2.41-5.769V268.991c0-2.185-0.868-4.244-2.41-5.786
		c-1.533-1.542-3.608-2.409-5.777-2.409H4953.454z"/>
	<!-- <path fill-rule="evenodd" clip-rule="evenodd" fill="#94A4A5" d="M5295.784,227.418c4.135,0,7.493,3.352,7.493,7.486
		c0,4.135-3.35,7.495-7.493,7.495c-4.135,0-7.486-3.36-7.486-7.495C5288.298,230.77,5291.649,227.418,5295.784,227.418
		 M5319.308,227.418c4.136,0,7.486,3.352,7.486,7.486c0,4.135-3.351,7.495-7.486,7.495c-4.135,0-7.493-3.36-7.493-7.495
		C5311.814,230.77,5315.173,227.418,5319.308,227.418z M5272.27,227.418c4.134,0,7.484,3.352,7.484,7.486
		c0,4.135-3.351,7.495-7.484,7.495c-4.135,0-7.495-3.36-7.495-7.495C5264.774,230.77,5268.135,227.418,5272.27,227.418z"/> -->
	<rect x="4993.884" y="291.739" fill-rule="evenodd" clip-rule="evenodd" fill="#34495E" width="69.023" height="69.023"/>
	<rect x="4999.546" y="297.4" fill="#22A6EF" width="57.699" height="57.703"/>
	<path fill-rule="evenodd" clip-rule="evenodd" fill="#34495E" d="M5028.396,329.161c14.037,0,25.418,11.387,25.418,25.424
		l-0.01,0.518h-50.824l-0.008-0.518C5002.972,340.547,5014.35,329.161,5028.396,329.161"/>
	<path fill-rule="evenodd" clip-rule="evenodd" fill="#34495E" d="M5028.396,306.828c7.91,0,14.329,6.411,14.329,14.33
		c0,7.912-6.419,14.331-14.329,14.331c-7.92,0-14.33-6.419-14.33-14.331C5014.065,313.238,5020.476,306.828,5028.396,306.828"/>
	<path fill-rule="evenodd" clip-rule="evenodd" fill="#39D4FF" d="M5028.396,312.488c4.784,0,8.661,3.885,8.661,8.669
		c0,4.786-3.877,8.67-8.661,8.67c-4.785,0-8.67-3.885-8.67-8.67C5019.726,316.373,5023.61,312.488,5028.396,312.488"/>
	<path fill-rule="evenodd" clip-rule="evenodd" fill="#39D4FF" d="M5028.396,334.829c10.911,0,19.756,8.845,19.756,19.756
		l-0.008,0.518h-39.505l-0.009-0.518C5008.63,343.673,5017.483,334.829,5028.396,334.829"/>
	<path fill-rule="evenodd" clip-rule="evenodd" fill="#BCC2C6" d="M5001.137,404.702h54.511c2.166,0,3.926-1.767,3.926-3.927l0,0
		c0-2.167-1.76-3.934-3.926-3.934h-54.511c-2.16,0-3.927,1.767-3.927,3.934l0,0C4997.21,402.936,4998.977,404.702,5001.137,404.702"
		/>
	<path fill-rule="evenodd" clip-rule="evenodd" fill="#BCC2C6" d="M4993.075,384.946h70.643c2.157,0,3.924-1.768,3.924-3.935l0,0
		c0-2.159-1.767-3.926-3.924-3.926h-70.643c-2.168,0-3.936,1.768-3.936,3.926l0,0
		C4989.14,383.178,4990.907,384.946,4993.075,384.946"/>
	<rect x="5115.392" y="291.739" fill-rule="evenodd" clip-rule="evenodd" fill="#34495E" width="69.021" height="69.023"/>
	<rect x="5121.052" y="297.4" fill="#22A6EF" width="57.703" height="57.703"/>
	<path fill-rule="evenodd" clip-rule="evenodd" fill="#34495E" d="M5149.902,329.161c14.038,0,25.416,11.387,25.416,25.424v0.518
		h-50.832l-0.009-0.518C5124.478,340.547,5135.864,329.161,5149.902,329.161"/>
	<path fill-rule="evenodd" clip-rule="evenodd" fill="#34495E" d="M5149.902,306.828c7.911,0,14.329,6.411,14.329,14.33
		c0,7.912-6.418,14.331-14.329,14.331s-14.329-6.419-14.329-14.331C5135.573,313.238,5141.991,306.828,5149.902,306.828"/>
	<path fill-rule="evenodd" clip-rule="evenodd" fill="#39D4FF" d="M5149.902,312.488c4.784,0,8.671,3.885,8.671,8.669
		c0,4.786-3.887,8.67-8.671,8.67s-8.669-3.885-8.669-8.67C5141.233,316.373,5145.118,312.488,5149.902,312.488"/>
	<path fill-rule="evenodd" clip-rule="evenodd" fill="#39D4FF" d="M5149.902,334.829c10.913,0,19.757,8.845,19.757,19.756
		l-0.01,0.518h-39.504v-0.518C5130.146,343.673,5138.989,334.829,5149.902,334.829"/>
	<path fill-rule="evenodd" clip-rule="evenodd" fill="#BCC2C6" d="M5122.651,404.702h54.502c2.168,0,3.936-1.767,3.936-3.927l0,0
		c0-2.167-1.768-3.934-3.936-3.934h-54.502c-2.166,0-3.934,1.767-3.934,3.934l0,0
		C5118.718,402.936,5120.485,404.702,5122.651,404.702"/>
	<path fill-rule="evenodd" clip-rule="evenodd" fill="#BCC2C6" d="M5114.583,384.946h70.639c2.16,0,3.927-1.768,3.927-3.935l0,0
		c0-2.159-1.767-3.926-3.927-3.926h-70.639c-2.16,0-3.927,1.768-3.927,3.926l0,0
		C5110.656,383.178,5112.423,384.946,5114.583,384.946"/>
	<rect x="5236.897" y="291.739" fill-rule="evenodd" clip-rule="evenodd" fill="#34495E" width="69.023" height="69.023"/>
	<rect x="5242.56" y="297.4" fill="#22A6EF" width="57.699" height="57.703"/>
	<path fill-rule="evenodd" clip-rule="evenodd" fill="#34495E" d="M5271.409,329.161c14.037,0,25.426,11.387,25.426,25.424
		l-0.008,0.518h-50.835l-0.008-0.518C5245.984,340.547,5257.372,329.161,5271.409,329.161"/>
	<path fill-rule="evenodd" clip-rule="evenodd" fill="#34495E" d="M5271.409,306.828c7.91,0,14.33,6.411,14.33,14.33
		c0,7.912-6.42,14.331-14.33,14.331s-14.33-6.419-14.33-14.331C5257.079,313.238,5263.499,306.828,5271.409,306.828"/>
	<path fill-rule="evenodd" clip-rule="evenodd" fill="#39D4FF" d="M5271.409,312.488c4.785,0,8.67,3.885,8.67,8.669
		c0,4.786-3.885,8.67-8.67,8.67s-8.67-3.885-8.67-8.67C5262.739,316.373,5266.624,312.488,5271.409,312.488"/>
	<path fill-rule="evenodd" clip-rule="evenodd" fill="#39D4FF" d="M5271.409,334.829c10.912,0,19.757,8.845,19.757,19.756v0.518
		h-39.514v-0.518C5251.652,343.673,5260.497,334.829,5271.409,334.829"/>
	<path fill-rule="evenodd" clip-rule="evenodd" fill="#BCC2C6" d="M5244.159,404.702h54.502c2.166,0,3.934-1.767,3.934-3.927l0,0
		c0-2.167-1.768-3.934-3.934-3.934h-54.502c-2.168,0-3.936,1.767-3.936,3.934l0,0
		C5240.224,402.936,5241.991,404.702,5244.159,404.702"/>
	<path fill-rule="evenodd" clip-rule="evenodd" fill="#BCC2C6" d="M5236.089,384.946h70.643c2.155,0,3.924-1.768,3.924-3.935l0,0
		c0-2.159-1.769-3.926-3.924-3.926h-70.643c-2.157,0-3.926,1.768-3.926,3.926l0,0
		C5232.163,383.178,5233.932,384.946,5236.089,384.946"/>
	<rect x="4993.884" y="435.604" fill-rule="evenodd" clip-rule="evenodd" fill="#34495E" width="69.023" height="69.021"/>
	<rect x="4999.546" y="441.264" fill="#22A6EF" width="57.699" height="57.703"/>
	<path fill-rule="evenodd" clip-rule="evenodd" fill="#34495E" d="M5028.396,473.032c14.037,0,25.418,11.38,25.418,25.418
		l-0.01,0.517h-50.824l-0.008-0.517C5002.972,484.412,5014.35,473.032,5028.396,473.032"/>
	<path fill-rule="evenodd" clip-rule="evenodd" fill="#34495E" d="M5028.396,450.692c7.91,0,14.329,6.419,14.329,14.329
		c0,7.912-6.419,14.33-14.329,14.33c-7.92,0-14.33-6.418-14.33-14.33C5014.065,457.111,5020.476,450.692,5028.396,450.692"/>
	<path fill-rule="evenodd" clip-rule="evenodd" fill="#39D4FF" d="M5028.396,456.36c4.784,0,8.661,3.877,8.661,8.661
		c0,4.794-3.877,8.671-8.661,8.671c-4.785,0-8.67-3.877-8.67-8.671C5019.726,460.237,5023.61,456.36,5028.396,456.36"/>
	<path fill-rule="evenodd" clip-rule="evenodd" fill="#39D4FF" d="M5028.396,478.693c10.911,0,19.756,8.845,19.756,19.757
		l-0.008,0.517h-39.505l-0.009-0.517C5008.63,487.538,5017.483,478.693,5028.396,478.693"/>
	<path fill-rule="evenodd" clip-rule="evenodd" fill="#BCC2C6" d="M5001.137,548.575h54.511c2.166,0,3.926-1.769,3.926-3.936l0,0
		c0-2.15-1.76-3.935-3.926-3.935h-54.511c-2.16,0-3.927,1.784-3.927,3.935l0,0C4997.21,546.807,4998.977,548.575,5001.137,548.575"
		/>
	<path fill-rule="evenodd" clip-rule="evenodd" fill="#BCC2C6" d="M4993.075,528.818h70.643c2.157,0,3.924-1.769,3.924-3.935
		c0-2.167-1.767-3.936-3.924-3.936h-70.643c-2.168,0-3.936,1.769-3.936,3.936C4989.14,527.05,4990.907,528.818,4993.075,528.818"/>
	<rect x="5115.392" y="435.604" fill-rule="evenodd" clip-rule="evenodd" fill="#34495E" width="69.021" height="69.021"/>
	<rect x="5121.052" y="441.264" fill="#22A6EF" width="57.703" height="57.703"/>
	<path fill-rule="evenodd" clip-rule="evenodd" fill="#34495E" d="M5149.902,473.032c14.038,0,25.416,11.38,25.416,25.418v0.517
		h-50.832l-0.009-0.517C5124.478,484.412,5135.864,473.032,5149.902,473.032"/>
	<path fill-rule="evenodd" clip-rule="evenodd" fill="#34495E" d="M5149.902,450.692c7.911,0,14.329,6.419,14.329,14.329
		c0,7.912-6.418,14.33-14.329,14.33s-14.329-6.418-14.329-14.33C5135.573,457.111,5141.991,450.692,5149.902,450.692"/>
	<path fill-rule="evenodd" clip-rule="evenodd" fill="#39D4FF" d="M5149.902,456.36c4.784,0,8.671,3.877,8.671,8.661
		c0,4.794-3.887,8.671-8.671,8.671s-8.669-3.877-8.669-8.671C5141.233,460.237,5145.118,456.36,5149.902,456.36"/>
	<path fill-rule="evenodd" clip-rule="evenodd" fill="#39D4FF" d="M5149.902,478.693c10.913,0,19.757,8.845,19.757,19.757
		l-0.01,0.517h-39.504v-0.517C5130.146,487.538,5138.989,478.693,5149.902,478.693"/>
	<path fill-rule="evenodd" clip-rule="evenodd" fill="#BCC2C6" d="M5122.651,548.575h54.502c2.168,0,3.936-1.769,3.936-3.936l0,0
		c0-2.15-1.768-3.935-3.936-3.935h-54.502c-2.166,0-3.934,1.784-3.934,3.935l0,0
		C5118.718,546.807,5120.485,548.575,5122.651,548.575"/>
	<path fill-rule="evenodd" clip-rule="evenodd" fill="#BCC2C6" d="M5114.583,528.818h70.639c2.16,0,3.927-1.769,3.927-3.935
		c0-2.167-1.767-3.936-3.927-3.936h-70.639c-2.16,0-3.927,1.769-3.927,3.936C5110.656,527.05,5112.423,528.818,5114.583,528.818"/>
	<rect x="5236.897" y="435.604" fill-rule="evenodd" clip-rule="evenodd" fill="#34495E" width="69.023" height="69.021"/>
	<rect x="5242.56" y="441.264" fill="#22A6EF" width="57.699" height="57.703"/>
	<path fill-rule="evenodd" clip-rule="evenodd" fill="#34495E" d="M5271.409,473.032c14.037,0,25.426,11.38,25.426,25.418
		l-0.008,0.517h-50.835l-0.008-0.517C5245.984,484.412,5257.372,473.032,5271.409,473.032"/>
	<path fill-rule="evenodd" clip-rule="evenodd" fill="#34495E" d="M5271.409,450.692c7.91,0,14.33,6.419,14.33,14.329
		c0,7.912-6.42,14.33-14.33,14.33s-14.33-6.418-14.33-14.33C5257.079,457.111,5263.499,450.692,5271.409,450.692"/>
	<path fill-rule="evenodd" clip-rule="evenodd" fill="#39D4FF" d="M5271.409,456.36c4.785,0,8.67,3.877,8.67,8.661
		c0,4.794-3.885,8.671-8.67,8.671s-8.67-3.877-8.67-8.671C5262.739,460.237,5266.624,456.36,5271.409,456.36"/>
	<path fill-rule="evenodd" clip-rule="evenodd" fill="#39D4FF" d="M5271.409,478.693c10.912,0,19.757,8.845,19.757,19.757v0.517
		h-39.514v-0.517C5251.652,487.538,5260.497,478.693,5271.409,478.693"/>
	<path fill-rule="evenodd" clip-rule="evenodd" fill="#BCC2C6" d="M5244.159,548.575h54.502c2.166,0,3.934-1.769,3.934-3.936l0,0
		c0-2.15-1.768-3.935-3.934-3.935h-54.502c-2.168,0-3.936,1.784-3.936,3.935l0,0
		C5240.224,546.807,5241.991,548.575,5244.159,548.575"/>
	<path fill-rule="evenodd" clip-rule="evenodd" fill="#BCC2C6" d="M5236.089,528.818h70.643c2.155,0,3.924-1.769,3.924-3.935
		c0-2.167-1.769-3.936-3.924-3.936h-70.643c-2.157,0-3.926,1.769-3.926,3.936C5232.163,527.05,5233.932,528.818,5236.089,528.818"/>
	<path opacity="0.5" fill-rule="evenodd" clip-rule="evenodd" fill="#34495E" d="M4953.454,260.796
		c-2.176,0-4.244,0.875-5.785,2.409c-1.535,1.542-2.409,3.609-2.409,5.786v302.341c0,2.167,0.874,4.234,2.409,5.769
		c1.541,1.551,3.609,2.418,5.785,2.418h392.896c2.175,0,4.244-0.867,5.777-2.418c1.542-1.534,2.41-3.602,2.41-5.769V268.991
		c0-2.185-0.868-4.244-2.41-5.786c-1.533-1.542-3.608-2.409-5.777-2.409H4953.454z"/>
	<path fill="#34495E" d="M5028.753,318.257h242.299c2.391,0,4.56,0.976,6.127,2.542c1.574,1.576,2.55,3.743,2.55,6.136V513.38
		c0,2.401-0.976,4.567-2.55,6.135c-1.567,1.568-3.736,2.552-6.127,2.552h-242.299c-2.383,0-4.56-0.983-6.127-2.552
		c-1.574-1.567-2.549-3.733-2.549-6.135V326.935c0-2.393,0.975-4.56,2.549-6.136C5024.193,319.232,5026.37,318.257,5028.753,318.257
		"/>
	<path fill-rule="evenodd" clip-rule="evenodd" fill="#FFFFFF" d="M5028.753,324.134c-0.75,0-1.44,0.292-1.974,0.825
		c-0.526,0.525-0.816,1.226-0.816,1.976V513.38c0,0.75,0.29,1.451,0.816,1.983c0.533,0.517,1.224,0.817,1.974,0.817h242.299
		c0.74,0,1.441-0.301,1.969-0.817c0.53-0.532,0.822-1.233,0.822-1.983V326.935c0-0.75-0.292-1.451-0.822-1.976
		c-0.527-0.534-1.229-0.825-1.969-0.825H5028.753z"/>
	<path fill="#BCC2C6" d="M5124.511,479.136h-44.574c-1.717,0-3.275,0.708-4.4,1.833c-1.133,1.133-1.841,2.693-1.841,4.401
		c0,1.726,0.699,3.285,1.824,4.409l0.017,0.01c1.117,1.125,2.676,1.824,4.4,1.824h44.574c1.718,0,3.276-0.708,4.401-1.834
		c1.133-1.133,1.835-2.692,1.835-4.409c0-1.718-0.702-3.276-1.826-4.409C5127.796,479.835,5126.229,479.136,5124.511,479.136
		 M5079.937,473.025h44.574c3.393,0,6.476,1.391,8.712,3.625l0.015,0.009c2.236,2.242,3.619,5.327,3.619,8.711
		c0,3.401-1.383,6.494-3.619,8.729c-2.24,2.234-5.324,3.625-8.727,3.625h-44.574c-3.384,0-6.469-1.391-8.711-3.625l-0.008-0.009
		l-0.008-0.009c-2.235-2.241-3.619-5.326-3.619-8.711c0-3.394,1.384-6.485,3.619-8.72
		C5073.453,474.416,5076.536,473.025,5079.937,473.025z"/>
	<path fill="#34495E" d="M5077.512,467.982h44.581c3.385,0,6.469,1.384,8.703,3.625l0.017,0.008
		c2.234,2.243,3.628,5.318,3.628,8.711c0,3.403-1.394,6.486-3.628,8.721c-2.233,2.242-5.327,3.625-8.72,3.625h-44.581
		c-3.384,0-6.468-1.383-8.711-3.625h-0.007v-0.009c-2.244-2.243-3.629-5.326-3.629-8.712c0-3.401,1.385-6.484,3.629-8.719
		C5071.026,469.366,5074.11,467.982,5077.512,467.982"/>
	<path fill="#27CABF" d="M5122.093,471.658c2.303,0,4.502,0.908,6.127,2.533c1.627,1.634,2.543,3.835,2.543,6.135
		c0,2.302-0.916,4.502-2.551,6.127c-1.625,1.625-3.816,2.544-6.119,2.544h-44.581c-2.3,0-4.501-0.901-6.127-2.534l-0.009-0.01
		c-1.634-1.625-2.535-3.825-2.535-6.127c0-2.3,0.919-4.501,2.544-6.126c1.626-1.625,3.827-2.542,6.127-2.542H5122.093z"/>
	<path fill="#51F4E9" d="M5122.093,471.658c2.303,0,4.502,0.908,6.127,2.533c1.627,1.634,2.543,3.835,2.543,6.135
		c0,0.592-0.059,1.176-0.184,1.743c-0.333-1.65-1.15-3.168-2.359-4.377c-1.625-1.633-3.824-2.543-6.127-2.543h-44.581
		c-2.3,0-4.501,0.918-6.127,2.543c-1.208,1.209-2.026,2.733-2.368,4.385c-0.115-0.566-0.176-1.159-0.176-1.751
		c0-2.3,0.919-4.501,2.544-6.126c1.626-1.625,3.827-2.542,6.127-2.542H5122.093z"/>
	<path fill="#BCC2C6" d="M5222.293,479.136h-44.581c-1.711,0-3.268,0.708-4.4,1.833c-1.134,1.133-1.836,2.693-1.836,4.401
		c0,1.726,0.702,3.285,1.826,4.409l0.01,0.01c1.124,1.125,2.684,1.824,4.4,1.824h44.581c1.71,0,3.27-0.708,4.402-1.834
		c1.133-1.133,1.833-2.692,1.833-4.409c0-1.718-0.7-3.276-1.825-4.409C5225.569,479.835,5224.009,479.136,5222.293,479.136
		 M5177.712,473.025h44.581c3.394,0,6.469,1.391,8.712,3.625l0.008,0.009c2.235,2.242,3.627,5.327,3.627,8.711
		c0,3.401-1.392,6.494-3.627,8.729c-2.234,2.234-5.326,3.625-8.72,3.625h-44.581c-3.385,0-6.469-1.391-8.712-3.625v-0.009
		l-0.007-0.009c-2.235-2.241-3.627-5.326-3.627-8.711c0-3.394,1.392-6.485,3.627-8.72
		C5171.226,474.416,5174.31,473.025,5177.712,473.025z"/>
	<path fill="#34495E" d="M5175.286,467.982h44.582c3.392,0,6.469,1.384,8.711,3.625l0.009,0.008
		c2.242,2.243,3.625,5.318,3.625,8.711c0,3.403-1.383,6.486-3.625,8.721c-2.234,2.242-5.319,3.625-8.72,3.625h-44.582
		c-3.377,0-6.461-1.383-8.703-3.625h-0.008l-0.009-0.009c-2.233-2.243-3.628-5.326-3.628-8.712c0-3.401,1.395-6.484,3.628-8.719
		C5168.808,469.366,5171.894,467.982,5175.286,467.982"/>
	<path fill="#F65C4C" d="M5219.868,471.658c2.3,0,4.5,0.908,6.133,2.533c1.627,1.634,2.537,3.835,2.537,6.135
		c0,2.302-0.918,4.502-2.543,6.127c-1.627,1.625-3.827,2.544-6.127,2.544h-44.582c-2.301,0-4.493-0.901-6.119-2.534l-0.018-0.01
		c-1.625-1.625-2.532-3.825-2.532-6.127c0-2.3,0.915-4.501,2.55-6.126c1.626-1.625,3.818-2.542,6.119-2.542H5219.868z"/>
	<path fill="#FF7C6C" d="M5219.868,471.658c2.3,0,4.5,0.908,6.133,2.533c1.627,1.634,2.537,3.835,2.537,6.135
		c0,0.592-0.059,1.176-0.176,1.743c-0.344-1.65-1.16-3.168-2.361-4.377c-1.633-1.633-3.833-2.543-6.133-2.543h-44.582
		c-2.301,0-4.493,0.918-6.119,2.543c-1.217,1.209-2.027,2.733-2.367,4.385c-0.125-0.566-0.183-1.159-0.183-1.751
		c0-2.3,0.915-4.501,2.55-6.126c1.626-1.625,3.818-2.542,6.119-2.542H5219.868z"/>
	<path fill-rule="evenodd" clip-rule="evenodd" fill="#FFFFFF" d="M5313.698,280.735l6.228,6.219l6.218-6.219
		c1.527-1.533,4.027-1.533,5.561,0l0,0c1.525,1.526,1.525,4.027,0,5.562l-6.218,6.218l6.218,6.227c1.525,1.526,1.525,4.026,0,5.552
		v0.008c-1.533,1.526-4.033,1.526-5.561,0l-6.218-6.227l-6.228,6.227c-1.524,1.526-4.027,1.526-5.552,0v-0.008
		c-1.534-1.525-1.534-4.026,0-5.552l6.218-6.227l-6.226-6.218c-1.526-1.535-1.526-4.035,0-5.562h0.008
		C5309.671,279.202,5312.174,279.202,5313.698,280.735"/>
	<path fill-rule="evenodd" clip-rule="evenodd" fill="#94A4A5" d="M5219.3,236.513l-6.66-8.436h-2.076v13.604h2.561v-9.178
		l7.143,9.178h1.594v-13.604h-2.561V236.513z M5199.536,230.153c3.209,0,4.484,2.559,4.441,4.851
		c-0.031,2.226-1.232,4.635-4.441,4.635c-3.202,0-4.402-2.385-4.461-4.618C5195.019,232.728,5196.334,230.153,5199.536,230.153z
		 M5199.536,227.827c-4.693,0-6.987,3.584-6.987,7.152c0,3.577,2.218,7.011,6.987,7.011c4.776,0,6.926-3.518,6.969-7.027
		C5206.546,231.411,5204.211,227.827,5199.536,227.827z M5188.357,241.682v-13.604h-2.542v13.604H5188.357z M5175.386,241.682h2.559
		v-11.279h4.309v-2.325c-3.933,0-7.25,0-11.178,0v2.325h4.311V241.682z M5166.899,238.206c-0.893,0.892-2.225,1.375-3.408,1.375
		c-3.359,0-4.66-2.351-4.678-4.602c-0.024-2.268,1.391-4.709,4.678-4.709c1.184,0,2.383,0.408,3.275,1.275l1.71-1.643
		c-1.401-1.384-3.144-2.076-4.985-2.076c-4.912,0-7.22,3.602-7.203,7.152c0.017,3.535,2.158,7.011,7.203,7.011
		c1.957,0,3.759-0.642,5.16-2.017L5166.899,238.206z M5152.712,239.156h-7.628v-3.068h7.354v-2.384h-7.354v-3.143h7.628v-2.483
		h-10.17c0,4.535,0,9.078,0,13.604h10.17V239.156z M5135.69,236.513l-6.654-8.436h-2.082v13.604h2.566v-9.178l7.135,9.178h1.594
		v-13.604h-2.559V236.513z M5119.868,236.513l-6.652-8.436h-2.076v13.604h2.559v-9.178l7.146,9.178h1.593v-13.604h-2.568V236.513z
		 M5100.11,230.153c3.201,0,4.484,2.559,4.444,4.851c-0.043,2.226-1.243,4.635-4.444,4.635s-4.409-2.385-4.46-4.618
		C5095.594,232.728,5096.909,230.153,5100.11,230.153z M5100.11,227.827c-4.702,0-6.984,3.584-6.984,7.152
		c0,3.577,2.209,7.011,6.984,7.011c4.777,0,6.928-3.518,6.961-7.027C5107.113,231.411,5104.788,227.827,5100.11,227.827z
		 M5088.558,238.206c-0.893,0.892-2.234,1.375-3.41,1.375c-3.359,0-4.659-2.351-4.685-4.602c-0.018-2.268,1.399-4.709,4.685-4.709
		c1.176,0,2.384,0.408,3.277,1.275l1.708-1.643c-1.401-1.384-3.143-2.076-4.985-2.076c-4.91,0-7.218,3.602-7.201,7.152
		c0.015,3.535,2.15,7.011,7.201,7.011c1.959,0,3.759-0.642,5.16-2.017L5088.558,238.206z"/>
	<path fill-rule="evenodd" clip-rule="evenodd" fill="#34495E" d="M5149.902,365.597c19.056,0,34.511,15.455,34.511,34.511
		c0,19.057-15.455,34.512-34.511,34.512c-19.064,0-34.511-15.455-34.511-34.512C5115.392,381.052,5130.838,365.597,5149.902,365.597
		"/>
	<path fill="#22A6EF" d="M5149.902,371.258c15.931,0,28.853,12.921,28.853,28.851c0,15.931-12.922,28.853-28.853,28.853
		s-28.851-12.922-28.851-28.853C5121.052,384.179,5133.972,371.258,5149.902,371.258"/>
	<path fill-rule="evenodd" clip-rule="evenodd" fill="#34495E" d="M5149.902,403.026c10.145,0,18.898,5.943,22.974,14.529
		c-5.268,6.929-13.596,11.405-22.974,11.405s-17.706-4.477-22.974-11.405C5131.005,408.97,5139.757,403.026,5149.902,403.026"/>
	<path fill-rule="evenodd" clip-rule="evenodd" fill="#34495E" d="M5149.902,380.686c7.911,0,14.329,6.418,14.329,14.329
		c0,7.912-6.418,14.331-14.329,14.331s-14.329-6.419-14.329-14.331C5135.573,387.104,5141.991,380.686,5149.902,380.686"/>
	<path fill-rule="evenodd" clip-rule="evenodd" fill="#39D4FF" d="M5149.902,386.354c4.784,0,8.671,3.876,8.671,8.661
		s-3.887,8.67-8.671,8.67s-8.669-3.886-8.669-8.67S5145.118,386.354,5149.902,386.354"/>
	<path fill-rule="evenodd" clip-rule="evenodd" fill="#39D4FF" d="M5149.902,408.688c8.677,0,16.056,5.602,18.706,13.387
		c-5.033,4.293-11.57,6.887-18.706,6.887c-7.144,0-13.673-2.594-18.706-6.887C5133.847,414.289,5141.216,408.688,5149.902,408.688"
		/>
</g>
<g>
	<path fill="#BCC2C6" d="M222.761,207.445h388.613c4.46,0,8.518,1.826,11.453,4.76v0.017c2.934,2.934,4.75,6.985,4.75,11.437
		v345.522c0,4.452-1.816,8.503-4.75,11.438v0.017c-2.936,2.935-6.993,4.751-11.453,4.751H222.761c-4.469,0-8.52-1.816-11.452-4.751
		v-0.017c-2.935-2.935-4.761-6.985-4.761-11.438V223.659c0-4.452,1.826-8.503,4.761-11.437v-0.017
		C214.241,209.271,218.292,207.445,222.761,207.445"/>
	<path fill="#EBEFF0" d="M621.702,223.659v345.522c0,6.519-4.535,10.338-10.328,10.338H222.761c-5.784,0-10.328-3.719-10.328-10.338
		V223.659c0-6.744,4.561-10.329,10.328-10.329h388.613C617.158,213.33,621.702,217.04,621.702,223.659"/>
	<path fill="#BCC2C6" d="M220.619,254.919h392.896c3.876,0,7.396,1.576,9.937,4.126c2.551,2.543,4.125,6.069,4.125,9.946v302.341
		c0,3.868-1.574,7.386-4.125,9.937c-2.541,2.551-6.061,4.117-9.937,4.117H220.619c-3.876,0-7.394-1.566-9.937-4.117
		c-2.551-2.551-4.135-6.068-4.135-9.937V268.991c0-3.876,1.584-7.403,4.135-9.946C213.226,256.495,216.743,254.919,220.619,254.919"
		/>
	<path fill-rule="evenodd" clip-rule="evenodd" fill="#FFFFFF" d="M220.619,260.796c-2.176,0-4.243,0.875-5.778,2.409
		c-1.541,1.542-2.408,3.609-2.408,5.786v302.341c0,2.167,0.867,4.234,2.408,5.769c1.535,1.551,3.603,2.418,5.778,2.418h392.896
		c2.175,0,4.245-0.867,5.776-2.418c1.543-1.534,2.41-3.602,2.41-5.769V268.991c0-2.185-0.867-4.244-2.41-5.786
		c-1.531-1.542-3.602-2.409-5.776-2.409H220.619z"/>
	<path fill-rule="evenodd" clip-rule="evenodd" fill="#94A4A5" d="M562.949,227.418c4.144,0,7.493,3.352,7.493,7.486
		c0,4.135-3.35,7.495-7.493,7.495c-4.135,0-7.485-3.36-7.485-7.495C555.464,230.77,558.814,227.418,562.949,227.418
		 M586.473,227.418c4.136,0,7.487,3.352,7.487,7.486c0,4.135-3.352,7.495-7.487,7.495c-4.142,0-7.493-3.36-7.493-7.495
		C578.979,230.77,582.339,227.418,586.473,227.418z M539.433,227.418c4.135,0,7.486,3.352,7.486,7.486
		c0,4.135-3.352,7.495-7.486,7.495s-7.484-3.36-7.484-7.495C531.948,230.77,535.298,227.418,539.433,227.418z"/>
	<!-- <path fill-rule="evenodd" clip-rule="evenodd" fill="#94A4A5" d="M497.919,229.778c-1.176-2.384-3.666-3.068-6.076-3.068
		c-2.852,0.017-5.986,1.326-5.986,4.502c0,3.477,2.909,4.309,6.078,4.685c2.05,0.226,3.575,0.817,3.575,2.276
		c0,1.684-1.725,2.326-3.56,2.326c-1.875,0-3.666-0.75-4.352-2.451l-2.434,1.25c1.15,2.834,3.584,3.801,6.742,3.801
		c3.445,0,6.494-1.476,6.494-4.927c0-3.685-3-4.526-6.225-4.927c-1.859-0.217-3.451-0.591-3.451-1.942
		c0-1.15,1.041-2.059,3.209-2.059c1.676,0,3.134,0.843,3.666,1.726L497.919,229.778z M471.411,242.707h2.908v-12.838h4.91v-2.65
		c-4.485,0-8.268,0-12.729,0v2.65h4.91V242.707z M456.756,236.822l-7.578-9.603h-2.368v15.488h2.928v-10.445l8.128,10.445h1.808
		v-15.488h-2.917V236.822z M438.817,239.831h-8.68v-3.493h8.369v-2.717h-8.369v-3.577h8.68v-2.825h-11.572
		c0,5.159,0,10.337,0,15.488h11.572V239.831z M416.568,242.707h2.925V227.26h-3.343l-4.835,6.635l-4.842-6.635h-3.36v15.447h2.917
		v-11.229l4.926,6.728h0.576l5.036-6.711V242.707z M392.376,242.707h2.918V227.26h-3.334l-4.835,6.635l-4.843-6.635h-3.36v15.447
		h2.917v-11.229l4.928,6.728h0.574l5.035-6.711V242.707z M363.768,229.577c3.642,0,5.1,2.918,5.06,5.526
		c-0.042,2.543-1.418,5.285-5.06,5.285c-3.643,0-5.02-2.726-5.087-5.268C358.614,232.521,360.125,229.577,363.768,229.577z
		 M363.768,226.927c-5.345,0-7.954,4.093-7.954,8.152c0,4.068,2.519,7.978,7.954,7.978c5.435,0,7.886-3.994,7.935-7.994
		C371.744,231.02,369.095,226.927,363.768,226.927z M347.82,238.747c-1.017,1.017-2.544,1.567-3.894,1.567
		c-3.826,0-5.302-2.668-5.327-5.235c-0.017-2.584,1.594-5.368,5.327-5.368c1.35,0,2.718,0.467,3.734,1.459l1.943-1.876
		c-1.585-1.567-3.577-2.367-5.678-2.367c-5.592,0-8.219,4.109-8.195,8.152c0.018,4.026,2.452,7.978,8.195,7.978
		c2.234,0,4.285-0.726,5.877-2.293L347.82,238.747z"/> -->
	<path fill-rule="evenodd" clip-rule="evenodd" fill="#BCC2C6" d="M256.28,375.801h221.74c4.527,0,8.236-3.702,8.236-8.228v-67.664
		c0-4.535-3.717-8.236-8.236-8.236H256.28c-4.525,0-8.234,3.718-8.234,8.236v67.664C248.046,372.091,251.755,375.801,256.28,375.801
		"/>
	<path fill="#EBEFF0" d="M256.28,297.333h221.74c1.418,0,2.577,1.167,2.577,2.576v67.664c0,1.4-1.167,2.568-2.577,2.568H256.28
		c-1.408,0-2.575-1.151-2.575-2.568v-67.664C253.705,298.492,254.864,297.333,256.28,297.333"/>
	<path fill="#BCC2C6" d="M573.743,350.958h-44.58c-1.709,0-3.269,0.7-4.401,1.834c-1.134,1.135-1.836,2.693-1.836,4.402v0.008
		c0,1.717,0.702,3.275,1.818,4.401l0.018,0.008c1.126,1.126,2.684,1.826,4.401,1.826h44.58c1.709,0,3.27-0.709,4.402-1.834
		c1.133-1.134,1.834-2.692,1.834-4.401v-0.008c0-1.717-0.701-3.276-1.824-4.41C577.021,351.659,575.462,350.958,573.743,350.958
		 M529.163,344.849h44.58c3.385,0,6.471,1.392,8.711,3.626l0.011,0.008c2.233,2.242,3.626,5.327,3.626,8.711v0.008
		c0,3.393-1.393,6.477-3.626,8.72c-2.235,2.233-5.327,3.618-8.722,3.618h-44.58c-3.384,0-6.469-1.385-8.711-3.618v-0.009
		l-0.01-0.008c-2.232-2.243-3.625-5.327-3.625-8.703v-0.008c0-3.394,1.393-6.486,3.625-8.719
		C522.678,346.241,525.761,344.849,529.163,344.849z"/>
	<path fill="#34495E" d="M526.737,339.805h44.581c3.394,0,6.469,1.392,8.711,3.627l0.009,0.008c2.242,2.242,3.627,5.319,3.627,8.711
		c0,3.401-1.385,6.486-3.627,8.72c-2.234,2.243-5.326,3.626-8.72,3.626h-44.581c-3.376,0-6.47-1.384-8.703-3.626h-0.008l-0.01-0.008
		c-2.233-2.242-3.625-5.327-3.625-8.711c0-3.4,1.392-6.485,3.625-8.719C520.251,341.197,523.345,339.805,526.737,339.805"/>
	<path fill="#27CABF" d="M571.318,343.482c2.302,0,4.502,0.909,6.127,2.535c1.636,1.633,2.542,3.834,2.542,6.134
		c0,2.301-0.917,4.501-2.542,6.127c-1.625,1.625-3.825,2.551-6.127,2.551h-44.581c-2.301,0-4.494-0.909-6.119-2.542l-0.015-0.009
		c-1.628-1.626-2.536-3.826-2.536-6.127c0-2.3,0.917-4.501,2.551-6.126c1.625-1.626,3.818-2.542,6.119-2.542H571.318z"/>
	<path fill="#51F4E9" d="M571.318,343.482c2.302,0,4.502,0.909,6.127,2.535c1.636,1.633,2.542,3.834,2.542,6.134
		c0,0.592-0.059,1.176-0.174,1.743c-0.342-1.643-1.15-3.168-2.368-4.376c-1.625-1.634-3.825-2.542-6.127-2.542h-44.581
		c-2.301,0-4.494,0.916-6.119,2.542c-1.217,1.217-2.034,2.734-2.376,4.385c-0.116-0.566-0.175-1.159-0.175-1.751
		c0-2.3,0.917-4.501,2.551-6.126c1.625-1.626,3.818-2.542,6.119-2.542H571.318z"/>
	<path fill-rule="evenodd" clip-rule="evenodd" fill="#34495E" d="M282.556,392.198c19.065,0,34.512,15.447,34.512,34.511
		c0,19.058-15.446,34.513-34.512,34.513c-19.057,0-34.51-15.455-34.51-34.513C248.046,407.645,263.499,392.198,282.556,392.198"/>
	<path fill="#22A6EF" d="M282.556,397.858c15.939,0,28.853,12.914,28.853,28.851c0,15.932-12.913,28.852-28.853,28.852
		c-15.929,0-28.851-12.92-28.851-28.852C253.705,410.771,266.627,397.858,282.556,397.858"/>
	<path fill-rule="evenodd" clip-rule="evenodd" fill="#34495E" d="M282.556,429.628c10.146,0,18.898,5.934,22.975,14.529
		c-5.269,6.927-13.596,11.403-22.975,11.403c-9.377,0-17.704-4.477-22.975-11.403C263.659,435.562,272.412,429.628,282.556,429.628"
		/>
	<path fill-rule="evenodd" clip-rule="evenodd" fill="#34495E" d="M282.556,407.287c7.92,0,14.33,6.418,14.33,14.329
		s-6.41,14.33-14.33,14.33c-7.911,0-14.32-6.419-14.32-14.33S274.645,407.287,282.556,407.287"/>
	<path fill-rule="evenodd" clip-rule="evenodd" fill="#39D4FF" d="M282.556,412.946c4.786,0,8.671,3.884,8.671,8.67
		c0,4.785-3.885,8.669-8.671,8.669c-4.785,0-8.668-3.884-8.668-8.669C273.888,416.83,277.771,412.946,282.556,412.946"/>
	<path fill-rule="evenodd" clip-rule="evenodd" fill="#39D4FF" d="M282.556,435.287c8.688,0,16.056,5.594,18.715,13.381
		c-5.043,4.292-11.569,6.893-18.715,6.893c-7.135,0-13.671-2.601-18.705-6.893C266.501,440.881,273.878,435.287,282.556,435.287"/>
	<path fill-rule="evenodd" clip-rule="evenodd" fill="#BCC2C6" d="M350.839,430.526h208.275c2.168,0,3.928-1.766,3.928-3.935
		c0-2.157-1.76-3.926-3.928-3.926H350.839c-2.168,0-3.936,1.769-3.936,3.926C346.903,428.761,348.671,430.526,350.839,430.526"/>
	<path fill-rule="evenodd" clip-rule="evenodd" fill="#BCC2C6" d="M350.828,450.192h163.62c2.16,0,3.928-1.768,3.928-3.927v-0.009
		c0-2.158-1.768-3.926-3.928-3.926h-163.62c-2.157,0-3.925,1.768-3.925,3.926v0.009
		C346.903,448.425,348.671,450.192,350.828,450.192"/>
	<path fill-rule="evenodd" clip-rule="evenodd" fill="#BCC2C6" d="M350.828,411.087h135.388c2.158,0,3.927-1.766,3.927-3.935l0,0
		c0-2.167-1.769-3.935-3.927-3.935H350.828c-2.157,0-3.925,1.768-3.925,3.935l0,0C346.903,409.321,348.671,411.087,350.828,411.087"
		/>
	<path fill-rule="evenodd" clip-rule="evenodd" fill="#34495E" d="M282.556,479.609c19.065,0,34.512,15.456,34.512,34.521
		c0,19.057-15.446,34.512-34.512,34.512c-19.057,0-34.51-15.455-34.51-34.512C248.046,495.065,263.499,479.609,282.556,479.609"/>
	<path fill="#22A6EF" d="M282.556,485.271c15.939,0,28.853,12.921,28.853,28.859s-12.913,28.843-28.853,28.843
		c-15.929,0-28.851-12.904-28.851-28.843S266.627,485.271,282.556,485.271"/>
	<path fill-rule="evenodd" clip-rule="evenodd" fill="#34495E" d="M282.556,517.048c10.146,0,18.898,5.935,22.975,14.538
		c-5.269,6.919-13.596,11.387-22.975,11.387c-9.377,0-17.704-4.468-22.975-11.387C263.659,522.982,272.412,517.048,282.556,517.048"
		/>
	<path fill-rule="evenodd" clip-rule="evenodd" fill="#34495E" d="M282.556,494.708c7.92,0,14.33,6.409,14.33,14.336
		c0,7.904-6.41,14.323-14.33,14.323c-7.911,0-14.32-6.419-14.32-14.323C268.235,501.117,274.645,494.708,282.556,494.708"/>
	<path fill-rule="evenodd" clip-rule="evenodd" fill="#39D4FF" d="M282.556,500.367c4.786,0,8.671,3.876,8.671,8.677
		c0,4.785-3.885,8.654-8.671,8.654c-4.785,0-8.668-3.869-8.668-8.654C273.888,504.243,277.771,500.367,282.556,500.367"/>
	<path fill-rule="evenodd" clip-rule="evenodd" fill="#39D4FF" d="M282.556,522.699c8.688,0,16.056,5.603,18.715,13.388
		c-5.043,4.301-11.569,6.886-18.715,6.886c-7.135,0-13.671-2.585-18.705-6.886C266.501,528.302,273.878,522.699,282.556,522.699"/>
	<path fill-rule="evenodd" clip-rule="evenodd" fill="#BCC2C6" d="M350.839,517.947h208.275c2.168,0,3.928-1.767,3.928-3.935l0,0
		c0-2.167-1.76-3.917-3.928-3.917H350.839c-2.168,0-3.936,1.75-3.936,3.917l0,0C346.903,516.181,348.671,517.947,350.839,517.947"/>
	<path fill-rule="evenodd" clip-rule="evenodd" fill="#BCC2C6" d="M350.828,537.62h163.62c2.16,0,3.928-1.767,3.928-3.934
		c0-2.168-1.768-3.935-3.928-3.935h-163.62c-2.157,0-3.925,1.767-3.925,3.935C346.903,535.854,348.671,537.62,350.828,537.62"/>
	<path fill-rule="evenodd" clip-rule="evenodd" fill="#BCC2C6" d="M350.828,498.5h135.388c2.158,0,3.927-1.768,3.927-3.927v-0.009
		c0-2.158-1.769-3.927-3.927-3.927H350.828c-2.157,0-3.925,1.769-3.925,3.927v0.009C346.903,496.732,348.671,498.5,350.828,498.5"/>
</g>
</svg>
