<?xml version="1.0" encoding="utf-8"?>
<!-- Generator: Adobe Illustrator 15.1.0, SVG Export Plug-In . SVG Version: 6.00 Build 0)  -->
<!DOCTYPE svg PUBLIC "-//W3C//DTD SVG 1.0//EN" "http://www.w3.org/TR/2001/REC-SVG-20010904/DTD/svg10.dtd">
<svg version="1.0" id="Layer_1" xmlns="http://www.w3.org/2000/svg" xmlns:xlink="http://www.w3.org/1999/xlink" x="0px" y="0px"
	 width="800px" height="800px" viewBox="0 0 800 800" enable-background="new 0 0 800 800" xml:space="preserve">
<g>
	<path fill="#BCC2C6" d="M218.307,207.445h388.618c4.453,0,8.514,1.826,11.447,4.76v0.017c2.935,2.934,4.759,6.985,4.759,11.437
		v345.522c0,4.452-1.824,8.503-4.759,11.438v0.017c-2.934,2.935-6.994,4.751-11.447,4.751H218.307
		c-4.462,0-8.521-1.816-11.446-4.751v-0.017c-2.935-2.935-4.769-6.985-4.769-11.438V223.659c0-4.452,1.834-8.503,4.769-11.437
		v-0.017C209.786,209.271,213.845,207.445,218.307,207.445"/>
	<path fill="#EBEFF0" d="M617.246,223.659v345.522c0,6.519-4.536,10.338-10.321,10.338H218.307c-5.786,0-10.329-3.719-10.329-10.338
		V223.659c0-6.744,4.568-10.329,10.329-10.329h388.618C612.71,213.33,617.246,217.04,617.246,223.659"/>
	<path fill="#BCC2C6" d="M216.163,254.919h392.897c3.877,0,7.394,1.576,9.936,4.126c2.55,2.543,4.135,6.069,4.135,9.946v302.341
		c0,3.868-1.585,7.386-4.135,9.937c-2.542,2.551-6.059,4.117-9.936,4.117H216.163c-3.867,0-7.387-1.566-9.937-4.117
		c-2.551-2.551-4.135-6.068-4.135-9.937V268.991c0-3.876,1.584-7.403,4.135-9.946C208.776,256.495,212.296,254.919,216.163,254.919"
		/>
	<path fill-rule="evenodd" clip-rule="evenodd" fill="#FFFFFF" d="M216.163,260.796c-2.176,0-4.234,0.875-5.775,2.409
		c-1.544,1.542-2.41,3.609-2.41,5.786v302.341c0,2.167,0.866,4.234,2.41,5.769c1.541,1.551,3.6,2.418,5.775,2.418h392.897
		c2.184,0,4.243-0.867,5.784-2.418c1.535-1.534,2.401-3.602,2.401-5.769V268.991c0-2.185-0.866-4.244-2.401-5.786
		c-1.541-1.542-3.617-2.409-5.784-2.409H216.163z"/>
	<path fill-rule="evenodd" clip-rule="evenodd" fill="#94A4A5" d="M558.492,227.418c4.135,0,7.495,3.352,7.495,7.486
		c0,4.135-3.36,7.495-7.495,7.495c-4.134,0-7.484-3.36-7.484-7.495C551.008,230.77,554.358,227.418,558.492,227.418
		 M582.018,227.418c4.135,0,7.485,3.352,7.485,7.486c0,4.135-3.351,7.495-7.485,7.495s-7.484-3.36-7.484-7.495
		C574.533,230.77,577.883,227.418,582.018,227.418z M534.978,227.418c4.133,0,7.493,3.352,7.493,7.486
		c0,4.135-3.36,7.495-7.493,7.495c-4.135,0-7.495-3.36-7.495-7.495C527.482,230.77,530.852,227.418,534.978,227.418z"/>
	<path fill-rule="evenodd" clip-rule="evenodd" fill="#BCC2C6" d="M252.425,539.738h103.702c2.282,0,4.151,1.884,4.151,4.167l0,0
		c0,2.302-1.869,4.169-4.151,4.169H252.425c-2.3,0-4.168-1.867-4.168-4.169l0,0C248.257,541.622,250.125,539.738,252.425,539.738"/>
	<path fill-rule="evenodd" clip-rule="evenodd" fill="#BCC2C6" d="M252.425,518.915h65.907c2.299,0,4.167,1.866,4.167,4.168l0,0
		c0,2.284-1.868,4.167-4.167,4.167h-65.907c-2.3,0-4.168-1.883-4.168-4.167l0,0C248.257,520.781,250.125,518.915,252.425,518.915"/>
	<path fill-rule="evenodd" clip-rule="evenodd" fill="#BCC2C6" d="M252.425,473.05h103.702c2.282,0,4.151,1.875,4.151,4.16v0.007
		c0,2.285-1.869,4.16-4.151,4.16H252.425c-2.3,0-4.168-1.875-4.168-4.16v-0.007C248.257,474.925,250.125,473.05,252.425,473.05"/>
	<path fill-rule="evenodd" clip-rule="evenodd" fill="#BCC2C6" d="M252.425,493.981h103.702c2.282,0,4.151,1.866,4.151,4.16l0,0
		c0,2.292-1.869,4.168-4.151,4.168H252.425c-2.3,0-4.168-1.876-4.168-4.168l0,0C248.257,495.848,250.125,493.981,252.425,493.981"/>
	<path fill-rule="evenodd" clip-rule="evenodd" fill="#BCC2C6" d="M252.425,452.226h65.907c2.299,0,4.167,1.867,4.167,4.16l0,0
		c0,2.292-1.868,4.169-4.167,4.169h-65.907c-2.3,0-4.168-1.877-4.168-4.169l0,0C248.257,454.093,250.125,452.226,252.425,452.226"/>
	<path fill-rule="evenodd" clip-rule="evenodd" fill="#BCC2C6" d="M252.425,429.21h103.702c2.282,0,4.151,1.875,4.151,4.167l0,0
		c0,2.294-1.869,4.161-4.151,4.161H252.425c-2.3,0-4.168-1.867-4.168-4.161l0,0C248.257,431.085,250.125,429.21,252.425,429.21"/>
	<path fill-rule="evenodd" clip-rule="evenodd" fill="#BCC2C6" d="M252.425,408.387h65.907c2.299,0,4.167,1.866,4.167,4.16l0,0
		c0,2.292-1.868,4.168-4.167,4.168h-65.907c-2.3,0-4.168-1.876-4.168-4.168l0,0C248.257,410.253,250.125,408.387,252.425,408.387"/>
	<path fill-rule="evenodd" clip-rule="evenodd" fill="#BCC2C6" d="M252.425,383.454h103.702c2.282,0,4.151,1.867,4.151,4.16l0,0
		c0,2.292-1.869,4.168-4.151,4.168H252.425c-2.3,0-4.168-1.875-4.168-4.168l0,0C248.257,385.321,250.125,383.454,252.425,383.454"/>
	<rect x="383.836" y="289.097" fill-rule="evenodd" clip-rule="evenodd" fill="#34495E" width="189.628" height="97.707"/>
	<rect x="389.721" y="294.982" fill="#22A6EF" width="177.858" height="85.945"/>
	<path opacity="0.15" d="M513.003,322.658c-1.191-1.192-2.85-1.934-4.676-1.934c-1.834,0-3.494,0.741-4.686,1.934
		c-1.2,1.192-1.934,2.851-1.934,4.685c0,1.826,0.742,3.476,1.934,4.676c1.201,1.192,2.852,1.934,4.686,1.934
		c1.826,0,3.484-0.742,4.676-1.934c1.192-1.192,1.935-2.851,1.935-4.676C514.938,325.509,514.195,323.851,513.003,322.658
		 M508.327,315.272c3.317,0,6.336,1.351,8.52,3.534l0.008,0.009c2.184,2.184,3.533,5.201,3.533,8.528
		c0,3.317-1.35,6.335-3.533,8.519l-0.008,0.009c-2.184,2.185-5.202,3.534-8.52,3.534c-3.334,0-6.353-1.35-8.537-3.534
		c-2.184-2.183-3.534-5.202-3.534-8.527c0-3.327,1.351-6.344,3.534-8.528l0.008-0.009
		C501.992,316.623,504.993,315.272,508.327,315.272z M502.541,344.849L502.541,344.849l0.083,0.117l1.535,2.034l-0.018,0.008
		l9.154,12.446c0.648,0.892,0.932,1.792,0.932,2.643h-0.016c0,0.658-0.166,1.275-0.45,1.8c-0.284,0.5-0.657,0.925-1.116,1.258
		c-0.75,0.559-1.719,0.868-2.701,0.868v-0.017l-23.009,0.008l-44.073-0.008c-1.057,0-1.983-0.3-2.691-0.826
		c-0.492-0.358-0.885-0.817-1.15-1.358h-0.008c-0.259-0.517-0.393-1.1-0.393-1.717h-0.018c0-0.909,0.318-1.884,1.002-2.8
		l9.645-13.122l-0.009-0.017l0.885-1.167l0.099-0.142h0.01l0.016-0.025l11.929-15.847c0.417-0.558,0.866-1.025,1.358-1.392
		c0.935-0.7,1.953-1.042,3.01-1.033c1.051,0,2.06,0.35,2.968,1.033c0.492,0.367,0.95,0.834,1.366,1.392l11.389,15.13l5.501-7.319
		c0.418-0.559,0.885-1.025,1.366-1.392c0.918-0.684,1.926-1.034,2.986-1.034c1.051-0.009,2.066,0.333,3,1.034
		c0.484,0.367,0.942,0.833,1.369,1.392l6.033,8.028L502.541,344.849z M507.368,360.579l-9.212-12.512l-0.382-0.534l-5.637-7.485
		l-0.008-0.017l-0.008,0.017l-6.369,8.46l-1.316,1.75l-2.168,2.893l-2.168-2.893l-1.316-1.75l-12.238-16.263l-0.016-0.025
		l-0.019,0.025l-11.552,15.363l-0.351,0.458l-9.194,12.512l41.521,0.009L507.368,360.579z"/>
	<path fill="#34495E" d="M506.625,309.887c3.319,0,6.335,1.352,8.521,3.535l0.01,0.008c2.191,2.185,3.542,5.194,3.542,8.52
		c0,3.327-1.351,6.335-3.542,8.52l-0.01,0.017c-2.186,2.176-5.201,3.526-8.521,3.526c-3.333,0-6.352-1.351-8.534-3.526
		c-2.177-2.184-3.526-5.201-3.526-8.537c0-3.326,1.35-6.335,3.526-8.52l0.016-0.008C500.29,311.238,503.301,309.887,506.625,309.887
		 M500.849,339.463L500.849,339.463l0.084,0.109l1.525,2.034l-0.017,0.017l9.152,12.446c0.651,0.892,0.935,1.792,0.935,2.634h-0.018
		c0.011,0.667-0.157,1.275-0.449,1.809c-0.276,0.5-0.658,0.925-1.117,1.259c-0.751,0.55-1.717,0.858-2.691,0.858v-0.008
		l-23.017,0.008l-44.066-0.008c-1.065,0-1.983-0.3-2.7-0.826c-0.482-0.359-0.875-0.825-1.15-1.368h-0.008
		c-0.257-0.516-0.391-1.092-0.391-1.717h-0.01c0-0.908,0.317-1.876,1-2.801l9.645-13.113l-0.015-0.017l0.883-1.167l0.107-0.15l0,0
		l0.025-0.017l11.921-15.847c0.418-0.566,0.875-1.026,1.366-1.393c0.935-0.7,1.95-1.042,3.002-1.042
		c1.06,0.008,2.067,0.358,2.976,1.042c0.492,0.367,0.951,0.834,1.359,1.393l11.388,15.129l5.509-7.327
		c0.418-0.55,0.875-1.017,1.359-1.384c0.916-0.692,1.935-1.042,2.984-1.042c1.059,0,2.068,0.341,3,1.042
		c0.483,0.358,0.951,0.826,1.367,1.384l6.037,8.036L500.849,339.463z"/>
	<path fill-rule="evenodd" clip-rule="evenodd" fill="#39D4FF" d="M506.625,314.28c-2.041,0-3.967,0.809-5.45,2.292l0.016-0.025
		c-1.44,1.451-2.234,3.36-2.234,5.402c0,2.043,0.801,3.977,2.252,5.419c1.443,1.451,3.367,2.25,5.417,2.25
		c2.034,0,3.97-0.8,5.452-2.292l-0.016,0.026c1.434-1.443,2.233-3.36,2.233-5.403c0-2.042-0.8-3.951-2.218-5.377l-0.041-0.041
		C510.595,315.089,508.659,314.28,506.625,314.28 M441.671,356.219l43.565,0.009l22.481-0.009l-10.328-14.029l-6.119-8.144
		c-0.133-0.184-0.3-0.367-0.492-0.509c-0.09-0.067-0.225-0.158-0.342-0.158c-0.132,0-0.258,0.083-0.349,0.158
		c-0.193,0.142-0.358,0.325-0.5,0.509l-9.02,11.995l-14.897-19.798c-0.142-0.192-0.309-0.375-0.492-0.517
		c-0.091-0.075-0.225-0.158-0.35-0.158c-0.125-0.009-0.25,0.083-0.352,0.158c-0.183,0.142-0.349,0.325-0.49,0.517l-11.996,15.938
		L441.671,356.219z"/>
	<path fill-rule="evenodd" clip-rule="evenodd" fill="#BCC2C6" d="M387.771,420.856H569.53c2.168,0,3.934,1.769,3.934,3.936l0,0
		c0,2.159-1.766,3.927-3.934,3.927H387.771c-2.168,0-3.936-1.768-3.936-3.927l0,0C383.836,422.625,385.604,420.856,387.771,420.856"
		/>
	<path fill-rule="evenodd" clip-rule="evenodd" fill="#BCC2C6" d="M387.771,401.192h117.804c2.168,0,3.928,1.767,3.928,3.927l0,0
		c0,2.168-1.76,3.935-3.928,3.935H387.771c-2.168,0-3.936-1.767-3.936-3.935l0,0C383.836,402.959,385.604,401.192,387.771,401.192"
		/>
	<rect x="383.836" y="445.532" fill-rule="evenodd" clip-rule="evenodd" fill="#34495E" width="189.628" height="97.707"/>
	<rect x="389.721" y="451.418" fill="#22A6EF" width="177.858" height="85.954"/>
	<path opacity="0.15" d="M513.003,479.093c-1.191-1.192-2.85-1.933-4.676-1.933c-1.834,0-3.494,0.74-4.686,1.933
		c-1.2,1.192-1.934,2.852-1.934,4.677c0,1.834,0.742,3.484,1.934,4.677c1.201,1.2,2.852,1.942,4.686,1.942
		c1.826,0,3.484-0.742,4.676-1.935c1.192-1.191,1.935-2.851,1.935-4.685C514.938,481.944,514.195,480.285,513.003,479.093
		 M508.327,471.708c3.317,0,6.336,1.351,8.52,3.534l0.008,0.008c2.184,2.185,3.533,5.202,3.533,8.52c0,3.326-1.35,6.345-3.533,8.527
		l-0.008,0.009c-2.184,2.185-5.202,3.535-8.52,3.535c-3.334,0-6.353-1.351-8.537-3.535c-2.184-2.185-3.534-5.202-3.534-8.536
		c0-3.317,1.351-6.335,3.534-8.52l0.008-0.008C501.992,473.059,504.993,471.708,508.327,471.708z M502.541,501.284L502.541,501.284
		l0.083,0.107l1.535,2.034l-0.018,0.018l9.154,12.453c0.648,0.885,0.932,1.784,0.932,2.636h-0.016c0,0.666-0.166,1.283-0.45,1.8
		c-0.284,0.499-0.657,0.934-1.116,1.267c-0.75,0.55-1.719,0.851-2.701,0.851l0,0h-23.009h-44.073c-1.057,0-1.983-0.301-2.691-0.834
		c-0.492-0.35-0.885-0.817-1.15-1.351h-0.008c-0.259-0.517-0.393-1.099-0.393-1.732h-0.018c0-0.901,0.318-1.869,1.002-2.802
		l9.645-13.112l-0.009-0.017l0.885-1.168l0.099-0.142h0.01l0.016-0.024l11.929-15.847c0.417-0.559,0.866-1.025,1.358-1.393
		c0.935-0.701,1.953-1.043,3.01-1.043c1.051,0.01,2.06,0.359,2.968,1.043c0.492,0.367,0.95,0.834,1.366,1.393l11.389,15.13
		l5.501-7.319c0.418-0.56,0.885-1.025,1.366-1.392c0.918-0.684,1.926-1.035,2.986-1.042c1.051,0,2.066,0.342,3,1.042
		c0.484,0.366,0.942,0.825,1.369,1.392l6.033,8.027L502.541,501.284z M507.368,517.015l-9.212-12.513l-0.382-0.533l-5.637-7.487
		l-0.008-0.016l-0.008,0.016l-6.369,8.462l-1.316,1.75l-2.168,2.885l-2.168-2.885l-1.316-1.75l-12.238-16.263l-0.016-0.018
		l-0.019,0.018l-11.552,15.354l-0.351,0.467l-9.194,12.513l41.521,0.017L507.368,517.015z"/>
	<path fill="#34495E" d="M506.625,466.321c3.319,0,6.335,1.353,8.521,3.535l0.01,0.009c2.191,2.185,3.542,5.193,3.542,8.52
		c0,3.327-1.351,6.336-3.542,8.521l-0.01,0.007c-2.186,2.185-5.201,3.535-8.521,3.535c-3.333,0-6.352-1.351-8.534-3.535
		c-2.177-2.175-3.526-5.193-3.526-8.527c0-3.326,1.35-6.335,3.526-8.52l0.016-0.009C500.29,467.674,503.301,466.321,506.625,466.321
		 M500.849,495.898L500.849,495.898l0.084,0.109l1.525,2.033l-0.017,0.018l9.152,12.453c0.651,0.884,0.935,1.784,0.935,2.634h-0.018
		c0.011,0.667-0.157,1.268-0.449,1.802c-0.276,0.5-0.658,0.933-1.117,1.267c-0.751,0.55-1.717,0.851-2.691,0.851l0,0h-23.017H441.17
		c-1.065,0-1.983-0.317-2.7-0.834c-0.482-0.351-0.875-0.817-1.15-1.367h-0.008c-0.257-0.5-0.391-1.084-0.391-1.718h-0.01
		c0-0.898,0.317-1.866,1-2.801l9.645-13.113l-0.015-0.016l0.883-1.167l0.107-0.15l0.025-0.024l11.921-15.847
		c0.418-0.56,0.875-1.018,1.366-1.384c0.935-0.701,1.95-1.052,3.002-1.042c1.06,0.008,2.067,0.358,2.976,1.042
		c0.492,0.366,0.951,0.834,1.359,1.384l11.388,15.137l5.509-7.326c0.418-0.551,0.875-1.017,1.359-1.385
		c0.916-0.683,1.935-1.041,2.984-1.041c1.059,0,2.068,0.342,3,1.041c0.483,0.368,0.951,0.827,1.367,1.385l6.037,8.036
		L500.849,495.898z"/>
	<path fill-rule="evenodd" clip-rule="evenodd" fill="#39D4FF" d="M506.625,470.716c-2.041,0-3.967,0.809-5.45,2.292l0.016-0.025
		c-1.44,1.442-2.234,3.359-2.234,5.402c0,2.041,0.801,3.977,2.252,5.419c1.443,1.45,3.367,2.25,5.417,2.25
		c2.034,0,3.97-0.81,5.452-2.292l-0.016,0.024c1.434-1.441,2.233-3.36,2.233-5.401c0-2.043-0.8-3.96-2.218-5.377l-0.041-0.042
		C510.595,471.524,508.659,470.716,506.625,470.716 M441.671,512.662h43.565h22.481l-10.328-14.046l-6.119-8.136
		c-0.133-0.185-0.3-0.366-0.492-0.517c-0.09-0.067-0.225-0.15-0.342-0.15c-0.132,0-0.258,0.083-0.349,0.157
		c-0.193,0.144-0.358,0.325-0.5,0.51l-9.02,11.994l-14.897-19.797c-0.142-0.191-0.309-0.375-0.492-0.517
		c-0.091-0.076-0.225-0.158-0.35-0.158s-0.25,0.082-0.352,0.158c-0.183,0.134-0.349,0.325-0.49,0.509l-11.996,15.946
		L441.671,512.662z"/>
	<!-- <path fill-rule="evenodd" clip-rule="evenodd" fill="#94A4A5" d="M457.077,230.078c-1.109-2.251-3.46-2.901-5.736-2.901
		c-2.684,0.025-5.635,1.25-5.635,4.252c0,3.268,2.751,4.059,5.719,4.417c1.934,0.201,3.376,0.767,3.376,2.143
		c0,1.576-1.625,2.185-3.35,2.185c-1.778,0-3.461-0.709-4.104-2.309l-2.292,1.183c1.085,2.668,3.377,3.584,6.353,3.584
		c3.25,0,6.118-1.4,6.118-4.643c0-3.476-2.834-4.268-5.869-4.644c-1.75-0.208-3.251-0.566-3.251-1.833
		c0-1.084,0.984-1.935,3.019-1.935c1.584,0,2.959,0.792,3.459,1.618L457.077,230.078z M427.49,230.261h3.002
		c3.159,0,4.493,2.276,4.56,4.552c0.06,2.376-1.25,4.793-4.56,4.793h-3.002V230.261z M430.492,227.66c-1.792,0-3.934,0-5.726,0
		v14.596c1.792,0,3.934,0,5.726,0c5.095,0,7.345-3.726,7.286-7.428C437.72,231.22,435.486,227.66,430.492,227.66z M416.53,239.548
		h-8.187v-3.293h7.896v-2.559h-7.896v-3.369h8.187v-2.667h-10.912c0,4.86,0,9.745,0,14.596h10.912V239.548z M397.239,239.548h-8.185
		v-3.293h7.884v-2.559h-7.884v-3.369h8.185v-2.667h-10.912c0,4.86,0,9.745,0,14.596h10.912V239.548z M370.447,242.256v-5.393h7.304
		v-2.542h-7.304v-3.977h7.72v-2.642h-10.471v14.554H370.447z"/> -->
	<path fill-rule="evenodd" clip-rule="evenodd" fill="#34495E" d="M282.769,289.097c19.057,0,34.512,15.455,34.512,34.511
		c0,19.057-15.455,34.512-34.512,34.512s-34.512-15.455-34.512-34.512C248.257,304.552,263.712,289.097,282.769,289.097"/>
	<path fill="#22A6EF" d="M282.769,294.757c15.938,0,28.852,12.921,28.852,28.851c0,15.939-12.913,28.852-28.852,28.852
		c-15.938,0-28.851-12.912-28.851-28.852C253.918,307.679,266.831,294.757,282.769,294.757"/>
	<path fill-rule="evenodd" clip-rule="evenodd" fill="#34495E" d="M282.769,326.526c10.137,0,18.89,5.944,22.974,14.53
		c-5.268,6.928-13.604,11.404-22.974,11.404c-9.378,0-17.706-4.476-22.974-11.404C263.872,332.47,272.623,326.526,282.769,326.526"
		/>
	<path fill-rule="evenodd" clip-rule="evenodd" fill="#34495E" d="M282.769,304.194c7.911,0,14.322,6.41,14.322,14.321
		c0,7.911-6.411,14.33-14.322,14.33c-7.918,0-14.322-6.419-14.322-14.33C268.446,310.604,274.851,304.194,282.769,304.194"/>
	<path fill-rule="evenodd" clip-rule="evenodd" fill="#39D4FF" d="M282.769,309.854c4.785,0,8.67,3.876,8.67,8.661
		c0,4.793-3.885,8.669-8.67,8.669c-4.784,0-8.669-3.876-8.669-8.669C274.1,313.73,277.984,309.854,282.769,309.854"/>
	<path fill-rule="evenodd" clip-rule="evenodd" fill="#39D4FF" d="M282.769,332.187c8.688,0,16.055,5.602,18.706,13.388
		c-5.034,4.293-11.569,6.885-18.706,6.885c-7.135,0-13.672-2.592-18.706-6.885C266.714,337.788,274.081,332.187,282.769,332.187"/>
</g>
<g>
	<path fill="#BCC2C6" d="M4955.596,207.445h388.612c4.461,0,8.521,1.826,11.453,4.76v0.017c2.936,2.934,4.76,6.985,4.76,11.437
		v345.522c0,4.452-1.824,8.503-4.76,11.438v0.017c-2.933,2.935-6.992,4.751-11.453,4.751h-388.612
		c-4.466,0-8.518-1.816-11.452-4.751v-0.017c-2.936-2.935-4.761-6.985-4.761-11.438V223.659c0-4.452,1.825-8.503,4.761-11.437
		v-0.017C4947.078,209.271,4951.13,207.445,4955.596,207.445"/>
	<path fill="#EBEFF0" d="M5354.538,223.659v345.522c0,6.519-4.536,10.338-10.33,10.338h-388.612
		c-5.784,0-10.327-3.719-10.327-10.338V223.659c0-6.744,4.559-10.329,10.327-10.329h388.612
		C5349.993,213.33,5354.538,217.04,5354.538,223.659"/>
	<path fill="#34495E" d="M4953.454,254.919h392.896c3.877,0,7.394,1.576,9.938,4.126c2.551,2.543,4.133,6.069,4.133,9.946v302.341
		c0,3.868-1.582,7.386-4.133,9.937c-2.544,2.551-6.061,4.117-9.938,4.117h-392.896c-3.866,0-7.395-1.566-9.938-4.117
		c-2.549-2.551-4.134-6.068-4.134-9.937V268.991c0-3.876,1.585-7.403,4.134-9.946
		C4946.06,256.495,4949.588,254.919,4953.454,254.919"/>
	<path fill-rule="evenodd" clip-rule="evenodd" fill="#FFFFFF" d="M4953.454,260.796c-2.176,0-4.244,0.875-5.785,2.409
		c-1.535,1.542-2.409,3.609-2.409,5.786v302.341c0,2.167,0.874,4.234,2.409,5.769c1.541,1.551,3.609,2.418,5.785,2.418h392.896
		c2.175,0,4.244-0.867,5.777-2.418c1.542-1.534,2.41-3.602,2.41-5.769V268.991c0-2.185-0.868-4.244-2.41-5.786
		c-1.533-1.542-3.608-2.409-5.777-2.409H4953.454z"/>
	<path fill-rule="evenodd" clip-rule="evenodd" fill="#94A4A5" d="M5295.784,227.418c4.135,0,7.493,3.352,7.493,7.486
		c0,4.135-3.35,7.495-7.493,7.495c-4.135,0-7.486-3.36-7.486-7.495C5288.298,230.77,5291.649,227.418,5295.784,227.418
		 M5319.308,227.418c4.136,0,7.486,3.352,7.486,7.486c0,4.135-3.351,7.495-7.486,7.495c-4.135,0-7.493-3.36-7.493-7.495
		C5311.814,230.77,5315.173,227.418,5319.308,227.418z M5272.27,227.418c4.134,0,7.484,3.352,7.484,7.486
		c0,4.135-3.351,7.495-7.484,7.495c-4.135,0-7.495-3.36-7.495-7.495C5264.774,230.77,5268.135,227.418,5272.27,227.418z"/>
	<rect x="4993.884" y="291.739" fill-rule="evenodd" clip-rule="evenodd" fill="#34495E" width="69.023" height="69.023"/>
	<rect x="4999.546" y="297.4" fill="#22A6EF" width="57.699" height="57.703"/>
	<path fill-rule="evenodd" clip-rule="evenodd" fill="#34495E" d="M5028.396,329.161c14.037,0,25.418,11.387,25.418,25.424
		l-0.01,0.518h-50.824l-0.008-0.518C5002.972,340.547,5014.35,329.161,5028.396,329.161"/>
	<path fill-rule="evenodd" clip-rule="evenodd" fill="#34495E" d="M5028.396,306.828c7.91,0,14.329,6.411,14.329,14.33
		c0,7.912-6.419,14.331-14.329,14.331c-7.92,0-14.33-6.419-14.33-14.331C5014.065,313.238,5020.476,306.828,5028.396,306.828"/>
	<path fill-rule="evenodd" clip-rule="evenodd" fill="#39D4FF" d="M5028.396,312.488c4.784,0,8.661,3.885,8.661,8.669
		c0,4.786-3.877,8.67-8.661,8.67c-4.785,0-8.67-3.885-8.67-8.67C5019.726,316.373,5023.61,312.488,5028.396,312.488"/>
	<path fill-rule="evenodd" clip-rule="evenodd" fill="#39D4FF" d="M5028.396,334.829c10.911,0,19.756,8.845,19.756,19.756
		l-0.008,0.518h-39.505l-0.009-0.518C5008.63,343.673,5017.483,334.829,5028.396,334.829"/>
	<path fill-rule="evenodd" clip-rule="evenodd" fill="#BCC2C6" d="M5001.137,404.702h54.511c2.166,0,3.926-1.767,3.926-3.927l0,0
		c0-2.167-1.76-3.934-3.926-3.934h-54.511c-2.16,0-3.927,1.767-3.927,3.934l0,0C4997.21,402.936,4998.977,404.702,5001.137,404.702"
		/>
	<path fill-rule="evenodd" clip-rule="evenodd" fill="#BCC2C6" d="M4993.075,384.946h70.643c2.157,0,3.924-1.768,3.924-3.935l0,0
		c0-2.159-1.767-3.926-3.924-3.926h-70.643c-2.168,0-3.936,1.768-3.936,3.926l0,0
		C4989.14,383.178,4990.907,384.946,4993.075,384.946"/>
	<rect x="5115.392" y="291.739" fill-rule="evenodd" clip-rule="evenodd" fill="#34495E" width="69.021" height="69.023"/>
	<rect x="5121.052" y="297.4" fill="#22A6EF" width="57.703" height="57.703"/>
	<path fill-rule="evenodd" clip-rule="evenodd" fill="#34495E" d="M5149.902,329.161c14.038,0,25.416,11.387,25.416,25.424v0.518
		h-50.832l-0.009-0.518C5124.478,340.547,5135.864,329.161,5149.902,329.161"/>
	<path fill-rule="evenodd" clip-rule="evenodd" fill="#34495E" d="M5149.902,306.828c7.911,0,14.329,6.411,14.329,14.33
		c0,7.912-6.418,14.331-14.329,14.331s-14.329-6.419-14.329-14.331C5135.573,313.238,5141.991,306.828,5149.902,306.828"/>
	<path fill-rule="evenodd" clip-rule="evenodd" fill="#39D4FF" d="M5149.902,312.488c4.784,0,8.671,3.885,8.671,8.669
		c0,4.786-3.887,8.67-8.671,8.67s-8.669-3.885-8.669-8.67C5141.233,316.373,5145.118,312.488,5149.902,312.488"/>
	<path fill-rule="evenodd" clip-rule="evenodd" fill="#39D4FF" d="M5149.902,334.829c10.913,0,19.757,8.845,19.757,19.756
		l-0.01,0.518h-39.504v-0.518C5130.146,343.673,5138.989,334.829,5149.902,334.829"/>
	<path fill-rule="evenodd" clip-rule="evenodd" fill="#BCC2C6" d="M5122.651,404.702h54.502c2.168,0,3.936-1.767,3.936-3.927l0,0
		c0-2.167-1.768-3.934-3.936-3.934h-54.502c-2.166,0-3.934,1.767-3.934,3.934l0,0
		C5118.718,402.936,5120.485,404.702,5122.651,404.702"/>
	<path fill-rule="evenodd" clip-rule="evenodd" fill="#BCC2C6" d="M5114.583,384.946h70.639c2.16,0,3.927-1.768,3.927-3.935l0,0
		c0-2.159-1.767-3.926-3.927-3.926h-70.639c-2.16,0-3.927,1.768-3.927,3.926l0,0
		C5110.656,383.178,5112.423,384.946,5114.583,384.946"/>
	<rect x="5236.897" y="291.739" fill-rule="evenodd" clip-rule="evenodd" fill="#34495E" width="69.023" height="69.023"/>
	<rect x="5242.56" y="297.4" fill="#22A6EF" width="57.699" height="57.703"/>
	<path fill-rule="evenodd" clip-rule="evenodd" fill="#34495E" d="M5271.409,329.161c14.037,0,25.426,11.387,25.426,25.424
		l-0.008,0.518h-50.835l-0.008-0.518C5245.984,340.547,5257.372,329.161,5271.409,329.161"/>
	<path fill-rule="evenodd" clip-rule="evenodd" fill="#34495E" d="M5271.409,306.828c7.91,0,14.33,6.411,14.33,14.33
		c0,7.912-6.42,14.331-14.33,14.331s-14.33-6.419-14.33-14.331C5257.079,313.238,5263.499,306.828,5271.409,306.828"/>
	<path fill-rule="evenodd" clip-rule="evenodd" fill="#39D4FF" d="M5271.409,312.488c4.785,0,8.67,3.885,8.67,8.669
		c0,4.786-3.885,8.67-8.67,8.67s-8.67-3.885-8.67-8.67C5262.739,316.373,5266.624,312.488,5271.409,312.488"/>
	<path fill-rule="evenodd" clip-rule="evenodd" fill="#39D4FF" d="M5271.409,334.829c10.912,0,19.757,8.845,19.757,19.756v0.518
		h-39.514v-0.518C5251.652,343.673,5260.497,334.829,5271.409,334.829"/>
	<path fill-rule="evenodd" clip-rule="evenodd" fill="#BCC2C6" d="M5244.159,404.702h54.502c2.166,0,3.934-1.767,3.934-3.927l0,0
		c0-2.167-1.768-3.934-3.934-3.934h-54.502c-2.168,0-3.936,1.767-3.936,3.934l0,0
		C5240.224,402.936,5241.991,404.702,5244.159,404.702"/>
	<path fill-rule="evenodd" clip-rule="evenodd" fill="#BCC2C6" d="M5236.089,384.946h70.643c2.155,0,3.924-1.768,3.924-3.935l0,0
		c0-2.159-1.769-3.926-3.924-3.926h-70.643c-2.157,0-3.926,1.768-3.926,3.926l0,0
		C5232.163,383.178,5233.932,384.946,5236.089,384.946"/>
	<rect x="4993.884" y="435.604" fill-rule="evenodd" clip-rule="evenodd" fill="#34495E" width="69.023" height="69.021"/>
	<rect x="4999.546" y="441.264" fill="#22A6EF" width="57.699" height="57.703"/>
	<path fill-rule="evenodd" clip-rule="evenodd" fill="#34495E" d="M5028.396,473.032c14.037,0,25.418,11.38,25.418,25.418
		l-0.01,0.517h-50.824l-0.008-0.517C5002.972,484.412,5014.35,473.032,5028.396,473.032"/>
	<path fill-rule="evenodd" clip-rule="evenodd" fill="#34495E" d="M5028.396,450.692c7.91,0,14.329,6.419,14.329,14.329
		c0,7.912-6.419,14.33-14.329,14.33c-7.92,0-14.33-6.418-14.33-14.33C5014.065,457.111,5020.476,450.692,5028.396,450.692"/>
	<path fill-rule="evenodd" clip-rule="evenodd" fill="#39D4FF" d="M5028.396,456.36c4.784,0,8.661,3.877,8.661,8.661
		c0,4.794-3.877,8.671-8.661,8.671c-4.785,0-8.67-3.877-8.67-8.671C5019.726,460.237,5023.61,456.36,5028.396,456.36"/>
	<path fill-rule="evenodd" clip-rule="evenodd" fill="#39D4FF" d="M5028.396,478.693c10.911,0,19.756,8.845,19.756,19.757
		l-0.008,0.517h-39.505l-0.009-0.517C5008.63,487.538,5017.483,478.693,5028.396,478.693"/>
	<path fill-rule="evenodd" clip-rule="evenodd" fill="#BCC2C6" d="M5001.137,548.575h54.511c2.166,0,3.926-1.769,3.926-3.936l0,0
		c0-2.15-1.76-3.935-3.926-3.935h-54.511c-2.16,0-3.927,1.784-3.927,3.935l0,0C4997.21,546.807,4998.977,548.575,5001.137,548.575"
		/>
	<path fill-rule="evenodd" clip-rule="evenodd" fill="#BCC2C6" d="M4993.075,528.818h70.643c2.157,0,3.924-1.769,3.924-3.935
		c0-2.167-1.767-3.936-3.924-3.936h-70.643c-2.168,0-3.936,1.769-3.936,3.936C4989.14,527.05,4990.907,528.818,4993.075,528.818"/>
	<rect x="5115.392" y="435.604" fill-rule="evenodd" clip-rule="evenodd" fill="#34495E" width="69.021" height="69.021"/>
	<rect x="5121.052" y="441.264" fill="#22A6EF" width="57.703" height="57.703"/>
	<path fill-rule="evenodd" clip-rule="evenodd" fill="#34495E" d="M5149.902,473.032c14.038,0,25.416,11.38,25.416,25.418v0.517
		h-50.832l-0.009-0.517C5124.478,484.412,5135.864,473.032,5149.902,473.032"/>
	<path fill-rule="evenodd" clip-rule="evenodd" fill="#34495E" d="M5149.902,450.692c7.911,0,14.329,6.419,14.329,14.329
		c0,7.912-6.418,14.33-14.329,14.33s-14.329-6.418-14.329-14.33C5135.573,457.111,5141.991,450.692,5149.902,450.692"/>
	<path fill-rule="evenodd" clip-rule="evenodd" fill="#39D4FF" d="M5149.902,456.36c4.784,0,8.671,3.877,8.671,8.661
		c0,4.794-3.887,8.671-8.671,8.671s-8.669-3.877-8.669-8.671C5141.233,460.237,5145.118,456.36,5149.902,456.36"/>
	<path fill-rule="evenodd" clip-rule="evenodd" fill="#39D4FF" d="M5149.902,478.693c10.913,0,19.757,8.845,19.757,19.757
		l-0.01,0.517h-39.504v-0.517C5130.146,487.538,5138.989,478.693,5149.902,478.693"/>
	<path fill-rule="evenodd" clip-rule="evenodd" fill="#BCC2C6" d="M5122.651,548.575h54.502c2.168,0,3.936-1.769,3.936-3.936l0,0
		c0-2.15-1.768-3.935-3.936-3.935h-54.502c-2.166,0-3.934,1.784-3.934,3.935l0,0
		C5118.718,546.807,5120.485,548.575,5122.651,548.575"/>
	<path fill-rule="evenodd" clip-rule="evenodd" fill="#BCC2C6" d="M5114.583,528.818h70.639c2.16,0,3.927-1.769,3.927-3.935
		c0-2.167-1.767-3.936-3.927-3.936h-70.639c-2.16,0-3.927,1.769-3.927,3.936C5110.656,527.05,5112.423,528.818,5114.583,528.818"/>
	<rect x="5236.897" y="435.604" fill-rule="evenodd" clip-rule="evenodd" fill="#34495E" width="69.023" height="69.021"/>
	<rect x="5242.56" y="441.264" fill="#22A6EF" width="57.699" height="57.703"/>
	<path fill-rule="evenodd" clip-rule="evenodd" fill="#34495E" d="M5271.409,473.032c14.037,0,25.426,11.38,25.426,25.418
		l-0.008,0.517h-50.835l-0.008-0.517C5245.984,484.412,5257.372,473.032,5271.409,473.032"/>
	<path fill-rule="evenodd" clip-rule="evenodd" fill="#34495E" d="M5271.409,450.692c7.91,0,14.33,6.419,14.33,14.329
		c0,7.912-6.42,14.33-14.33,14.33s-14.33-6.418-14.33-14.33C5257.079,457.111,5263.499,450.692,5271.409,450.692"/>
	<path fill-rule="evenodd" clip-rule="evenodd" fill="#39D4FF" d="M5271.409,456.36c4.785,0,8.67,3.877,8.67,8.661
		c0,4.794-3.885,8.671-8.67,8.671s-8.67-3.877-8.67-8.671C5262.739,460.237,5266.624,456.36,5271.409,456.36"/>
	<path fill-rule="evenodd" clip-rule="evenodd" fill="#39D4FF" d="M5271.409,478.693c10.912,0,19.757,8.845,19.757,19.757v0.517
		h-39.514v-0.517C5251.652,487.538,5260.497,478.693,5271.409,478.693"/>
	<path fill-rule="evenodd" clip-rule="evenodd" fill="#BCC2C6" d="M5244.159,548.575h54.502c2.166,0,3.934-1.769,3.934-3.936l0,0
		c0-2.15-1.768-3.935-3.934-3.935h-54.502c-2.168,0-3.936,1.784-3.936,3.935l0,0
		C5240.224,546.807,5241.991,548.575,5244.159,548.575"/>
	<path fill-rule="evenodd" clip-rule="evenodd" fill="#BCC2C6" d="M5236.089,528.818h70.643c2.155,0,3.924-1.769,3.924-3.935
		c0-2.167-1.769-3.936-3.924-3.936h-70.643c-2.157,0-3.926,1.769-3.926,3.936C5232.163,527.05,5233.932,528.818,5236.089,528.818"/>
	<path opacity="0.5" fill-rule="evenodd" clip-rule="evenodd" fill="#34495E" d="M4953.454,260.796
		c-2.176,0-4.244,0.875-5.785,2.409c-1.535,1.542-2.409,3.609-2.409,5.786v302.341c0,2.167,0.874,4.234,2.409,5.769
		c1.541,1.551,3.609,2.418,5.785,2.418h392.896c2.175,0,4.244-0.867,5.777-2.418c1.542-1.534,2.41-3.602,2.41-5.769V268.991
		c0-2.185-0.868-4.244-2.41-5.786c-1.533-1.542-3.608-2.409-5.777-2.409H4953.454z"/>
	<path fill="#34495E" d="M5028.753,318.257h242.299c2.391,0,4.56,0.976,6.127,2.542c1.574,1.576,2.55,3.743,2.55,6.136V513.38
		c0,2.401-0.976,4.567-2.55,6.135c-1.567,1.568-3.736,2.552-6.127,2.552h-242.299c-2.383,0-4.56-0.983-6.127-2.552
		c-1.574-1.567-2.549-3.733-2.549-6.135V326.935c0-2.393,0.975-4.56,2.549-6.136C5024.193,319.232,5026.37,318.257,5028.753,318.257
		"/>
	<path fill-rule="evenodd" clip-rule="evenodd" fill="#FFFFFF" d="M5028.753,324.134c-0.75,0-1.44,0.292-1.974,0.825
		c-0.526,0.525-0.816,1.226-0.816,1.976V513.38c0,0.75,0.29,1.451,0.816,1.983c0.533,0.517,1.224,0.817,1.974,0.817h242.299
		c0.74,0,1.441-0.301,1.969-0.817c0.53-0.532,0.822-1.233,0.822-1.983V326.935c0-0.75-0.292-1.451-0.822-1.976
		c-0.527-0.534-1.229-0.825-1.969-0.825H5028.753z"/>
	<path fill="#BCC2C6" d="M5124.511,479.136h-44.574c-1.717,0-3.275,0.708-4.4,1.833c-1.133,1.133-1.841,2.693-1.841,4.401
		c0,1.726,0.699,3.285,1.824,4.409l0.017,0.01c1.117,1.125,2.676,1.824,4.4,1.824h44.574c1.718,0,3.276-0.708,4.401-1.834
		c1.133-1.133,1.835-2.692,1.835-4.409c0-1.718-0.702-3.276-1.826-4.409C5127.796,479.835,5126.229,479.136,5124.511,479.136
		 M5079.937,473.025h44.574c3.393,0,6.476,1.391,8.712,3.625l0.015,0.009c2.236,2.242,3.619,5.327,3.619,8.711
		c0,3.401-1.383,6.494-3.619,8.729c-2.24,2.234-5.324,3.625-8.727,3.625h-44.574c-3.384,0-6.469-1.391-8.711-3.625l-0.008-0.009
		l-0.008-0.009c-2.235-2.241-3.619-5.326-3.619-8.711c0-3.394,1.384-6.485,3.619-8.72
		C5073.453,474.416,5076.536,473.025,5079.937,473.025z"/>
	<path fill="#34495E" d="M5077.512,467.982h44.581c3.385,0,6.469,1.384,8.703,3.625l0.017,0.008
		c2.234,2.243,3.628,5.318,3.628,8.711c0,3.403-1.394,6.486-3.628,8.721c-2.233,2.242-5.327,3.625-8.72,3.625h-44.581
		c-3.384,0-6.468-1.383-8.711-3.625h-0.007v-0.009c-2.244-2.243-3.629-5.326-3.629-8.712c0-3.401,1.385-6.484,3.629-8.719
		C5071.026,469.366,5074.11,467.982,5077.512,467.982"/>
	<path fill="#27CABF" d="M5122.093,471.658c2.303,0,4.502,0.908,6.127,2.533c1.627,1.634,2.543,3.835,2.543,6.135
		c0,2.302-0.916,4.502-2.551,6.127c-1.625,1.625-3.816,2.544-6.119,2.544h-44.581c-2.3,0-4.501-0.901-6.127-2.534l-0.009-0.01
		c-1.634-1.625-2.535-3.825-2.535-6.127c0-2.3,0.919-4.501,2.544-6.126c1.626-1.625,3.827-2.542,6.127-2.542H5122.093z"/>
	<path fill="#51F4E9" d="M5122.093,471.658c2.303,0,4.502,0.908,6.127,2.533c1.627,1.634,2.543,3.835,2.543,6.135
		c0,0.592-0.059,1.176-0.184,1.743c-0.333-1.65-1.15-3.168-2.359-4.377c-1.625-1.633-3.824-2.543-6.127-2.543h-44.581
		c-2.3,0-4.501,0.918-6.127,2.543c-1.208,1.209-2.026,2.733-2.368,4.385c-0.115-0.566-0.176-1.159-0.176-1.751
		c0-2.3,0.919-4.501,2.544-6.126c1.626-1.625,3.827-2.542,6.127-2.542H5122.093z"/>
	<path fill="#BCC2C6" d="M5222.293,479.136h-44.581c-1.711,0-3.268,0.708-4.4,1.833c-1.134,1.133-1.836,2.693-1.836,4.401
		c0,1.726,0.702,3.285,1.826,4.409l0.01,0.01c1.124,1.125,2.684,1.824,4.4,1.824h44.581c1.71,0,3.27-0.708,4.402-1.834
		c1.133-1.133,1.833-2.692,1.833-4.409c0-1.718-0.7-3.276-1.825-4.409C5225.569,479.835,5224.009,479.136,5222.293,479.136
		 M5177.712,473.025h44.581c3.394,0,6.469,1.391,8.712,3.625l0.008,0.009c2.235,2.242,3.627,5.327,3.627,8.711
		c0,3.401-1.392,6.494-3.627,8.729c-2.234,2.234-5.326,3.625-8.72,3.625h-44.581c-3.385,0-6.469-1.391-8.712-3.625v-0.009
		l-0.007-0.009c-2.235-2.241-3.627-5.326-3.627-8.711c0-3.394,1.392-6.485,3.627-8.72
		C5171.226,474.416,5174.31,473.025,5177.712,473.025z"/>
	<path fill="#34495E" d="M5175.286,467.982h44.582c3.392,0,6.469,1.384,8.711,3.625l0.009,0.008
		c2.242,2.243,3.625,5.318,3.625,8.711c0,3.403-1.383,6.486-3.625,8.721c-2.234,2.242-5.319,3.625-8.72,3.625h-44.582
		c-3.377,0-6.461-1.383-8.703-3.625h-0.008l-0.009-0.009c-2.233-2.243-3.628-5.326-3.628-8.712c0-3.401,1.395-6.484,3.628-8.719
		C5168.808,469.366,5171.894,467.982,5175.286,467.982"/>
	<path fill="#F65C4C" d="M5219.868,471.658c2.3,0,4.5,0.908,6.133,2.533c1.627,1.634,2.537,3.835,2.537,6.135
		c0,2.302-0.918,4.502-2.543,6.127c-1.627,1.625-3.827,2.544-6.127,2.544h-44.582c-2.301,0-4.493-0.901-6.119-2.534l-0.018-0.01
		c-1.625-1.625-2.532-3.825-2.532-6.127c0-2.3,0.915-4.501,2.55-6.126c1.626-1.625,3.818-2.542,6.119-2.542H5219.868z"/>
	<path fill="#FF7C6C" d="M5219.868,471.658c2.3,0,4.5,0.908,6.133,2.533c1.627,1.634,2.537,3.835,2.537,6.135
		c0,0.592-0.059,1.176-0.176,1.743c-0.344-1.65-1.16-3.168-2.361-4.377c-1.633-1.633-3.833-2.543-6.133-2.543h-44.582
		c-2.301,0-4.493,0.918-6.119,2.543c-1.217,1.209-2.027,2.733-2.367,4.385c-0.125-0.566-0.183-1.159-0.183-1.751
		c0-2.3,0.915-4.501,2.55-6.126c1.626-1.625,3.818-2.542,6.119-2.542H5219.868z"/>
	<path fill-rule="evenodd" clip-rule="evenodd" fill="#FFFFFF" d="M5313.698,280.735l6.228,6.219l6.218-6.219
		c1.527-1.533,4.027-1.533,5.561,0l0,0c1.525,1.526,1.525,4.027,0,5.562l-6.218,6.218l6.218,6.227c1.525,1.526,1.525,4.026,0,5.552
		v0.008c-1.533,1.526-4.033,1.526-5.561,0l-6.218-6.227l-6.228,6.227c-1.524,1.526-4.027,1.526-5.552,0v-0.008
		c-1.534-1.525-1.534-4.026,0-5.552l6.218-6.227l-6.226-6.218c-1.526-1.535-1.526-4.035,0-5.562h0.008
		C5309.671,279.202,5312.174,279.202,5313.698,280.735"/>
	<path fill-rule="evenodd" clip-rule="evenodd" fill="#94A4A5" d="M5219.3,236.513l-6.66-8.436h-2.076v13.604h2.561v-9.178
		l7.143,9.178h1.594v-13.604h-2.561V236.513z M5199.536,230.153c3.209,0,4.484,2.559,4.441,4.851
		c-0.031,2.226-1.232,4.635-4.441,4.635c-3.202,0-4.402-2.385-4.461-4.618C5195.019,232.728,5196.334,230.153,5199.536,230.153z
		 M5199.536,227.827c-4.693,0-6.987,3.584-6.987,7.152c0,3.577,2.218,7.011,6.987,7.011c4.776,0,6.926-3.518,6.969-7.027
		C5206.546,231.411,5204.211,227.827,5199.536,227.827z M5188.357,241.682v-13.604h-2.542v13.604H5188.357z M5175.386,241.682h2.559
		v-11.279h4.309v-2.325c-3.933,0-7.25,0-11.178,0v2.325h4.311V241.682z M5166.899,238.206c-0.893,0.892-2.225,1.375-3.408,1.375
		c-3.359,0-4.66-2.351-4.678-4.602c-0.024-2.268,1.391-4.709,4.678-4.709c1.184,0,2.383,0.408,3.275,1.275l1.71-1.643
		c-1.401-1.384-3.144-2.076-4.985-2.076c-4.912,0-7.22,3.602-7.203,7.152c0.017,3.535,2.158,7.011,7.203,7.011
		c1.957,0,3.759-0.642,5.16-2.017L5166.899,238.206z M5152.712,239.156h-7.628v-3.068h7.354v-2.384h-7.354v-3.143h7.628v-2.483
		h-10.17c0,4.535,0,9.078,0,13.604h10.17V239.156z M5135.69,236.513l-6.654-8.436h-2.082v13.604h2.566v-9.178l7.135,9.178h1.594
		v-13.604h-2.559V236.513z M5119.868,236.513l-6.652-8.436h-2.076v13.604h2.559v-9.178l7.146,9.178h1.593v-13.604h-2.568V236.513z
		 M5100.11,230.153c3.201,0,4.484,2.559,4.444,4.851c-0.043,2.226-1.243,4.635-4.444,4.635s-4.409-2.385-4.46-4.618
		C5095.594,232.728,5096.909,230.153,5100.11,230.153z M5100.11,227.827c-4.702,0-6.984,3.584-6.984,7.152
		c0,3.577,2.209,7.011,6.984,7.011c4.777,0,6.928-3.518,6.961-7.027C5107.113,231.411,5104.788,227.827,5100.11,227.827z
		 M5088.558,238.206c-0.893,0.892-2.234,1.375-3.41,1.375c-3.359,0-4.659-2.351-4.685-4.602c-0.018-2.268,1.399-4.709,4.685-4.709
		c1.176,0,2.384,0.408,3.277,1.275l1.708-1.643c-1.401-1.384-3.143-2.076-4.985-2.076c-4.91,0-7.218,3.602-7.201,7.152
		c0.015,3.535,2.15,7.011,7.201,7.011c1.959,0,3.759-0.642,5.16-2.017L5088.558,238.206z"/>
	<path fill-rule="evenodd" clip-rule="evenodd" fill="#34495E" d="M5149.902,365.597c19.056,0,34.511,15.455,34.511,34.511
		c0,19.057-15.455,34.512-34.511,34.512c-19.064,0-34.511-15.455-34.511-34.512C5115.392,381.052,5130.838,365.597,5149.902,365.597
		"/>
	<path fill="#22A6EF" d="M5149.902,371.258c15.931,0,28.853,12.921,28.853,28.851c0,15.931-12.922,28.853-28.853,28.853
		s-28.851-12.922-28.851-28.853C5121.052,384.179,5133.972,371.258,5149.902,371.258"/>
	<path fill-rule="evenodd" clip-rule="evenodd" fill="#34495E" d="M5149.902,403.026c10.145,0,18.898,5.943,22.974,14.529
		c-5.268,6.929-13.596,11.405-22.974,11.405s-17.706-4.477-22.974-11.405C5131.005,408.97,5139.757,403.026,5149.902,403.026"/>
	<path fill-rule="evenodd" clip-rule="evenodd" fill="#34495E" d="M5149.902,380.686c7.911,0,14.329,6.418,14.329,14.329
		c0,7.912-6.418,14.331-14.329,14.331s-14.329-6.419-14.329-14.331C5135.573,387.104,5141.991,380.686,5149.902,380.686"/>
	<path fill-rule="evenodd" clip-rule="evenodd" fill="#39D4FF" d="M5149.902,386.354c4.784,0,8.671,3.876,8.671,8.661
		s-3.887,8.67-8.671,8.67s-8.669-3.886-8.669-8.67S5145.118,386.354,5149.902,386.354"/>
	<path fill-rule="evenodd" clip-rule="evenodd" fill="#39D4FF" d="M5149.902,408.688c8.677,0,16.056,5.602,18.706,13.387
		c-5.033,4.293-11.57,6.887-18.706,6.887c-7.144,0-13.673-2.594-18.706-6.887C5133.847,414.289,5141.216,408.688,5149.902,408.688"
		/>
</g>
</svg>
