<?xml version="1.0" encoding="utf-8"?>
<!-- Generator: Adobe Illustrator 15.1.0, SVG Export Plug-In . SVG Version: 6.00 Build 0)  -->
<!DOCTYPE svg PUBLIC "-//W3C//DTD SVG 1.0//EN" "http://www.w3.org/TR/2001/REC-SVG-20010904/DTD/svg10.dtd">
<svg version="1.0" id="Layer_1" xmlns="http://www.w3.org/2000/svg" xmlns:xlink="http://www.w3.org/1999/xlink" x="0px" y="0px"
	 width="800px" height="800px" viewBox="0 0 800 800" enable-background="new 0 0 800 800" xml:space="preserve">
<g>
	<path fill="#BCC2C6" d="M4955.596,207.445h388.612c4.461,0,8.521,1.826,11.453,4.76v0.017c2.936,2.934,4.76,6.985,4.76,11.437
		v345.522c0,4.452-1.824,8.503-4.76,11.438v0.017c-2.933,2.935-6.992,4.751-11.453,4.751h-388.612
		c-4.466,0-8.518-1.816-11.452-4.751v-0.017c-2.936-2.935-4.761-6.985-4.761-11.438V223.659c0-4.452,1.825-8.503,4.761-11.437
		v-0.017C4947.078,209.271,4951.13,207.445,4955.596,207.445"/>
	<path fill="#EBEFF0" d="M5354.538,223.659v345.522c0,6.519-4.536,10.338-10.33,10.338h-388.612
		c-5.784,0-10.327-3.719-10.327-10.338V223.659c0-6.744,4.559-10.329,10.327-10.329h388.612
		C5349.993,213.33,5354.538,217.04,5354.538,223.659"/>
	<path fill="#34495E" d="M4953.454,254.919h392.896c3.877,0,7.394,1.576,9.938,4.126c2.551,2.543,4.133,6.069,4.133,9.946v302.341
		c0,3.868-1.582,7.386-4.133,9.937c-2.544,2.551-6.061,4.117-9.938,4.117h-392.896c-3.866,0-7.395-1.566-9.938-4.117
		c-2.549-2.551-4.134-6.068-4.134-9.937V268.991c0-3.876,1.585-7.403,4.134-9.946
		C4946.06,256.495,4949.588,254.919,4953.454,254.919"/>
	<path fill-rule="evenodd" clip-rule="evenodd" fill="#FFFFFF" d="M4953.454,260.796c-2.176,0-4.244,0.875-5.785,2.409
		c-1.535,1.542-2.409,3.609-2.409,5.786v302.341c0,2.167,0.874,4.234,2.409,5.769c1.541,1.551,3.609,2.418,5.785,2.418h392.896
		c2.175,0,4.244-0.867,5.777-2.418c1.542-1.534,2.41-3.602,2.41-5.769V268.991c0-2.185-0.868-4.244-2.41-5.786
		c-1.533-1.542-3.608-2.409-5.777-2.409H4953.454z"/>
	<path fill-rule="evenodd" clip-rule="evenodd" fill="#94A4A5" d="M5295.784,227.418c4.135,0,7.493,3.352,7.493,7.486
		c0,4.135-3.35,7.495-7.493,7.495c-4.135,0-7.486-3.36-7.486-7.495C5288.298,230.77,5291.649,227.418,5295.784,227.418
		 M5319.308,227.418c4.136,0,7.486,3.352,7.486,7.486c0,4.135-3.351,7.495-7.486,7.495c-4.135,0-7.493-3.36-7.493-7.495
		C5311.814,230.77,5315.173,227.418,5319.308,227.418z M5272.27,227.418c4.134,0,7.484,3.352,7.484,7.486
		c0,4.135-3.351,7.495-7.484,7.495c-4.135,0-7.495-3.36-7.495-7.495C5264.774,230.77,5268.135,227.418,5272.27,227.418z"/>
	<rect x="4993.884" y="291.739" fill-rule="evenodd" clip-rule="evenodd" fill="#34495E" width="69.023" height="69.023"/>
	<rect x="4999.546" y="297.4" fill="#22A6EF" width="57.699" height="57.703"/>
	<path fill-rule="evenodd" clip-rule="evenodd" fill="#34495E" d="M5028.396,329.161c14.037,0,25.418,11.387,25.418,25.424
		l-0.01,0.518h-50.824l-0.008-0.518C5002.972,340.547,5014.35,329.161,5028.396,329.161"/>
	<path fill-rule="evenodd" clip-rule="evenodd" fill="#34495E" d="M5028.396,306.828c7.91,0,14.329,6.411,14.329,14.33
		c0,7.912-6.419,14.331-14.329,14.331c-7.92,0-14.33-6.419-14.33-14.331C5014.065,313.238,5020.476,306.828,5028.396,306.828"/>
	<path fill-rule="evenodd" clip-rule="evenodd" fill="#39D4FF" d="M5028.396,312.488c4.784,0,8.661,3.885,8.661,8.669
		c0,4.786-3.877,8.67-8.661,8.67c-4.785,0-8.67-3.885-8.67-8.67C5019.726,316.373,5023.61,312.488,5028.396,312.488"/>
	<path fill-rule="evenodd" clip-rule="evenodd" fill="#39D4FF" d="M5028.396,334.829c10.911,0,19.756,8.845,19.756,19.756
		l-0.008,0.518h-39.505l-0.009-0.518C5008.63,343.673,5017.483,334.829,5028.396,334.829"/>
	<path fill-rule="evenodd" clip-rule="evenodd" fill="#BCC2C6" d="M5001.137,404.702h54.511c2.166,0,3.926-1.767,3.926-3.927l0,0
		c0-2.167-1.76-3.934-3.926-3.934h-54.511c-2.16,0-3.927,1.767-3.927,3.934l0,0C4997.21,402.936,4998.977,404.702,5001.137,404.702"
		/>
	<path fill-rule="evenodd" clip-rule="evenodd" fill="#BCC2C6" d="M4993.075,384.946h70.643c2.157,0,3.924-1.768,3.924-3.935l0,0
		c0-2.159-1.767-3.926-3.924-3.926h-70.643c-2.168,0-3.936,1.768-3.936,3.926l0,0
		C4989.14,383.178,4990.907,384.946,4993.075,384.946"/>
	<rect x="5115.392" y="291.739" fill-rule="evenodd" clip-rule="evenodd" fill="#34495E" width="69.021" height="69.023"/>
	<rect x="5121.052" y="297.4" fill="#22A6EF" width="57.703" height="57.703"/>
	<path fill-rule="evenodd" clip-rule="evenodd" fill="#34495E" d="M5149.902,329.161c14.038,0,25.416,11.387,25.416,25.424v0.518
		h-50.832l-0.009-0.518C5124.478,340.547,5135.864,329.161,5149.902,329.161"/>
	<path fill-rule="evenodd" clip-rule="evenodd" fill="#34495E" d="M5149.902,306.828c7.911,0,14.329,6.411,14.329,14.33
		c0,7.912-6.418,14.331-14.329,14.331s-14.329-6.419-14.329-14.331C5135.573,313.238,5141.991,306.828,5149.902,306.828"/>
	<path fill-rule="evenodd" clip-rule="evenodd" fill="#39D4FF" d="M5149.902,312.488c4.784,0,8.671,3.885,8.671,8.669
		c0,4.786-3.887,8.67-8.671,8.67s-8.669-3.885-8.669-8.67C5141.233,316.373,5145.118,312.488,5149.902,312.488"/>
	<path fill-rule="evenodd" clip-rule="evenodd" fill="#39D4FF" d="M5149.902,334.829c10.913,0,19.757,8.845,19.757,19.756
		l-0.01,0.518h-39.504v-0.518C5130.146,343.673,5138.989,334.829,5149.902,334.829"/>
	<path fill-rule="evenodd" clip-rule="evenodd" fill="#BCC2C6" d="M5122.651,404.702h54.502c2.168,0,3.936-1.767,3.936-3.927l0,0
		c0-2.167-1.768-3.934-3.936-3.934h-54.502c-2.166,0-3.934,1.767-3.934,3.934l0,0
		C5118.718,402.936,5120.485,404.702,5122.651,404.702"/>
	<path fill-rule="evenodd" clip-rule="evenodd" fill="#BCC2C6" d="M5114.583,384.946h70.639c2.16,0,3.927-1.768,3.927-3.935l0,0
		c0-2.159-1.767-3.926-3.927-3.926h-70.639c-2.16,0-3.927,1.768-3.927,3.926l0,0
		C5110.656,383.178,5112.423,384.946,5114.583,384.946"/>
	<rect x="5236.897" y="291.739" fill-rule="evenodd" clip-rule="evenodd" fill="#34495E" width="69.023" height="69.023"/>
	<rect x="5242.56" y="297.4" fill="#22A6EF" width="57.699" height="57.703"/>
	<path fill-rule="evenodd" clip-rule="evenodd" fill="#34495E" d="M5271.409,329.161c14.037,0,25.426,11.387,25.426,25.424
		l-0.008,0.518h-50.835l-0.008-0.518C5245.984,340.547,5257.372,329.161,5271.409,329.161"/>
	<path fill-rule="evenodd" clip-rule="evenodd" fill="#34495E" d="M5271.409,306.828c7.91,0,14.33,6.411,14.33,14.33
		c0,7.912-6.42,14.331-14.33,14.331s-14.33-6.419-14.33-14.331C5257.079,313.238,5263.499,306.828,5271.409,306.828"/>
	<path fill-rule="evenodd" clip-rule="evenodd" fill="#39D4FF" d="M5271.409,312.488c4.785,0,8.67,3.885,8.67,8.669
		c0,4.786-3.885,8.67-8.67,8.67s-8.67-3.885-8.67-8.67C5262.739,316.373,5266.624,312.488,5271.409,312.488"/>
	<path fill-rule="evenodd" clip-rule="evenodd" fill="#39D4FF" d="M5271.409,334.829c10.912,0,19.757,8.845,19.757,19.756v0.518
		h-39.514v-0.518C5251.652,343.673,5260.497,334.829,5271.409,334.829"/>
	<path fill-rule="evenodd" clip-rule="evenodd" fill="#BCC2C6" d="M5244.159,404.702h54.502c2.166,0,3.934-1.767,3.934-3.927l0,0
		c0-2.167-1.768-3.934-3.934-3.934h-54.502c-2.168,0-3.936,1.767-3.936,3.934l0,0
		C5240.224,402.936,5241.991,404.702,5244.159,404.702"/>
	<path fill-rule="evenodd" clip-rule="evenodd" fill="#BCC2C6" d="M5236.089,384.946h70.643c2.155,0,3.924-1.768,3.924-3.935l0,0
		c0-2.159-1.769-3.926-3.924-3.926h-70.643c-2.157,0-3.926,1.768-3.926,3.926l0,0
		C5232.163,383.178,5233.932,384.946,5236.089,384.946"/>
	<rect x="4993.884" y="435.604" fill-rule="evenodd" clip-rule="evenodd" fill="#34495E" width="69.023" height="69.021"/>
	<rect x="4999.546" y="441.264" fill="#22A6EF" width="57.699" height="57.703"/>
	<path fill-rule="evenodd" clip-rule="evenodd" fill="#34495E" d="M5028.396,473.032c14.037,0,25.418,11.38,25.418,25.418
		l-0.01,0.517h-50.824l-0.008-0.517C5002.972,484.412,5014.35,473.032,5028.396,473.032"/>
	<path fill-rule="evenodd" clip-rule="evenodd" fill="#34495E" d="M5028.396,450.692c7.91,0,14.329,6.419,14.329,14.329
		c0,7.912-6.419,14.33-14.329,14.33c-7.92,0-14.33-6.418-14.33-14.33C5014.065,457.111,5020.476,450.692,5028.396,450.692"/>
	<path fill-rule="evenodd" clip-rule="evenodd" fill="#39D4FF" d="M5028.396,456.36c4.784,0,8.661,3.877,8.661,8.661
		c0,4.794-3.877,8.671-8.661,8.671c-4.785,0-8.67-3.877-8.67-8.671C5019.726,460.237,5023.61,456.36,5028.396,456.36"/>
	<path fill-rule="evenodd" clip-rule="evenodd" fill="#39D4FF" d="M5028.396,478.693c10.911,0,19.756,8.845,19.756,19.757
		l-0.008,0.517h-39.505l-0.009-0.517C5008.63,487.538,5017.483,478.693,5028.396,478.693"/>
	<path fill-rule="evenodd" clip-rule="evenodd" fill="#BCC2C6" d="M5001.137,548.575h54.511c2.166,0,3.926-1.769,3.926-3.936l0,0
		c0-2.15-1.76-3.935-3.926-3.935h-54.511c-2.16,0-3.927,1.784-3.927,3.935l0,0C4997.21,546.807,4998.977,548.575,5001.137,548.575"
		/>
	<path fill-rule="evenodd" clip-rule="evenodd" fill="#BCC2C6" d="M4993.075,528.818h70.643c2.157,0,3.924-1.769,3.924-3.935
		c0-2.167-1.767-3.936-3.924-3.936h-70.643c-2.168,0-3.936,1.769-3.936,3.936C4989.14,527.05,4990.907,528.818,4993.075,528.818"/>
	<rect x="5115.392" y="435.604" fill-rule="evenodd" clip-rule="evenodd" fill="#34495E" width="69.021" height="69.021"/>
	<rect x="5121.052" y="441.264" fill="#22A6EF" width="57.703" height="57.703"/>
	<path fill-rule="evenodd" clip-rule="evenodd" fill="#34495E" d="M5149.902,473.032c14.038,0,25.416,11.38,25.416,25.418v0.517
		h-50.832l-0.009-0.517C5124.478,484.412,5135.864,473.032,5149.902,473.032"/>
	<path fill-rule="evenodd" clip-rule="evenodd" fill="#34495E" d="M5149.902,450.692c7.911,0,14.329,6.419,14.329,14.329
		c0,7.912-6.418,14.33-14.329,14.33s-14.329-6.418-14.329-14.33C5135.573,457.111,5141.991,450.692,5149.902,450.692"/>
	<path fill-rule="evenodd" clip-rule="evenodd" fill="#39D4FF" d="M5149.902,456.36c4.784,0,8.671,3.877,8.671,8.661
		c0,4.794-3.887,8.671-8.671,8.671s-8.669-3.877-8.669-8.671C5141.233,460.237,5145.118,456.36,5149.902,456.36"/>
	<path fill-rule="evenodd" clip-rule="evenodd" fill="#39D4FF" d="M5149.902,478.693c10.913,0,19.757,8.845,19.757,19.757
		l-0.01,0.517h-39.504v-0.517C5130.146,487.538,5138.989,478.693,5149.902,478.693"/>
	<path fill-rule="evenodd" clip-rule="evenodd" fill="#BCC2C6" d="M5122.651,548.575h54.502c2.168,0,3.936-1.769,3.936-3.936l0,0
		c0-2.15-1.768-3.935-3.936-3.935h-54.502c-2.166,0-3.934,1.784-3.934,3.935l0,0
		C5118.718,546.807,5120.485,548.575,5122.651,548.575"/>
	<path fill-rule="evenodd" clip-rule="evenodd" fill="#BCC2C6" d="M5114.583,528.818h70.639c2.16,0,3.927-1.769,3.927-3.935
		c0-2.167-1.767-3.936-3.927-3.936h-70.639c-2.16,0-3.927,1.769-3.927,3.936C5110.656,527.05,5112.423,528.818,5114.583,528.818"/>
	<rect x="5236.897" y="435.604" fill-rule="evenodd" clip-rule="evenodd" fill="#34495E" width="69.023" height="69.021"/>
	<rect x="5242.56" y="441.264" fill="#22A6EF" width="57.699" height="57.703"/>
	<path fill-rule="evenodd" clip-rule="evenodd" fill="#34495E" d="M5271.409,473.032c14.037,0,25.426,11.38,25.426,25.418
		l-0.008,0.517h-50.835l-0.008-0.517C5245.984,484.412,5257.372,473.032,5271.409,473.032"/>
	<path fill-rule="evenodd" clip-rule="evenodd" fill="#34495E" d="M5271.409,450.692c7.91,0,14.33,6.419,14.33,14.329
		c0,7.912-6.42,14.33-14.33,14.33s-14.33-6.418-14.33-14.33C5257.079,457.111,5263.499,450.692,5271.409,450.692"/>
	<path fill-rule="evenodd" clip-rule="evenodd" fill="#39D4FF" d="M5271.409,456.36c4.785,0,8.67,3.877,8.67,8.661
		c0,4.794-3.885,8.671-8.67,8.671s-8.67-3.877-8.67-8.671C5262.739,460.237,5266.624,456.36,5271.409,456.36"/>
	<path fill-rule="evenodd" clip-rule="evenodd" fill="#39D4FF" d="M5271.409,478.693c10.912,0,19.757,8.845,19.757,19.757v0.517
		h-39.514v-0.517C5251.652,487.538,5260.497,478.693,5271.409,478.693"/>
	<path fill-rule="evenodd" clip-rule="evenodd" fill="#BCC2C6" d="M5244.159,548.575h54.502c2.166,0,3.934-1.769,3.934-3.936l0,0
		c0-2.15-1.768-3.935-3.934-3.935h-54.502c-2.168,0-3.936,1.784-3.936,3.935l0,0
		C5240.224,546.807,5241.991,548.575,5244.159,548.575"/>
	<path fill-rule="evenodd" clip-rule="evenodd" fill="#BCC2C6" d="M5236.089,528.818h70.643c2.155,0,3.924-1.769,3.924-3.935
		c0-2.167-1.769-3.936-3.924-3.936h-70.643c-2.157,0-3.926,1.769-3.926,3.936C5232.163,527.05,5233.932,528.818,5236.089,528.818"/>
	<path opacity="0.5" fill-rule="evenodd" clip-rule="evenodd" fill="#34495E" d="M4953.454,260.796
		c-2.176,0-4.244,0.875-5.785,2.409c-1.535,1.542-2.409,3.609-2.409,5.786v302.341c0,2.167,0.874,4.234,2.409,5.769
		c1.541,1.551,3.609,2.418,5.785,2.418h392.896c2.175,0,4.244-0.867,5.777-2.418c1.542-1.534,2.41-3.602,2.41-5.769V268.991
		c0-2.185-0.868-4.244-2.41-5.786c-1.533-1.542-3.608-2.409-5.777-2.409H4953.454z"/>
	<path fill="#34495E" d="M5028.753,318.257h242.299c2.391,0,4.56,0.976,6.127,2.542c1.574,1.576,2.55,3.743,2.55,6.136V513.38
		c0,2.401-0.976,4.567-2.55,6.135c-1.567,1.568-3.736,2.552-6.127,2.552h-242.299c-2.383,0-4.56-0.983-6.127-2.552
		c-1.574-1.567-2.549-3.733-2.549-6.135V326.935c0-2.393,0.975-4.56,2.549-6.136C5024.193,319.232,5026.37,318.257,5028.753,318.257
		"/>
	<path fill-rule="evenodd" clip-rule="evenodd" fill="#FFFFFF" d="M5028.753,324.134c-0.75,0-1.44,0.292-1.974,0.825
		c-0.526,0.525-0.816,1.226-0.816,1.976V513.38c0,0.75,0.29,1.451,0.816,1.983c0.533,0.517,1.224,0.817,1.974,0.817h242.299
		c0.74,0,1.441-0.301,1.969-0.817c0.53-0.532,0.822-1.233,0.822-1.983V326.935c0-0.75-0.292-1.451-0.822-1.976
		c-0.527-0.534-1.229-0.825-1.969-0.825H5028.753z"/>
	<path fill="#BCC2C6" d="M5124.511,479.136h-44.574c-1.717,0-3.275,0.708-4.4,1.833c-1.133,1.133-1.841,2.693-1.841,4.401
		c0,1.726,0.699,3.285,1.824,4.409l0.017,0.01c1.117,1.125,2.676,1.824,4.4,1.824h44.574c1.718,0,3.276-0.708,4.401-1.834
		c1.133-1.133,1.835-2.692,1.835-4.409c0-1.718-0.702-3.276-1.826-4.409C5127.796,479.835,5126.229,479.136,5124.511,479.136
		 M5079.937,473.025h44.574c3.393,0,6.476,1.391,8.712,3.625l0.015,0.009c2.236,2.242,3.619,5.327,3.619,8.711
		c0,3.401-1.383,6.494-3.619,8.729c-2.24,2.234-5.324,3.625-8.727,3.625h-44.574c-3.384,0-6.469-1.391-8.711-3.625l-0.008-0.009
		l-0.008-0.009c-2.235-2.241-3.619-5.326-3.619-8.711c0-3.394,1.384-6.485,3.619-8.72
		C5073.453,474.416,5076.536,473.025,5079.937,473.025z"/>
	<path fill="#34495E" d="M5077.512,467.982h44.581c3.385,0,6.469,1.384,8.703,3.625l0.017,0.008
		c2.234,2.243,3.628,5.318,3.628,8.711c0,3.403-1.394,6.486-3.628,8.721c-2.233,2.242-5.327,3.625-8.72,3.625h-44.581
		c-3.384,0-6.468-1.383-8.711-3.625h-0.007v-0.009c-2.244-2.243-3.629-5.326-3.629-8.712c0-3.401,1.385-6.484,3.629-8.719
		C5071.026,469.366,5074.11,467.982,5077.512,467.982"/>
	<path fill="#27CABF" d="M5122.093,471.658c2.303,0,4.502,0.908,6.127,2.533c1.627,1.634,2.543,3.835,2.543,6.135
		c0,2.302-0.916,4.502-2.551,6.127c-1.625,1.625-3.816,2.544-6.119,2.544h-44.581c-2.3,0-4.501-0.901-6.127-2.534l-0.009-0.01
		c-1.634-1.625-2.535-3.825-2.535-6.127c0-2.3,0.919-4.501,2.544-6.126c1.626-1.625,3.827-2.542,6.127-2.542H5122.093z"/>
	<path fill="#51F4E9" d="M5122.093,471.658c2.303,0,4.502,0.908,6.127,2.533c1.627,1.634,2.543,3.835,2.543,6.135
		c0,0.592-0.059,1.176-0.184,1.743c-0.333-1.65-1.15-3.168-2.359-4.377c-1.625-1.633-3.824-2.543-6.127-2.543h-44.581
		c-2.3,0-4.501,0.918-6.127,2.543c-1.208,1.209-2.026,2.733-2.368,4.385c-0.115-0.566-0.176-1.159-0.176-1.751
		c0-2.3,0.919-4.501,2.544-6.126c1.626-1.625,3.827-2.542,6.127-2.542H5122.093z"/>
	<path fill="#BCC2C6" d="M5222.293,479.136h-44.581c-1.711,0-3.268,0.708-4.4,1.833c-1.134,1.133-1.836,2.693-1.836,4.401
		c0,1.726,0.702,3.285,1.826,4.409l0.01,0.01c1.124,1.125,2.684,1.824,4.4,1.824h44.581c1.71,0,3.27-0.708,4.402-1.834
		c1.133-1.133,1.833-2.692,1.833-4.409c0-1.718-0.7-3.276-1.825-4.409C5225.569,479.835,5224.009,479.136,5222.293,479.136
		 M5177.712,473.025h44.581c3.394,0,6.469,1.391,8.712,3.625l0.008,0.009c2.235,2.242,3.627,5.327,3.627,8.711
		c0,3.401-1.392,6.494-3.627,8.729c-2.234,2.234-5.326,3.625-8.72,3.625h-44.581c-3.385,0-6.469-1.391-8.712-3.625v-0.009
		l-0.007-0.009c-2.235-2.241-3.627-5.326-3.627-8.711c0-3.394,1.392-6.485,3.627-8.72
		C5171.226,474.416,5174.31,473.025,5177.712,473.025z"/>
	<path fill="#34495E" d="M5175.286,467.982h44.582c3.392,0,6.469,1.384,8.711,3.625l0.009,0.008
		c2.242,2.243,3.625,5.318,3.625,8.711c0,3.403-1.383,6.486-3.625,8.721c-2.234,2.242-5.319,3.625-8.72,3.625h-44.582
		c-3.377,0-6.461-1.383-8.703-3.625h-0.008l-0.009-0.009c-2.233-2.243-3.628-5.326-3.628-8.712c0-3.401,1.395-6.484,3.628-8.719
		C5168.808,469.366,5171.894,467.982,5175.286,467.982"/>
	<path fill="#F65C4C" d="M5219.868,471.658c2.3,0,4.5,0.908,6.133,2.533c1.627,1.634,2.537,3.835,2.537,6.135
		c0,2.302-0.918,4.502-2.543,6.127c-1.627,1.625-3.827,2.544-6.127,2.544h-44.582c-2.301,0-4.493-0.901-6.119-2.534l-0.018-0.01
		c-1.625-1.625-2.532-3.825-2.532-6.127c0-2.3,0.915-4.501,2.55-6.126c1.626-1.625,3.818-2.542,6.119-2.542H5219.868z"/>
	<path fill="#FF7C6C" d="M5219.868,471.658c2.3,0,4.5,0.908,6.133,2.533c1.627,1.634,2.537,3.835,2.537,6.135
		c0,0.592-0.059,1.176-0.176,1.743c-0.344-1.65-1.16-3.168-2.361-4.377c-1.633-1.633-3.833-2.543-6.133-2.543h-44.582
		c-2.301,0-4.493,0.918-6.119,2.543c-1.217,1.209-2.027,2.733-2.367,4.385c-0.125-0.566-0.183-1.159-0.183-1.751
		c0-2.3,0.915-4.501,2.55-6.126c1.626-1.625,3.818-2.542,6.119-2.542H5219.868z"/>
	<path fill-rule="evenodd" clip-rule="evenodd" fill="#FFFFFF" d="M5313.698,280.735l6.228,6.219l6.218-6.219
		c1.527-1.533,4.027-1.533,5.561,0l0,0c1.525,1.526,1.525,4.027,0,5.562l-6.218,6.218l6.218,6.227c1.525,1.526,1.525,4.026,0,5.552
		v0.008c-1.533,1.526-4.033,1.526-5.561,0l-6.218-6.227l-6.228,6.227c-1.524,1.526-4.027,1.526-5.552,0v-0.008
		c-1.534-1.525-1.534-4.026,0-5.552l6.218-6.227l-6.226-6.218c-1.526-1.535-1.526-4.035,0-5.562h0.008
		C5309.671,279.202,5312.174,279.202,5313.698,280.735"/>
	<path fill-rule="evenodd" clip-rule="evenodd" fill="#94A4A5" d="M5219.3,236.513l-6.66-8.436h-2.076v13.604h2.561v-9.178
		l7.143,9.178h1.594v-13.604h-2.561V236.513z M5199.536,230.153c3.209,0,4.484,2.559,4.441,4.851
		c-0.031,2.226-1.232,4.635-4.441,4.635c-3.202,0-4.402-2.385-4.461-4.618C5195.019,232.728,5196.334,230.153,5199.536,230.153z
		 M5199.536,227.827c-4.693,0-6.987,3.584-6.987,7.152c0,3.577,2.218,7.011,6.987,7.011c4.776,0,6.926-3.518,6.969-7.027
		C5206.546,231.411,5204.211,227.827,5199.536,227.827z M5188.357,241.682v-13.604h-2.542v13.604H5188.357z M5175.386,241.682h2.559
		v-11.279h4.309v-2.325c-3.933,0-7.25,0-11.178,0v2.325h4.311V241.682z M5166.899,238.206c-0.893,0.892-2.225,1.375-3.408,1.375
		c-3.359,0-4.66-2.351-4.678-4.602c-0.024-2.268,1.391-4.709,4.678-4.709c1.184,0,2.383,0.408,3.275,1.275l1.71-1.643
		c-1.401-1.384-3.144-2.076-4.985-2.076c-4.912,0-7.22,3.602-7.203,7.152c0.017,3.535,2.158,7.011,7.203,7.011
		c1.957,0,3.759-0.642,5.16-2.017L5166.899,238.206z M5152.712,239.156h-7.628v-3.068h7.354v-2.384h-7.354v-3.143h7.628v-2.483
		h-10.17c0,4.535,0,9.078,0,13.604h10.17V239.156z M5135.69,236.513l-6.654-8.436h-2.082v13.604h2.566v-9.178l7.135,9.178h1.594
		v-13.604h-2.559V236.513z M5119.868,236.513l-6.652-8.436h-2.076v13.604h2.559v-9.178l7.146,9.178h1.593v-13.604h-2.568V236.513z
		 M5100.11,230.153c3.201,0,4.484,2.559,4.444,4.851c-0.043,2.226-1.243,4.635-4.444,4.635s-4.409-2.385-4.46-4.618
		C5095.594,232.728,5096.909,230.153,5100.11,230.153z M5100.11,227.827c-4.702,0-6.984,3.584-6.984,7.152
		c0,3.577,2.209,7.011,6.984,7.011c4.777,0,6.928-3.518,6.961-7.027C5107.113,231.411,5104.788,227.827,5100.11,227.827z
		 M5088.558,238.206c-0.893,0.892-2.234,1.375-3.41,1.375c-3.359,0-4.659-2.351-4.685-4.602c-0.018-2.268,1.399-4.709,4.685-4.709
		c1.176,0,2.384,0.408,3.277,1.275l1.708-1.643c-1.401-1.384-3.143-2.076-4.985-2.076c-4.91,0-7.218,3.602-7.201,7.152
		c0.015,3.535,2.15,7.011,7.201,7.011c1.959,0,3.759-0.642,5.16-2.017L5088.558,238.206z"/>
	<path fill-rule="evenodd" clip-rule="evenodd" fill="#34495E" d="M5149.902,365.597c19.056,0,34.511,15.455,34.511,34.511
		c0,19.057-15.455,34.512-34.511,34.512c-19.064,0-34.511-15.455-34.511-34.512C5115.392,381.052,5130.838,365.597,5149.902,365.597
		"/>
	<path fill="#22A6EF" d="M5149.902,371.258c15.931,0,28.853,12.921,28.853,28.851c0,15.931-12.922,28.853-28.853,28.853
		s-28.851-12.922-28.851-28.853C5121.052,384.179,5133.972,371.258,5149.902,371.258"/>
	<path fill-rule="evenodd" clip-rule="evenodd" fill="#34495E" d="M5149.902,403.026c10.145,0,18.898,5.943,22.974,14.529
		c-5.268,6.929-13.596,11.405-22.974,11.405s-17.706-4.477-22.974-11.405C5131.005,408.97,5139.757,403.026,5149.902,403.026"/>
	<path fill-rule="evenodd" clip-rule="evenodd" fill="#34495E" d="M5149.902,380.686c7.911,0,14.329,6.418,14.329,14.329
		c0,7.912-6.418,14.331-14.329,14.331s-14.329-6.419-14.329-14.331C5135.573,387.104,5141.991,380.686,5149.902,380.686"/>
	<path fill-rule="evenodd" clip-rule="evenodd" fill="#39D4FF" d="M5149.902,386.354c4.784,0,8.671,3.876,8.671,8.661
		s-3.887,8.67-8.671,8.67s-8.669-3.886-8.669-8.67S5145.118,386.354,5149.902,386.354"/>
	<path fill-rule="evenodd" clip-rule="evenodd" fill="#39D4FF" d="M5149.902,408.688c8.677,0,16.056,5.602,18.706,13.387
		c-5.033,4.293-11.57,6.887-18.706,6.887c-7.144,0-13.673-2.594-18.706-6.887C5133.847,414.289,5141.216,408.688,5149.902,408.688"
		/>
</g>
<g>
	<path fill="#BCC2C6" d="M205.729,207.441h388.611c4.461,0,8.52,1.826,11.455,4.76v0.017c2.935,2.935,4.76,6.986,4.76,11.438
		v345.526c0,4.452-1.825,8.486-4.76,11.438v0.017c-2.936,2.935-6.994,4.751-11.455,4.751H205.729c-4.468,0-8.52-1.816-11.454-4.751
		v-0.017c-2.935-2.951-4.761-6.985-4.761-11.438V223.655c0-4.452,1.826-8.503,4.761-11.438v-0.017
		C197.21,209.267,201.262,207.441,205.729,207.441"/>
	<path fill="#EBEFF0" d="M604.67,223.655v345.526c0,6.503-4.534,10.321-10.329,10.321H205.729c-5.785,0-10.328-3.702-10.328-10.321
		V223.655c0-6.744,4.56-10.329,10.328-10.329h388.611C600.127,213.326,604.67,217.036,604.67,223.655"/>
	<path fill="#BCC2C6" d="M203.587,254.916h392.897c3.877,0,7.395,1.575,9.937,4.126c2.551,2.542,4.135,6.069,4.135,9.945v302.328
		c0,3.886-1.584,7.403-4.135,9.938c-2.542,2.552-6.06,4.134-9.937,4.134H203.587c-3.867,0-7.395-1.582-9.936-4.134
		c-2.552-2.534-4.137-6.052-4.137-9.938V268.986c0-3.876,1.585-7.402,4.137-9.945C196.192,256.491,199.72,254.916,203.587,254.916"
		/>
	<path fill-rule="evenodd" clip-rule="evenodd" fill="#FFFFFF" d="M203.587,260.792c-2.175,0-4.243,0.867-5.785,2.409
		c-1.533,1.543-2.41,3.61-2.41,5.786v302.328c0,2.168,0.877,4.252,2.41,5.786c1.542,1.534,3.61,2.401,5.785,2.401h392.897
		c2.175,0,4.243-0.867,5.776-2.401c1.541-1.534,2.409-3.602,2.409-5.786V268.986c0-2.184-0.868-4.243-2.409-5.786
		c-1.533-1.542-3.609-2.409-5.776-2.409H203.587z"/>
	<path fill-rule="evenodd" clip-rule="evenodd" fill="#94A4A5" d="M545.917,227.414c4.135,0,7.495,3.351,7.495,7.486
		c0,4.134-3.353,7.485-7.495,7.485c-4.134,0-7.486-3.351-7.486-7.485C538.431,230.765,541.783,227.414,545.917,227.414
		 M569.441,227.414c4.134,0,7.487,3.351,7.487,7.486c0,4.134-3.354,7.485-7.487,7.485c-4.135,0-7.495-3.351-7.495-7.485
		C561.946,230.765,565.307,227.414,569.441,227.414z M522.401,227.414c4.135,0,7.484,3.351,7.484,7.486
		c0,4.134-3.35,7.485-7.484,7.485s-7.494-3.351-7.494-7.485C514.907,230.765,518.267,227.414,522.401,227.414z"/>
	<path fill-rule="evenodd" clip-rule="evenodd" fill="#BCC2C6" d="M251.271,404.697h54.509c2.168,0,3.926-1.767,3.926-3.926l0,0
		c0-2.167-1.758-3.935-3.926-3.935h-54.509c-2.159,0-3.928,1.768-3.928,3.935l0,0C247.343,402.931,249.111,404.697,251.271,404.697"
		/>
	<path fill-rule="evenodd" clip-rule="evenodd" fill="#BCC2C6" d="M243.208,384.941h70.642c2.157,0,3.926-1.768,3.926-3.935l0,0
		c0-2.159-1.769-3.925-3.926-3.925h-70.642c-2.166,0-3.934,1.767-3.934,3.925l0,0C239.274,383.174,241.042,384.941,243.208,384.941"
		/>
	<path fill-rule="evenodd" clip-rule="evenodd" fill="#BCC2C6" d="M372.785,404.697h54.501c2.167,0,3.936-1.767,3.936-3.926l0,0
		c0-2.167-1.769-3.935-3.936-3.935h-54.501c-2.167,0-3.935,1.768-3.935,3.935l0,0C368.851,402.931,370.618,404.697,372.785,404.697"
		/>
	<path fill-rule="evenodd" clip-rule="evenodd" fill="#BCC2C6" d="M364.715,384.941h70.642c2.158,0,3.926-1.768,3.926-3.935l0,0
		c0-2.159-1.768-3.925-3.926-3.925h-70.642c-2.158,0-3.927,1.767-3.927,3.925l0,0C360.788,383.174,362.557,384.941,364.715,384.941"
		/>
	<path fill-rule="evenodd" clip-rule="evenodd" fill="#BCC2C6" d="M494.292,404.697h54.501c2.167,0,3.936-1.767,3.936-3.926l0,0
		c0-2.167-1.769-3.935-3.936-3.935h-54.501c-2.168,0-3.936,1.768-3.936,3.935l0,0C490.356,402.931,492.124,404.697,494.292,404.697"
		/>
	<path fill-rule="evenodd" clip-rule="evenodd" fill="#BCC2C6" d="M486.222,384.941h70.642c2.158,0,3.927-1.768,3.927-3.935l0,0
		c0-2.159-1.769-3.925-3.927-3.925h-70.642c-2.158,0-3.926,1.767-3.926,3.925l0,0C482.296,383.174,484.063,384.941,486.222,384.941"
		/>
	<path fill-rule="evenodd" clip-rule="evenodd" fill="#BCC2C6" d="M251.271,548.558h54.509c2.168,0,3.926-1.751,3.926-3.918l0,0
		c0-2.168-1.758-3.935-3.926-3.935h-54.509c-2.159,0-3.928,1.767-3.928,3.935l0,0C247.343,546.807,249.111,548.558,251.271,548.558"
		/>
	<path fill-rule="evenodd" clip-rule="evenodd" fill="#BCC2C6" d="M243.208,528.801h70.642c2.157,0,3.926-1.767,3.926-3.934
		c0-2.15-1.769-3.919-3.926-3.919h-70.642c-2.166,0-3.934,1.769-3.934,3.919C239.274,527.034,241.042,528.801,243.208,528.801"/>
	<path fill-rule="evenodd" clip-rule="evenodd" fill="#BCC2C6" d="M372.785,548.558h54.501c2.167,0,3.936-1.751,3.936-3.918l0,0
		c0-2.168-1.769-3.935-3.936-3.935h-54.501c-2.167,0-3.935,1.767-3.935,3.935l0,0C368.851,546.807,370.618,548.558,372.785,548.558"
		/>
	<path fill-rule="evenodd" clip-rule="evenodd" fill="#BCC2C6" d="M364.715,528.801h70.642c2.158,0,3.926-1.767,3.926-3.934
		c0-2.15-1.768-3.919-3.926-3.919h-70.642c-2.158,0-3.927,1.769-3.927,3.919C360.788,527.034,362.557,528.801,364.715,528.801"/>
	<path fill-rule="evenodd" clip-rule="evenodd" fill="#BCC2C6" d="M494.292,548.558h54.501c2.167,0,3.936-1.751,3.936-3.918l0,0
		c0-2.168-1.769-3.935-3.936-3.935h-54.501c-2.168,0-3.936,1.767-3.936,3.935l0,0C490.356,546.807,492.124,548.558,494.292,548.558"
		/>
	<path fill-rule="evenodd" clip-rule="evenodd" fill="#BCC2C6" d="M486.222,528.801h70.642c2.158,0,3.927-1.767,3.927-3.934
		c0-2.15-1.769-3.919-3.927-3.919h-70.642c-2.158,0-3.926,1.769-3.926,3.919C482.296,527.034,484.063,528.801,486.222,528.801"/>
	<!-- <path fill-rule="evenodd" clip-rule="evenodd" fill="#94A4A5" d="M441.174,229.815c-1.158-2.367-3.634-3.042-6.026-3.042
		c-2.826,0.017-5.936,1.309-5.936,4.468c0,3.443,2.893,4.268,6.027,4.644c2.034,0.225,3.551,0.809,3.551,2.259
		c0,1.667-1.708,2.301-3.534,2.301c-1.859,0-3.635-0.742-4.312-2.434l-2.416,1.25c1.143,2.81,3.552,3.769,6.685,3.769
		c3.419,0,6.445-1.467,6.445-4.885c0-3.659-2.976-4.493-6.178-4.885c-1.842-0.216-3.418-0.591-3.418-1.925
		c0-1.143,1.026-2.042,3.177-2.042c1.658,0,3.109,0.833,3.635,1.709L441.174,229.815z M418.483,229.974
		c1.825,0,2.634,1.225,2.634,2.459s-0.791,2.468-2.634,2.468h-4.402v-4.927H418.483z M424.777,242.436l-4.651-5.235
		c2.918-0.592,3.884-2.717,3.884-4.834c0-2.66-1.908-5.069-5.526-5.094c-2.426,0.025-4.868,0-7.293,0v15.364h2.891v-5.127h2.784
		l4.47,5.127h3.442V242.436z M406.162,239.785h-8.611v-3.46h8.304v-2.692h-8.304v-3.551h8.611v-2.809h-11.485
		c0,5.119,0,10.262,0,15.364h11.485V239.785z M389.231,229.815c-1.158-2.367-3.635-3.042-6.026-3.042
		c-2.825,0.017-5.937,1.309-5.937,4.468c0,3.443,2.895,4.268,6.027,4.644c2.036,0.225,3.544,0.809,3.544,2.259
		c0,1.667-1.708,2.301-3.526,2.301c-1.858,0-3.634-0.742-4.319-2.434l-2.409,1.25c1.144,2.81,3.551,3.769,6.687,3.769
		c3.418,0,6.444-1.467,6.444-4.885c0-3.659-2.983-4.493-6.177-4.885c-1.843-0.216-3.427-0.591-3.427-1.925
		c0-1.143,1.033-2.042,3.184-2.042c1.658,0,3.111,0.833,3.636,1.709L389.231,229.815z M368.993,227.314v8.794
		c0,2.626-1.351,4.227-3.744,4.227c-2.393,0-3.969-1.467-3.969-4.227v-8.794h-2.867v8.794c0,4.618,3.135,6.861,6.811,6.861
		c3.859,0,6.645-2.326,6.645-6.861v-8.794H368.993z"/> -->
	<path fill-rule="evenodd" clip-rule="evenodd" fill="#34495E" d="M278.529,291.736c19.057,0,34.511,15.446,34.511,34.511
		c0,19.057-15.454,34.512-34.511,34.512c-19.065,0-34.512-15.455-34.512-34.512C244.018,307.182,259.464,291.736,278.529,291.736"/>
	<path fill="#22A6EF" d="M278.529,297.396c15.931,0,28.851,12.912,28.851,28.851c0,15.931-12.92,28.852-28.851,28.852
		c-15.938,0-28.852-12.921-28.852-28.852C249.678,310.308,262.591,297.396,278.529,297.396"/>
	<path fill-rule="evenodd" clip-rule="evenodd" fill="#34495E" d="M278.529,329.156c10.146,0,18.896,5.944,22.974,14.539
		c-5.269,6.927-13.596,11.403-22.974,11.403s-17.706-4.477-22.983-11.403C259.631,335.1,268.385,329.156,278.529,329.156"/>
	<path fill-rule="evenodd" clip-rule="evenodd" fill="#34495E" d="M278.529,306.824c7.911,0,14.329,6.41,14.329,14.33
		c0,7.911-6.418,14.33-14.329,14.33c-7.92,0-14.329-6.419-14.329-14.33C264.2,313.234,270.609,306.824,278.529,306.824"/>
	<path fill-rule="evenodd" clip-rule="evenodd" fill="#39D4FF" d="M278.529,312.484c4.785,0,8.66,3.884,8.66,8.669
		c0,4.785-3.875,8.669-8.66,8.669c-4.784,0-8.67-3.884-8.67-8.669C269.859,316.368,273.745,312.484,278.529,312.484"/>
	<path fill-rule="evenodd" clip-rule="evenodd" fill="#39D4FF" d="M278.529,334.825c8.678,0,16.056,5.594,18.706,13.379
		c-5.035,4.293-11.57,6.894-18.706,6.894c-7.145,0-13.671-2.601-18.707-6.894C262.475,340.418,269.843,334.825,278.529,334.825"/>
	<path fill-rule="evenodd" clip-rule="evenodd" fill="#34495E" d="M400.036,291.736c19.056,0,34.51,15.446,34.51,34.511
		c0,19.057-15.454,34.512-34.51,34.512c-19.066,0-34.511-15.455-34.511-34.512C365.525,307.182,380.97,291.736,400.036,291.736"/>
	<path fill="#22A6EF" d="M400.036,297.396c15.93,0,28.851,12.912,28.851,28.851c0,15.931-12.921,28.852-28.851,28.852
		c-15.931,0-28.852-12.921-28.852-28.852C371.185,310.308,384.105,297.396,400.036,297.396"/>
	<path fill-rule="evenodd" clip-rule="evenodd" fill="#34495E" d="M400.036,329.156c10.146,0,18.896,5.944,22.974,14.539
		c-5.269,6.927-13.597,11.403-22.974,11.403c-9.379,0-17.706-4.477-22.975-11.403C381.138,335.1,389.892,329.156,400.036,329.156"/>
	<path fill-rule="evenodd" clip-rule="evenodd" fill="#34495E" d="M400.036,306.824c7.911,0,14.33,6.41,14.33,14.33
		c0,7.911-6.419,14.33-14.33,14.33c-7.912,0-14.331-6.419-14.331-14.33C385.705,313.234,392.124,306.824,400.036,306.824"/>
	<path fill-rule="evenodd" clip-rule="evenodd" fill="#39D4FF" d="M400.036,312.484c4.785,0,8.669,3.884,8.669,8.669
		c0,4.785-3.884,8.669-8.669,8.669c-4.786,0-8.67-3.884-8.67-8.669C391.366,316.368,395.25,312.484,400.036,312.484"/>
	<path fill-rule="evenodd" clip-rule="evenodd" fill="#39D4FF" d="M400.036,334.825c8.678,0,16.056,5.594,18.705,13.379
		c-5.034,4.293-11.571,6.894-18.705,6.894c-7.146,0-13.672-2.601-18.707-6.894C383.979,340.418,391.349,334.825,400.036,334.825"/>
	<path fill-rule="evenodd" clip-rule="evenodd" fill="#34495E" d="M521.544,291.736c19.055,0,34.51,15.446,34.51,34.511
		c0,19.057-15.455,34.512-34.51,34.512c-19.058,0-34.513-15.455-34.513-34.512C487.031,307.182,502.486,291.736,521.544,291.736"/>
	<path fill="#22A6EF" d="M521.544,297.396c15.929,0,28.85,12.912,28.85,28.851c0,15.931-12.921,28.852-28.85,28.852
		c-15.932,0-28.853-12.921-28.853-28.852C492.691,310.308,505.612,297.396,521.544,297.396"/>
	<path fill-rule="evenodd" clip-rule="evenodd" fill="#34495E" d="M521.544,329.156c10.145,0,18.896,5.944,22.973,14.539
		c-5.269,6.927-13.595,11.403-22.973,11.403c-9.381,0-17.707-4.477-22.976-11.403C502.646,335.1,511.396,329.156,521.544,329.156"/>
	<path fill-rule="evenodd" clip-rule="evenodd" fill="#34495E" d="M521.544,306.824c7.91,0,14.329,6.41,14.329,14.33
		c0,7.911-6.419,14.33-14.329,14.33c-7.913,0-14.332-6.419-14.332-14.33C507.212,313.234,513.631,306.824,521.544,306.824"/>
	<path fill-rule="evenodd" clip-rule="evenodd" fill="#39D4FF" d="M521.544,312.484c4.784,0,8.668,3.884,8.668,8.669
		c0,4.785-3.884,8.669-8.668,8.669c-4.787,0-8.671-3.884-8.671-8.669C512.873,316.368,516.757,312.484,521.544,312.484"/>
	<path fill-rule="evenodd" clip-rule="evenodd" fill="#39D4FF" d="M521.544,334.825c8.684,0,16.055,5.594,18.705,13.379
		c-5.035,4.293-11.57,6.894-18.705,6.894c-7.137,0-13.673-2.601-18.708-6.894C505.486,340.418,512.864,334.825,521.544,334.825"/>
	<path fill-rule="evenodd" clip-rule="evenodd" fill="#34495E" d="M521.544,435.604c19.055,0,34.51,15.455,34.51,34.511
		s-15.455,34.511-34.51,34.511c-19.058,0-34.513-15.455-34.513-34.511S502.486,435.604,521.544,435.604"/>
	<path fill="#22A6EF" d="M521.544,441.256c15.929,0,28.85,12.921,28.85,28.859c0,15.922-12.921,28.842-28.85,28.842
		c-15.932,0-28.853-12.92-28.853-28.842C492.691,454.177,505.612,441.256,521.544,441.256"/>
	<path fill-rule="evenodd" clip-rule="evenodd" fill="#34495E" d="M521.544,473.032c10.145,0,18.896,5.936,22.973,14.522
		c-5.269,6.936-13.595,11.402-22.973,11.402c-9.381,0-17.707-4.467-22.976-11.402C502.646,478.968,511.396,473.032,521.544,473.032"
		/>
	<path fill-rule="evenodd" clip-rule="evenodd" fill="#34495E" d="M521.544,450.692c7.91,0,14.329,6.419,14.329,14.321
		c0,7.92-6.419,14.338-14.329,14.338c-7.913,0-14.332-6.418-14.332-14.338C507.212,457.111,513.631,450.692,521.544,450.692"/>
	<path fill-rule="evenodd" clip-rule="evenodd" fill="#39D4FF" d="M521.544,456.36c4.784,0,8.668,3.869,8.668,8.653
		s-3.884,8.669-8.668,8.669c-4.787,0-8.671-3.885-8.671-8.669S516.757,456.36,521.544,456.36"/>
	<path fill-rule="evenodd" clip-rule="evenodd" fill="#39D4FF" d="M521.544,478.685c8.684,0,16.055,5.602,18.705,13.388
		c-5.035,4.301-11.57,6.885-18.705,6.885c-7.137,0-13.673-2.584-18.708-6.885C505.486,484.286,512.864,478.685,521.544,478.685"/>
	<path fill-rule="evenodd" clip-rule="evenodd" fill="#34495E" d="M400.036,435.604c19.056,0,34.51,15.455,34.51,34.511
		s-15.454,34.511-34.51,34.511c-19.066,0-34.511-15.455-34.511-34.511S380.97,435.604,400.036,435.604"/>
	<path fill="#22A6EF" d="M400.036,441.256c15.93,0,28.851,12.921,28.851,28.859c0,15.922-12.921,28.842-28.851,28.842
		c-15.931,0-28.852-12.92-28.852-28.842C371.185,454.177,384.105,441.256,400.036,441.256"/>
	<path fill-rule="evenodd" clip-rule="evenodd" fill="#34495E" d="M400.036,473.032c10.146,0,18.896,5.936,22.974,14.522
		c-5.269,6.936-13.597,11.402-22.974,11.402c-9.379,0-17.706-4.467-22.975-11.402C381.138,478.968,389.892,473.032,400.036,473.032"
		/>
	<path fill-rule="evenodd" clip-rule="evenodd" fill="#34495E" d="M400.036,450.692c7.911,0,14.33,6.419,14.33,14.321
		c0,7.92-6.419,14.338-14.33,14.338c-7.912,0-14.331-6.418-14.331-14.338C385.705,457.111,392.124,450.692,400.036,450.692"/>
	<path fill-rule="evenodd" clip-rule="evenodd" fill="#39D4FF" d="M400.036,456.36c4.785,0,8.669,3.869,8.669,8.653
		s-3.884,8.669-8.669,8.669c-4.786,0-8.67-3.885-8.67-8.669S395.25,456.36,400.036,456.36"/>
	<path fill-rule="evenodd" clip-rule="evenodd" fill="#39D4FF" d="M400.036,478.685c8.678,0,16.056,5.602,18.705,13.388
		c-5.034,4.301-11.571,6.885-18.705,6.885c-7.146,0-13.672-2.584-18.707-6.885C383.979,484.286,391.349,478.685,400.036,478.685"/>
	<path fill-rule="evenodd" clip-rule="evenodd" fill="#34495E" d="M278.529,435.604c19.057,0,34.511,15.455,34.511,34.511
		s-15.454,34.511-34.511,34.511c-19.065,0-34.512-15.455-34.512-34.511S259.464,435.604,278.529,435.604"/>
	<path fill="#22A6EF" d="M278.529,441.256c15.931,0,28.851,12.921,28.851,28.859c0,15.922-12.92,28.842-28.851,28.842
		c-15.938,0-28.852-12.92-28.852-28.842C249.678,454.177,262.591,441.256,278.529,441.256"/>
	<path fill-rule="evenodd" clip-rule="evenodd" fill="#34495E" d="M278.529,473.032c10.146,0,18.896,5.936,22.974,14.522
		c-5.269,6.936-13.596,11.402-22.974,11.402s-17.706-4.467-22.983-11.402C259.631,478.968,268.385,473.032,278.529,473.032"/>
	<path fill-rule="evenodd" clip-rule="evenodd" fill="#34495E" d="M278.529,450.692c7.911,0,14.329,6.419,14.329,14.321
		c0,7.92-6.418,14.338-14.329,14.338c-7.92,0-14.329-6.418-14.329-14.338C264.2,457.111,270.609,450.692,278.529,450.692"/>
	<path fill-rule="evenodd" clip-rule="evenodd" fill="#39D4FF" d="M278.529,456.36c4.785,0,8.66,3.869,8.66,8.653
		s-3.875,8.669-8.66,8.669c-4.784,0-8.67-3.885-8.67-8.669S273.745,456.36,278.529,456.36"/>
	<path fill-rule="evenodd" clip-rule="evenodd" fill="#39D4FF" d="M278.529,478.685c8.678,0,16.056,5.602,18.706,13.388
		c-5.035,4.301-11.57,6.885-18.706,6.885c-7.145,0-13.671-2.584-18.707-6.885C262.475,484.286,269.843,478.685,278.529,478.685"/>
</g>
</svg>
