<?xml version="1.0" encoding="utf-8"?>
<!-- Generator: Adobe Illustrator 15.1.0, SVG Export Plug-In . SVG Version: 6.00 Build 0)  -->
<!DOCTYPE svg PUBLIC "-//W3C//DTD SVG 1.0//EN" "http://www.w3.org/TR/2001/REC-SVG-20010904/DTD/svg10.dtd">
<svg version="1.0" id="Layer_1" xmlns="http://www.w3.org/2000/svg" xmlns:xlink="http://www.w3.org/1999/xlink" x="0px" y="0px"
	 width="800px" height="800px" viewBox="0 0 800 800" enable-background="new 0 0 800 800" xml:space="preserve">
<g>
	<!-- <path fill="#BCC2C6" d="M212.15,207.445h388.61c4.47,0,8.52,1.826,11.454,4.76v0.017c2.934,2.934,4.761,6.985,4.761,11.437v345.522
		c0,4.452-1.827,8.503-4.761,11.438v0.017c-2.935,2.935-6.984,4.751-11.454,4.751H212.15c-4.47,0-8.52-1.816-11.455-4.751v-0.017
		c-2.936-2.935-4.751-6.985-4.751-11.438V223.659c0-4.452,1.815-8.503,4.751-11.437v-0.017
		C203.631,209.271,207.681,207.445,212.15,207.445"/>
	<path fill="#EBEFF0" d="M611.098,223.659v345.522c0,6.519-4.535,10.338-10.337,10.338H212.15c-5.787,0-10.329-3.719-10.329-10.338
		V223.659c0-6.744,4.56-10.329,10.329-10.329h388.61C606.546,213.33,611.098,217.04,611.098,223.659"/> -->
	<path fill="#BCC2C6" d="M210.016,254.919h392.888c3.876,0,7.396,1.576,9.946,4.126c2.541,2.543,4.126,6.069,4.126,9.946v302.341
		c0,3.868-1.585,7.386-4.126,9.937c-2.551,2.551-6.07,4.117-9.946,4.117H210.016c-3.877,0-7.395-1.566-9.945-4.117
		c-2.541-2.551-4.126-6.068-4.126-9.937V268.991c0-3.876,1.585-7.403,4.126-9.946C202.621,256.495,206.139,254.919,210.016,254.919"
		/>
	<path fill-rule="evenodd" clip-rule="evenodd" fill="#FFFFFF" d="M210.016,260.796c-2.185,0-4.252,0.875-5.785,2.409
		c-1.544,1.542-2.409,3.609-2.409,5.786v302.341c0,2.167,0.865,4.234,2.409,5.769c1.533,1.551,3.601,2.418,5.785,2.418h392.888
		c2.177,0,4.243-0.867,5.777-2.418c1.542-1.534,2.417-3.602,2.417-5.769V268.991c0-2.185-0.875-4.244-2.417-5.786
		c-1.534-1.542-3.601-2.409-5.777-2.409H210.016z"/>
	<!-- <path fill-rule="evenodd" clip-rule="evenodd" fill="#94A4A5" d="M552.346,227.418c4.133,0,7.484,3.352,7.484,7.486
		c0,4.135-3.352,7.495-7.484,7.495c-4.135,0-7.486-3.36-7.486-7.495C544.859,230.77,548.211,227.418,552.346,227.418
		 M575.861,227.418c4.134,0,7.494,3.352,7.494,7.486c0,4.135-3.36,7.495-7.494,7.495c-4.145,0-7.494-3.36-7.494-7.495
		C568.367,230.77,571.727,227.418,575.861,227.418z M528.819,227.418c4.136,0,7.487,3.352,7.487,7.486
		c0,4.135-3.352,7.495-7.487,7.495c-4.135,0-7.485-3.36-7.485-7.495C521.334,230.77,524.685,227.418,528.819,227.418z"/> -->
	<path fill-rule="evenodd" clip-rule="evenodd" fill="#34495E" d="M225.253,380.569h362.403c4.535,0,8.236-3.701,8.236-8.235V289.23
		c0-4.526-3.701-8.227-8.236-8.227H225.253c-4.526,0-8.235,3.701-8.235,8.227v83.104
		C217.018,376.868,220.727,380.569,225.253,380.569"/>
	<path fill="#22A6EF" d="M225.253,286.655h362.403c1.418,0,2.576,1.158,2.576,2.575v83.104c0,1.417-1.158,2.575-2.576,2.575H225.253
		c-1.417,0-2.567-1.158-2.567-2.575V289.23C222.686,287.813,223.836,286.655,225.253,286.655"/>
	<path fill-rule="evenodd" clip-rule="evenodd" fill="#BCC2C6" d="M225.72,518.73h103.7c2.293,0,4.17,1.869,4.17,4.152l0,0
		c0,2.3-1.877,4.167-4.17,4.167h-103.7c-2.285,0-4.158-1.867-4.158-4.167l0,0C221.562,520.6,223.435,518.73,225.72,518.73"/>
	<path fill-rule="evenodd" clip-rule="evenodd" fill="#BCC2C6" d="M225.72,497.891h65.922c2.284,0,4.16,1.876,4.16,4.169l0,0
		c0,2.292-1.876,4.16-4.16,4.16H225.72c-2.285,0-4.158-1.868-4.158-4.16l0,0C221.562,499.767,223.435,497.891,225.72,497.891"/>
	<path fill-rule="evenodd" clip-rule="evenodd" fill="#BCC2C6" d="M225.72,452.025h103.7c2.293,0,4.17,1.876,4.17,4.169l0,0
		c0,2.293-1.877,4.16-4.17,4.16h-103.7c-2.285,0-4.158-1.867-4.158-4.16l0,0C221.562,453.901,223.435,452.025,225.72,452.025"/>
	<path fill-rule="evenodd" clip-rule="evenodd" fill="#BCC2C6" d="M225.72,472.958h103.7c2.293,0,4.17,1.876,4.17,4.16v0.008
		c0,2.292-1.877,4.16-4.17,4.16h-103.7c-2.285,0-4.158-1.868-4.158-4.16v-0.008C221.562,474.834,223.435,472.958,225.72,472.958"/>
	<path fill-rule="evenodd" clip-rule="evenodd" fill="#BCC2C6" d="M225.72,431.202h65.922c2.284,0,4.16,1.867,4.16,4.161v0.007
		c0,2.292-1.876,4.16-4.16,4.16H225.72c-2.285,0-4.158-1.868-4.158-4.16v-0.007C221.562,433.069,223.435,431.202,225.72,431.202"/>
	<path fill="#1C8DCB" d="M556.555,327.068H511.98c-1.717,0-3.274,0.7-4.41,1.833c-1.124,1.134-1.832,2.693-1.832,4.401
		c0,1.726,0.699,3.284,1.826,4.401l0.006,0.017c1.127,1.126,2.686,1.817,4.41,1.817h44.574c1.71,0,3.275-0.7,4.41-1.834
		c1.125-1.125,1.833-2.684,1.833-4.401c0-1.717-0.708-3.276-1.833-4.41C559.83,327.769,558.271,327.068,556.555,327.068
		 M511.98,320.958h44.574c3.393,0,6.477,1.392,8.711,3.627l0.009,0.008c2.241,2.242,3.627,5.318,3.627,8.711
		c0,3.401-1.386,6.486-3.627,8.728c-2.234,2.234-5.327,3.618-8.72,3.618H511.98c-3.385,0-6.468-1.384-8.719-3.618v-0.008
		l-0.009-0.008c-2.233-2.243-3.626-5.327-3.626-8.711c0-3.393,1.393-6.486,3.626-8.719
		C505.487,322.35,508.582,320.958,511.98,320.958z"/>
	<path fill="#34495E" d="M509.548,315.914h44.58c3.394,0,6.47,1.383,8.713,3.626l0.007,0.008c2.234,2.234,3.627,5.319,3.627,8.711
		c0,3.401-1.393,6.486-3.627,8.72c-2.234,2.234-5.317,3.626-8.72,3.626h-44.58c-3.384,0-6.46-1.392-8.704-3.626l-0.008-0.009h-0.008
		c-2.233-2.242-3.617-5.326-3.617-8.711c0-3.401,1.384-6.485,3.617-8.719C503.063,317.297,506.154,315.914,509.548,315.914"/>
	<path fill="#27CABF" d="M554.128,319.591c2.302,0,4.503,0.908,6.136,2.534c1.626,1.634,2.534,3.834,2.534,6.135
		c0,2.301-0.917,4.501-2.542,6.119c-1.625,1.634-3.826,2.55-6.128,2.55h-44.58c-2.302,0-4.493-0.908-6.118-2.534l-0.018-0.008
		c-1.627-1.626-2.535-3.826-2.535-6.127c0-2.3,0.918-4.501,2.553-6.126c1.625-1.626,3.816-2.542,6.118-2.542H554.128z"/>
	<path fill="#51F4E9" d="M554.128,319.591c2.302,0,4.503,0.908,6.136,2.534c1.626,1.634,2.534,3.834,2.534,6.135
		c0,0.592-0.05,1.176-0.175,1.742c-0.342-1.65-1.159-3.176-2.359-4.376c-1.633-1.634-3.834-2.542-6.136-2.542h-44.58
		c-2.302,0-4.493,0.917-6.118,2.542c-1.219,1.208-2.035,2.734-2.369,4.385c-0.115-0.575-0.184-1.159-0.184-1.751
		c0-2.3,0.918-4.501,2.553-6.126c1.625-1.626,3.816-2.542,6.118-2.542H554.128z"/>
	<path fill-rule="evenodd" clip-rule="evenodd" fill="#BCC2C6" d="M377.471,412.88h213.445c2.742,0,4.977,2.241,4.977,4.976v15.272
		c0,2.734-2.242,4.977-4.977,4.977H377.471c-2.734,0-4.969-2.242-4.969-4.977v-15.272
		C372.502,415.121,374.736,412.88,377.471,412.88"/>
	<rect x="378.378" y="418.765" fill-rule="evenodd" clip-rule="evenodd" fill="#FFFFFF" width="211.631" height="13.454"/>
	<path fill-rule="evenodd" clip-rule="evenodd" fill="#BCC2C6" d="M377.471,448.601h213.445c2.742,0,4.977,2.234,4.977,4.976v15.264
		c0,2.734-2.242,4.968-4.977,4.968H377.471c-2.734,0-4.969-2.233-4.969-4.968v-15.264
		C372.502,450.835,374.736,448.601,377.471,448.601"/>
	<rect x="378.378" y="454.478" fill-rule="evenodd" clip-rule="evenodd" fill="#FFFFFF" width="211.631" height="13.455"/>
	<path fill-rule="evenodd" clip-rule="evenodd" fill="#BCC2C6" d="M377.471,484.312h213.445c2.742,0,4.977,2.234,4.977,4.969v15.271
		c0,2.734-2.242,4.976-4.977,4.976H377.471c-2.734,0-4.969-2.241-4.969-4.976V489.28
		C372.502,486.546,374.736,484.312,377.471,484.312"/>
	<rect x="378.378" y="490.188" fill-rule="evenodd" clip-rule="evenodd" fill="#FFFFFF" width="211.631" height="13.455"/>
	<path fill="#BCC2C6" d="M515.217,535.837H456.38c-2.268,0-4.319,0.918-5.818,2.419c-1.483,1.498-2.419,3.549-2.419,5.817
		c0,2.268,0.918,4.317,2.41,5.802l0.009,0.018c1.483,1.483,3.551,2.416,5.818,2.416h58.837c2.251,0,4.317-0.933,5.809-2.434
		c1.493-1.484,2.419-3.552,2.419-5.802c0-2.269-0.926-4.335-2.409-5.817C519.534,536.755,517.475,535.837,515.217,535.837
		 M456.38,527.767h58.837c4.468,0,8.535,1.835,11.485,4.787l0.019,0.017c2.95,2.949,4.785,7.019,4.785,11.503
		s-1.835,8.553-4.785,11.504c-2.952,2.952-7.021,4.784-11.504,4.784H456.38c-4.468,0-8.536-1.832-11.505-4.784l0,0l-0.006-0.017
		c-2.953-2.951-4.785-7.019-4.785-11.487c0-4.484,1.832-8.57,4.785-11.52C447.818,529.602,451.895,527.767,456.38,527.767z"/>
	<path fill="#34495E" d="M453.178,521.115h58.836c4.47,0,8.545,1.834,11.498,4.784l0.007,0.018c2.95,2.951,4.784,7.019,4.784,11.487
		c0,4.484-1.834,8.57-4.784,11.52c-2.951,2.951-7.019,4.785-11.505,4.785h-58.836c-4.467,0-8.533-1.834-11.495-4.785l-0.007-0.016
		h-0.01c-2.949-2.967-4.775-7.036-4.775-11.504c0-4.484,1.826-8.553,4.775-11.505C444.617,522.949,448.694,521.115,453.178,521.115"
		/>
	<path fill="#27CABF" d="M512.014,525.967c3.035,0,5.936,1.2,8.088,3.351c2.15,2.151,3.35,5.053,3.35,8.087
		c0,3.051-1.208,5.935-3.35,8.086c-2.152,2.15-5.053,3.367-8.088,3.367h-58.836c-3.032,0-5.934-1.199-8.084-3.351l-0.018-0.017
		c-2.15-2.151-3.343-5.053-3.343-8.086c0-3.034,1.209-5.936,3.36-8.087c2.15-2.15,5.043-3.351,8.084-3.351H512.014z"/>
	<path fill="#51F4E9" d="M512.014,525.967c3.035,0,5.936,1.2,8.088,3.351c2.15,2.151,3.35,5.053,3.35,8.087
		c0,0.784-0.074,1.55-0.234,2.3c-0.449-2.166-1.515-4.185-3.115-5.784c-2.152-2.134-5.053-3.353-8.088-3.353h-58.836
		c-3.041,0-5.934,1.219-8.084,3.369c-1.602,1.6-2.677,3.602-3.127,5.784c-0.158-0.75-0.233-1.532-0.233-2.316
		c0-3.034,1.209-5.936,3.36-8.087c2.15-2.15,5.043-3.351,8.084-3.351H512.014z"/>
	<!-- <path fill-rule="evenodd" clip-rule="evenodd" fill="#94A4A5" d="M501.97,230.053c-1.107-2.251-3.468-2.901-5.743-2.901
		c-2.701,0.017-5.668,1.251-5.668,4.26c0,3.285,2.76,4.076,5.751,4.435c1.943,0.209,3.384,0.775,3.384,2.151
		c0,1.592-1.633,2.2-3.367,2.2c-1.775,0-3.467-0.717-4.117-2.325l-2.302,1.191c1.092,2.677,3.384,3.593,6.377,3.593
		c3.259,0,6.144-1.4,6.144-4.659c0-3.485-2.834-4.286-5.894-4.66c-1.759-0.209-3.259-0.567-3.259-1.843
		c0-1.083,0.984-1.942,3.034-1.942c1.585,0,2.968,0.792,3.468,1.634L501.97,230.053z M485.306,229.47
		c-1.5-1.484-3.467-2.235-5.436-2.235c-5.16,0-7.735,3.801-7.735,7.919c0,3.851,2.234,7.46,7.735,7.46
		c2.569,0,4.394-0.975,5.836-2.634v-6.161h-6.269v2.459h3.735v2.593c-1.151,0.925-2.151,1.174-3.303,1.174
		c-3.632,0-5.034-2.484-5.034-4.893c0-3.009,1.9-5.394,5.034-5.394c1.276,0,2.743,0.525,3.719,1.468L485.306,229.47z
		 M464.648,236.713l-7.169-9.086h-2.234v14.655h2.761v-9.878l7.692,9.878h1.719v-14.655h-2.769V236.713z M449.66,242.282v-14.655
		h-2.734v14.655H449.66z M435.049,242.282h2.758v-12.146h4.635v-2.509c-4.234,0-7.811,0-12.037,0v2.509h4.645V242.282z
		 M419.41,242.282h2.76v-12.146h4.633v-2.509c-4.234,0-7.818,0-12.037,0v2.509h4.645V242.282z M409.848,239.564h-8.211v-3.301h7.928
		v-2.567h-7.928v-3.394h8.211v-2.675h-10.953c0,4.885,0,9.786,0,14.655h10.953V239.564z M393.568,230.053
		c-1.109-2.251-3.478-2.901-5.745-2.901c-2.7,0.017-5.669,1.251-5.669,4.26c0,3.285,2.752,4.076,5.752,4.435
		c1.934,0.209,3.386,0.775,3.386,2.151c0,1.592-1.634,2.2-3.368,2.2c-1.783,0-3.468-0.717-4.119-2.325l-2.301,1.191
		c1.086,2.677,3.385,3.593,6.379,3.593c3.259,0,6.144-1.4,6.144-4.659c0-3.485-2.843-4.286-5.894-4.66
		c-1.759-0.209-3.26-0.567-3.26-1.843c0-1.083,0.983-1.942,3.033-1.942c1.585,0,2.969,0.792,3.469,1.634L393.568,230.053z
		 M368.209,230.202c1.734,0,2.51,1.176,2.51,2.351s-0.75,2.351-2.51,2.351h-4.21v-4.702H368.209z M374.203,242.099l-4.428-5.002
		c2.777-0.559,3.701-2.584,3.701-4.61c0-2.534-1.823-4.835-5.268-4.86c-2.326,0.025-4.644,0-6.961,0v14.655h2.751v-4.885h2.659
		l4.27,4.885h3.275V242.099z M356.313,239.564h-8.219v-3.301h7.92v-2.567h-7.92v-3.394h8.219v-2.675h-10.953
		c0,4.885,0,9.786,0,14.655h10.953V239.564z M340.025,230.053c-1.109-2.251-3.469-2.901-5.752-2.901
		c-2.693,0.017-5.668,1.251-5.668,4.26c0,3.285,2.767,4.076,5.751,4.435c1.95,0.209,3.384,0.775,3.384,2.151
		c0,1.592-1.625,2.2-3.359,2.2c-1.775,0-3.475-0.717-4.117-2.325l-2.302,1.191c1.093,2.677,3.394,3.593,6.376,3.593
		c3.261,0,6.145-1.4,6.145-4.659c0-3.485-2.842-4.286-5.893-4.66c-1.76-0.209-3.268-0.567-3.268-1.843
		c0-1.083,0.984-1.942,3.034-1.942c1.593,0,2.966,0.792,3.467,1.634L340.025,230.053z M320.584,227.677v8.377
		c0,2.509-1.299,4.034-3.584,4.034c-2.268,0-3.775-1.4-3.775-4.034v-8.377h-2.742v8.377c0,4.409,2.982,6.544,6.501,6.544
		c3.686,0,6.335-2.218,6.335-6.544v-8.377H320.584z"/> -->
	<path fill-rule="evenodd" clip-rule="evenodd" fill="#34495E" d="M281.039,342.773c19.055,0,34.511,15.447,34.511,34.511
		c0,19.056-15.456,34.512-34.511,34.512c-19.057,0-34.512-15.456-34.512-34.512C246.527,358.22,261.982,342.773,281.039,342.773"/>
	<path fill="#22A6EF" d="M281.039,348.434c15.938,0,28.85,12.913,28.85,28.851c0,15.93-12.911,28.851-28.85,28.851
		c-15.939,0-28.852-12.921-28.852-28.851C252.188,361.346,265.1,348.434,281.039,348.434"/>
	<path fill-rule="evenodd" clip-rule="evenodd" fill="#34495E" d="M281.039,380.202c10.143,0,18.89,5.935,22.975,14.53
		c-5.27,6.927-13.596,11.404-22.975,11.404c-9.38,0-17.707-4.477-22.975-11.404C262.141,386.137,270.893,380.202,281.039,380.202"/>
	<path fill-rule="evenodd" clip-rule="evenodd" fill="#34495E" d="M281.039,357.861c7.91,0,14.32,6.419,14.32,14.33
		c0,7.912-6.41,14.33-14.32,14.33c-7.92,0-14.329-6.418-14.329-14.33C266.71,364.28,273.119,357.861,281.039,357.861"/>
	<path fill-rule="evenodd" clip-rule="evenodd" fill="#39D4FF" d="M281.039,363.521c4.785,0,8.668,3.885,8.668,8.669
		s-3.883,8.669-8.668,8.669s-8.67-3.885-8.67-8.669S276.254,363.521,281.039,363.521"/>
	<path fill-rule="evenodd" clip-rule="evenodd" fill="#39D4FF" d="M281.039,385.854c8.678,0,16.055,5.602,18.705,13.388
		c-5.034,4.293-11.57,6.894-18.705,6.894c-7.136,0-13.672-2.601-18.707-6.894C264.982,391.456,272.353,385.854,281.039,385.854"/>
</g>
<g>
	<path fill="#BCC2C6" d="M4955.596,207.445h388.612c4.461,0,8.521,1.826,11.453,4.76v0.017c2.936,2.934,4.76,6.985,4.76,11.437
		v345.522c0,4.452-1.824,8.503-4.76,11.438v0.017c-2.933,2.935-6.992,4.751-11.453,4.751h-388.612
		c-4.466,0-8.518-1.816-11.452-4.751v-0.017c-2.936-2.935-4.761-6.985-4.761-11.438V223.659c0-4.452,1.825-8.503,4.761-11.437
		v-0.017C4947.078,209.271,4951.13,207.445,4955.596,207.445"/>
	<path fill="#EBEFF0" d="M5354.538,223.659v345.522c0,6.519-4.536,10.338-10.33,10.338h-388.612
		c-5.784,0-10.327-3.719-10.327-10.338V223.659c0-6.744,4.559-10.329,10.327-10.329h388.612
		C5349.993,213.33,5354.538,217.04,5354.538,223.659"/>
	<path fill="#34495E" d="M4953.454,254.919h392.896c3.877,0,7.394,1.576,9.938,4.126c2.551,2.543,4.133,6.069,4.133,9.946v302.341
		c0,3.868-1.582,7.386-4.133,9.937c-2.544,2.551-6.061,4.117-9.938,4.117h-392.896c-3.866,0-7.395-1.566-9.938-4.117
		c-2.549-2.551-4.134-6.068-4.134-9.937V268.991c0-3.876,1.585-7.403,4.134-9.946
		C4946.06,256.495,4949.588,254.919,4953.454,254.919"/>
	<path fill-rule="evenodd" clip-rule="evenodd" fill="#FFFFFF" d="M4953.454,260.796c-2.176,0-4.244,0.875-5.785,2.409
		c-1.535,1.542-2.409,3.609-2.409,5.786v302.341c0,2.167,0.874,4.234,2.409,5.769c1.541,1.551,3.609,2.418,5.785,2.418h392.896
		c2.175,0,4.244-0.867,5.777-2.418c1.542-1.534,2.41-3.602,2.41-5.769V268.991c0-2.185-0.868-4.244-2.41-5.786
		c-1.533-1.542-3.608-2.409-5.777-2.409H4953.454z"/>
	<path fill-rule="evenodd" clip-rule="evenodd" fill="#94A4A5" d="M5295.784,227.418c4.135,0,7.493,3.352,7.493,7.486
		c0,4.135-3.35,7.495-7.493,7.495c-4.135,0-7.486-3.36-7.486-7.495C5288.298,230.77,5291.649,227.418,5295.784,227.418
		 M5319.308,227.418c4.136,0,7.486,3.352,7.486,7.486c0,4.135-3.351,7.495-7.486,7.495c-4.135,0-7.493-3.36-7.493-7.495
		C5311.814,230.77,5315.173,227.418,5319.308,227.418z M5272.27,227.418c4.134,0,7.484,3.352,7.484,7.486
		c0,4.135-3.351,7.495-7.484,7.495c-4.135,0-7.495-3.36-7.495-7.495C5264.774,230.77,5268.135,227.418,5272.27,227.418z"/>
	<rect x="4993.884" y="291.739" fill-rule="evenodd" clip-rule="evenodd" fill="#34495E" width="69.023" height="69.023"/>
	<rect x="4999.546" y="297.4" fill="#22A6EF" width="57.699" height="57.703"/>
	<path fill-rule="evenodd" clip-rule="evenodd" fill="#34495E" d="M5028.396,329.161c14.037,0,25.418,11.387,25.418,25.424
		l-0.01,0.518h-50.824l-0.008-0.518C5002.972,340.547,5014.35,329.161,5028.396,329.161"/>
	<path fill-rule="evenodd" clip-rule="evenodd" fill="#34495E" d="M5028.396,306.828c7.91,0,14.329,6.411,14.329,14.33
		c0,7.912-6.419,14.331-14.329,14.331c-7.92,0-14.33-6.419-14.33-14.331C5014.065,313.238,5020.476,306.828,5028.396,306.828"/>
	<path fill-rule="evenodd" clip-rule="evenodd" fill="#39D4FF" d="M5028.396,312.488c4.784,0,8.661,3.885,8.661,8.669
		c0,4.786-3.877,8.67-8.661,8.67c-4.785,0-8.67-3.885-8.67-8.67C5019.726,316.373,5023.61,312.488,5028.396,312.488"/>
	<path fill-rule="evenodd" clip-rule="evenodd" fill="#39D4FF" d="M5028.396,334.829c10.911,0,19.756,8.845,19.756,19.756
		l-0.008,0.518h-39.505l-0.009-0.518C5008.63,343.673,5017.483,334.829,5028.396,334.829"/>
	<path fill-rule="evenodd" clip-rule="evenodd" fill="#BCC2C6" d="M5001.137,404.702h54.511c2.166,0,3.926-1.767,3.926-3.927l0,0
		c0-2.167-1.76-3.934-3.926-3.934h-54.511c-2.16,0-3.927,1.767-3.927,3.934l0,0C4997.21,402.936,4998.977,404.702,5001.137,404.702"
		/>
	<path fill-rule="evenodd" clip-rule="evenodd" fill="#BCC2C6" d="M4993.075,384.946h70.643c2.157,0,3.924-1.768,3.924-3.935l0,0
		c0-2.159-1.767-3.926-3.924-3.926h-70.643c-2.168,0-3.936,1.768-3.936,3.926l0,0
		C4989.14,383.178,4990.907,384.946,4993.075,384.946"/>
	<rect x="5115.392" y="291.739" fill-rule="evenodd" clip-rule="evenodd" fill="#34495E" width="69.021" height="69.023"/>
	<rect x="5121.052" y="297.4" fill="#22A6EF" width="57.703" height="57.703"/>
	<path fill-rule="evenodd" clip-rule="evenodd" fill="#34495E" d="M5149.902,329.161c14.038,0,25.416,11.387,25.416,25.424v0.518
		h-50.832l-0.009-0.518C5124.478,340.547,5135.864,329.161,5149.902,329.161"/>
	<path fill-rule="evenodd" clip-rule="evenodd" fill="#34495E" d="M5149.902,306.828c7.911,0,14.329,6.411,14.329,14.33
		c0,7.912-6.418,14.331-14.329,14.331s-14.329-6.419-14.329-14.331C5135.573,313.238,5141.991,306.828,5149.902,306.828"/>
	<path fill-rule="evenodd" clip-rule="evenodd" fill="#39D4FF" d="M5149.902,312.488c4.784,0,8.671,3.885,8.671,8.669
		c0,4.786-3.887,8.67-8.671,8.67s-8.669-3.885-8.669-8.67C5141.233,316.373,5145.118,312.488,5149.902,312.488"/>
	<path fill-rule="evenodd" clip-rule="evenodd" fill="#39D4FF" d="M5149.902,334.829c10.913,0,19.757,8.845,19.757,19.756
		l-0.01,0.518h-39.504v-0.518C5130.146,343.673,5138.989,334.829,5149.902,334.829"/>
	<path fill-rule="evenodd" clip-rule="evenodd" fill="#BCC2C6" d="M5122.651,404.702h54.502c2.168,0,3.936-1.767,3.936-3.927l0,0
		c0-2.167-1.768-3.934-3.936-3.934h-54.502c-2.166,0-3.934,1.767-3.934,3.934l0,0
		C5118.718,402.936,5120.485,404.702,5122.651,404.702"/>
	<path fill-rule="evenodd" clip-rule="evenodd" fill="#BCC2C6" d="M5114.583,384.946h70.639c2.16,0,3.927-1.768,3.927-3.935l0,0
		c0-2.159-1.767-3.926-3.927-3.926h-70.639c-2.16,0-3.927,1.768-3.927,3.926l0,0
		C5110.656,383.178,5112.423,384.946,5114.583,384.946"/>
	<rect x="5236.897" y="291.739" fill-rule="evenodd" clip-rule="evenodd" fill="#34495E" width="69.023" height="69.023"/>
	<rect x="5242.56" y="297.4" fill="#22A6EF" width="57.699" height="57.703"/>
	<path fill-rule="evenodd" clip-rule="evenodd" fill="#34495E" d="M5271.409,329.161c14.037,0,25.426,11.387,25.426,25.424
		l-0.008,0.518h-50.835l-0.008-0.518C5245.984,340.547,5257.372,329.161,5271.409,329.161"/>
	<path fill-rule="evenodd" clip-rule="evenodd" fill="#34495E" d="M5271.409,306.828c7.91,0,14.33,6.411,14.33,14.33
		c0,7.912-6.42,14.331-14.33,14.331s-14.33-6.419-14.33-14.331C5257.079,313.238,5263.499,306.828,5271.409,306.828"/>
	<path fill-rule="evenodd" clip-rule="evenodd" fill="#39D4FF" d="M5271.409,312.488c4.785,0,8.67,3.885,8.67,8.669
		c0,4.786-3.885,8.67-8.67,8.67s-8.67-3.885-8.67-8.67C5262.739,316.373,5266.624,312.488,5271.409,312.488"/>
	<path fill-rule="evenodd" clip-rule="evenodd" fill="#39D4FF" d="M5271.409,334.829c10.912,0,19.757,8.845,19.757,19.756v0.518
		h-39.514v-0.518C5251.652,343.673,5260.497,334.829,5271.409,334.829"/>
	<path fill-rule="evenodd" clip-rule="evenodd" fill="#BCC2C6" d="M5244.159,404.702h54.502c2.166,0,3.934-1.767,3.934-3.927l0,0
		c0-2.167-1.768-3.934-3.934-3.934h-54.502c-2.168,0-3.936,1.767-3.936,3.934l0,0
		C5240.224,402.936,5241.991,404.702,5244.159,404.702"/>
	<path fill-rule="evenodd" clip-rule="evenodd" fill="#BCC2C6" d="M5236.089,384.946h70.643c2.155,0,3.924-1.768,3.924-3.935l0,0
		c0-2.159-1.769-3.926-3.924-3.926h-70.643c-2.157,0-3.926,1.768-3.926,3.926l0,0
		C5232.163,383.178,5233.932,384.946,5236.089,384.946"/>
	<rect x="4993.884" y="435.604" fill-rule="evenodd" clip-rule="evenodd" fill="#34495E" width="69.023" height="69.021"/>
	<rect x="4999.546" y="441.264" fill="#22A6EF" width="57.699" height="57.703"/>
	<path fill-rule="evenodd" clip-rule="evenodd" fill="#34495E" d="M5028.396,473.032c14.037,0,25.418,11.38,25.418,25.418
		l-0.01,0.517h-50.824l-0.008-0.517C5002.972,484.412,5014.35,473.032,5028.396,473.032"/>
	<path fill-rule="evenodd" clip-rule="evenodd" fill="#34495E" d="M5028.396,450.692c7.91,0,14.329,6.419,14.329,14.329
		c0,7.912-6.419,14.33-14.329,14.33c-7.92,0-14.33-6.418-14.33-14.33C5014.065,457.111,5020.476,450.692,5028.396,450.692"/>
	<path fill-rule="evenodd" clip-rule="evenodd" fill="#39D4FF" d="M5028.396,456.36c4.784,0,8.661,3.877,8.661,8.661
		c0,4.794-3.877,8.671-8.661,8.671c-4.785,0-8.67-3.877-8.67-8.671C5019.726,460.237,5023.61,456.36,5028.396,456.36"/>
	<path fill-rule="evenodd" clip-rule="evenodd" fill="#39D4FF" d="M5028.396,478.693c10.911,0,19.756,8.845,19.756,19.757
		l-0.008,0.517h-39.505l-0.009-0.517C5008.63,487.538,5017.483,478.693,5028.396,478.693"/>
	<path fill-rule="evenodd" clip-rule="evenodd" fill="#BCC2C6" d="M5001.137,548.575h54.511c2.166,0,3.926-1.769,3.926-3.936l0,0
		c0-2.15-1.76-3.935-3.926-3.935h-54.511c-2.16,0-3.927,1.784-3.927,3.935l0,0C4997.21,546.807,4998.977,548.575,5001.137,548.575"
		/>
	<path fill-rule="evenodd" clip-rule="evenodd" fill="#BCC2C6" d="M4993.075,528.818h70.643c2.157,0,3.924-1.769,3.924-3.935
		c0-2.167-1.767-3.936-3.924-3.936h-70.643c-2.168,0-3.936,1.769-3.936,3.936C4989.14,527.05,4990.907,528.818,4993.075,528.818"/>
	<rect x="5115.392" y="435.604" fill-rule="evenodd" clip-rule="evenodd" fill="#34495E" width="69.021" height="69.021"/>
	<rect x="5121.052" y="441.264" fill="#22A6EF" width="57.703" height="57.703"/>
	<path fill-rule="evenodd" clip-rule="evenodd" fill="#34495E" d="M5149.902,473.032c14.038,0,25.416,11.38,25.416,25.418v0.517
		h-50.832l-0.009-0.517C5124.478,484.412,5135.864,473.032,5149.902,473.032"/>
	<path fill-rule="evenodd" clip-rule="evenodd" fill="#34495E" d="M5149.902,450.692c7.911,0,14.329,6.419,14.329,14.329
		c0,7.912-6.418,14.33-14.329,14.33s-14.329-6.418-14.329-14.33C5135.573,457.111,5141.991,450.692,5149.902,450.692"/>
	<path fill-rule="evenodd" clip-rule="evenodd" fill="#39D4FF" d="M5149.902,456.36c4.784,0,8.671,3.877,8.671,8.661
		c0,4.794-3.887,8.671-8.671,8.671s-8.669-3.877-8.669-8.671C5141.233,460.237,5145.118,456.36,5149.902,456.36"/>
	<path fill-rule="evenodd" clip-rule="evenodd" fill="#39D4FF" d="M5149.902,478.693c10.913,0,19.757,8.845,19.757,19.757
		l-0.01,0.517h-39.504v-0.517C5130.146,487.538,5138.989,478.693,5149.902,478.693"/>
	<path fill-rule="evenodd" clip-rule="evenodd" fill="#BCC2C6" d="M5122.651,548.575h54.502c2.168,0,3.936-1.769,3.936-3.936l0,0
		c0-2.15-1.768-3.935-3.936-3.935h-54.502c-2.166,0-3.934,1.784-3.934,3.935l0,0
		C5118.718,546.807,5120.485,548.575,5122.651,548.575"/>
	<path fill-rule="evenodd" clip-rule="evenodd" fill="#BCC2C6" d="M5114.583,528.818h70.639c2.16,0,3.927-1.769,3.927-3.935
		c0-2.167-1.767-3.936-3.927-3.936h-70.639c-2.16,0-3.927,1.769-3.927,3.936C5110.656,527.05,5112.423,528.818,5114.583,528.818"/>
	<rect x="5236.897" y="435.604" fill-rule="evenodd" clip-rule="evenodd" fill="#34495E" width="69.023" height="69.021"/>
	<rect x="5242.56" y="441.264" fill="#22A6EF" width="57.699" height="57.703"/>
	<path fill-rule="evenodd" clip-rule="evenodd" fill="#34495E" d="M5271.409,473.032c14.037,0,25.426,11.38,25.426,25.418
		l-0.008,0.517h-50.835l-0.008-0.517C5245.984,484.412,5257.372,473.032,5271.409,473.032"/>
	<path fill-rule="evenodd" clip-rule="evenodd" fill="#34495E" d="M5271.409,450.692c7.91,0,14.33,6.419,14.33,14.329
		c0,7.912-6.42,14.33-14.33,14.33s-14.33-6.418-14.33-14.33C5257.079,457.111,5263.499,450.692,5271.409,450.692"/>
	<path fill-rule="evenodd" clip-rule="evenodd" fill="#39D4FF" d="M5271.409,456.36c4.785,0,8.67,3.877,8.67,8.661
		c0,4.794-3.885,8.671-8.67,8.671s-8.67-3.877-8.67-8.671C5262.739,460.237,5266.624,456.36,5271.409,456.36"/>
	<path fill-rule="evenodd" clip-rule="evenodd" fill="#39D4FF" d="M5271.409,478.693c10.912,0,19.757,8.845,19.757,19.757v0.517
		h-39.514v-0.517C5251.652,487.538,5260.497,478.693,5271.409,478.693"/>
	<path fill-rule="evenodd" clip-rule="evenodd" fill="#BCC2C6" d="M5244.159,548.575h54.502c2.166,0,3.934-1.769,3.934-3.936l0,0
		c0-2.15-1.768-3.935-3.934-3.935h-54.502c-2.168,0-3.936,1.784-3.936,3.935l0,0
		C5240.224,546.807,5241.991,548.575,5244.159,548.575"/>
	<path fill-rule="evenodd" clip-rule="evenodd" fill="#BCC2C6" d="M5236.089,528.818h70.643c2.155,0,3.924-1.769,3.924-3.935
		c0-2.167-1.769-3.936-3.924-3.936h-70.643c-2.157,0-3.926,1.769-3.926,3.936C5232.163,527.05,5233.932,528.818,5236.089,528.818"/>
	<path opacity="0.5" fill-rule="evenodd" clip-rule="evenodd" fill="#34495E" d="M4953.454,260.796
		c-2.176,0-4.244,0.875-5.785,2.409c-1.535,1.542-2.409,3.609-2.409,5.786v302.341c0,2.167,0.874,4.234,2.409,5.769
		c1.541,1.551,3.609,2.418,5.785,2.418h392.896c2.175,0,4.244-0.867,5.777-2.418c1.542-1.534,2.41-3.602,2.41-5.769V268.991
		c0-2.185-0.868-4.244-2.41-5.786c-1.533-1.542-3.608-2.409-5.777-2.409H4953.454z"/>
	<path fill="#34495E" d="M5028.753,318.257h242.299c2.391,0,4.56,0.976,6.127,2.542c1.574,1.576,2.55,3.743,2.55,6.136V513.38
		c0,2.401-0.976,4.567-2.55,6.135c-1.567,1.568-3.736,2.552-6.127,2.552h-242.299c-2.383,0-4.56-0.983-6.127-2.552
		c-1.574-1.567-2.549-3.733-2.549-6.135V326.935c0-2.393,0.975-4.56,2.549-6.136C5024.193,319.232,5026.37,318.257,5028.753,318.257
		"/>
	<path fill-rule="evenodd" clip-rule="evenodd" fill="#FFFFFF" d="M5028.753,324.134c-0.75,0-1.44,0.292-1.974,0.825
		c-0.526,0.525-0.816,1.226-0.816,1.976V513.38c0,0.75,0.29,1.451,0.816,1.983c0.533,0.517,1.224,0.817,1.974,0.817h242.299
		c0.74,0,1.441-0.301,1.969-0.817c0.53-0.532,0.822-1.233,0.822-1.983V326.935c0-0.75-0.292-1.451-0.822-1.976
		c-0.527-0.534-1.229-0.825-1.969-0.825H5028.753z"/>
	<path fill="#BCC2C6" d="M5124.511,479.136h-44.574c-1.717,0-3.275,0.708-4.4,1.833c-1.133,1.133-1.841,2.693-1.841,4.401
		c0,1.726,0.699,3.285,1.824,4.409l0.017,0.01c1.117,1.125,2.676,1.824,4.4,1.824h44.574c1.718,0,3.276-0.708,4.401-1.834
		c1.133-1.133,1.835-2.692,1.835-4.409c0-1.718-0.702-3.276-1.826-4.409C5127.796,479.835,5126.229,479.136,5124.511,479.136
		 M5079.937,473.025h44.574c3.393,0,6.476,1.391,8.712,3.625l0.015,0.009c2.236,2.242,3.619,5.327,3.619,8.711
		c0,3.401-1.383,6.494-3.619,8.729c-2.24,2.234-5.324,3.625-8.727,3.625h-44.574c-3.384,0-6.469-1.391-8.711-3.625l-0.008-0.009
		l-0.008-0.009c-2.235-2.241-3.619-5.326-3.619-8.711c0-3.394,1.384-6.485,3.619-8.72
		C5073.453,474.416,5076.536,473.025,5079.937,473.025z"/>
	<path fill="#34495E" d="M5077.512,467.982h44.581c3.385,0,6.469,1.384,8.703,3.625l0.017,0.008
		c2.234,2.243,3.628,5.318,3.628,8.711c0,3.403-1.394,6.486-3.628,8.721c-2.233,2.242-5.327,3.625-8.72,3.625h-44.581
		c-3.384,0-6.468-1.383-8.711-3.625h-0.007v-0.009c-2.244-2.243-3.629-5.326-3.629-8.712c0-3.401,1.385-6.484,3.629-8.719
		C5071.026,469.366,5074.11,467.982,5077.512,467.982"/>
	<path fill="#27CABF" d="M5122.093,471.658c2.303,0,4.502,0.908,6.127,2.533c1.627,1.634,2.543,3.835,2.543,6.135
		c0,2.302-0.916,4.502-2.551,6.127c-1.625,1.625-3.816,2.544-6.119,2.544h-44.581c-2.3,0-4.501-0.901-6.127-2.534l-0.009-0.01
		c-1.634-1.625-2.535-3.825-2.535-6.127c0-2.3,0.919-4.501,2.544-6.126c1.626-1.625,3.827-2.542,6.127-2.542H5122.093z"/>
	<path fill="#51F4E9" d="M5122.093,471.658c2.303,0,4.502,0.908,6.127,2.533c1.627,1.634,2.543,3.835,2.543,6.135
		c0,0.592-0.059,1.176-0.184,1.743c-0.333-1.65-1.15-3.168-2.359-4.377c-1.625-1.633-3.824-2.543-6.127-2.543h-44.581
		c-2.3,0-4.501,0.918-6.127,2.543c-1.208,1.209-2.026,2.733-2.368,4.385c-0.115-0.566-0.176-1.159-0.176-1.751
		c0-2.3,0.919-4.501,2.544-6.126c1.626-1.625,3.827-2.542,6.127-2.542H5122.093z"/>
	<path fill="#BCC2C6" d="M5222.293,479.136h-44.581c-1.711,0-3.268,0.708-4.4,1.833c-1.134,1.133-1.836,2.693-1.836,4.401
		c0,1.726,0.702,3.285,1.826,4.409l0.01,0.01c1.124,1.125,2.684,1.824,4.4,1.824h44.581c1.71,0,3.27-0.708,4.402-1.834
		c1.133-1.133,1.833-2.692,1.833-4.409c0-1.718-0.7-3.276-1.825-4.409C5225.569,479.835,5224.009,479.136,5222.293,479.136
		 M5177.712,473.025h44.581c3.394,0,6.469,1.391,8.712,3.625l0.008,0.009c2.235,2.242,3.627,5.327,3.627,8.711
		c0,3.401-1.392,6.494-3.627,8.729c-2.234,2.234-5.326,3.625-8.72,3.625h-44.581c-3.385,0-6.469-1.391-8.712-3.625v-0.009
		l-0.007-0.009c-2.235-2.241-3.627-5.326-3.627-8.711c0-3.394,1.392-6.485,3.627-8.72
		C5171.226,474.416,5174.31,473.025,5177.712,473.025z"/>
	<path fill="#34495E" d="M5175.286,467.982h44.582c3.392,0,6.469,1.384,8.711,3.625l0.009,0.008
		c2.242,2.243,3.625,5.318,3.625,8.711c0,3.403-1.383,6.486-3.625,8.721c-2.234,2.242-5.319,3.625-8.72,3.625h-44.582
		c-3.377,0-6.461-1.383-8.703-3.625h-0.008l-0.009-0.009c-2.233-2.243-3.628-5.326-3.628-8.712c0-3.401,1.395-6.484,3.628-8.719
		C5168.808,469.366,5171.894,467.982,5175.286,467.982"/>
	<path fill="#F65C4C" d="M5219.868,471.658c2.3,0,4.5,0.908,6.133,2.533c1.627,1.634,2.537,3.835,2.537,6.135
		c0,2.302-0.918,4.502-2.543,6.127c-1.627,1.625-3.827,2.544-6.127,2.544h-44.582c-2.301,0-4.493-0.901-6.119-2.534l-0.018-0.01
		c-1.625-1.625-2.532-3.825-2.532-6.127c0-2.3,0.915-4.501,2.55-6.126c1.626-1.625,3.818-2.542,6.119-2.542H5219.868z"/>
	<path fill="#FF7C6C" d="M5219.868,471.658c2.3,0,4.5,0.908,6.133,2.533c1.627,1.634,2.537,3.835,2.537,6.135
		c0,0.592-0.059,1.176-0.176,1.743c-0.344-1.65-1.16-3.168-2.361-4.377c-1.633-1.633-3.833-2.543-6.133-2.543h-44.582
		c-2.301,0-4.493,0.918-6.119,2.543c-1.217,1.209-2.027,2.733-2.367,4.385c-0.125-0.566-0.183-1.159-0.183-1.751
		c0-2.3,0.915-4.501,2.55-6.126c1.626-1.625,3.818-2.542,6.119-2.542H5219.868z"/>
	<path fill-rule="evenodd" clip-rule="evenodd" fill="#FFFFFF" d="M5313.698,280.735l6.228,6.219l6.218-6.219
		c1.527-1.533,4.027-1.533,5.561,0l0,0c1.525,1.526,1.525,4.027,0,5.562l-6.218,6.218l6.218,6.227c1.525,1.526,1.525,4.026,0,5.552
		v0.008c-1.533,1.526-4.033,1.526-5.561,0l-6.218-6.227l-6.228,6.227c-1.524,1.526-4.027,1.526-5.552,0v-0.008
		c-1.534-1.525-1.534-4.026,0-5.552l6.218-6.227l-6.226-6.218c-1.526-1.535-1.526-4.035,0-5.562h0.008
		C5309.671,279.202,5312.174,279.202,5313.698,280.735"/>
	<path fill-rule="evenodd" clip-rule="evenodd" fill="#94A4A5" d="M5219.3,236.513l-6.66-8.436h-2.076v13.604h2.561v-9.178
		l7.143,9.178h1.594v-13.604h-2.561V236.513z M5199.536,230.153c3.209,0,4.484,2.559,4.441,4.851
		c-0.031,2.226-1.232,4.635-4.441,4.635c-3.202,0-4.402-2.385-4.461-4.618C5195.019,232.728,5196.334,230.153,5199.536,230.153z
		 M5199.536,227.827c-4.693,0-6.987,3.584-6.987,7.152c0,3.577,2.218,7.011,6.987,7.011c4.776,0,6.926-3.518,6.969-7.027
		C5206.546,231.411,5204.211,227.827,5199.536,227.827z M5188.357,241.682v-13.604h-2.542v13.604H5188.357z M5175.386,241.682h2.559
		v-11.279h4.309v-2.325c-3.933,0-7.25,0-11.178,0v2.325h4.311V241.682z M5166.899,238.206c-0.893,0.892-2.225,1.375-3.408,1.375
		c-3.359,0-4.66-2.351-4.678-4.602c-0.024-2.268,1.391-4.709,4.678-4.709c1.184,0,2.383,0.408,3.275,1.275l1.71-1.643
		c-1.401-1.384-3.144-2.076-4.985-2.076c-4.912,0-7.22,3.602-7.203,7.152c0.017,3.535,2.158,7.011,7.203,7.011
		c1.957,0,3.759-0.642,5.16-2.017L5166.899,238.206z M5152.712,239.156h-7.628v-3.068h7.354v-2.384h-7.354v-3.143h7.628v-2.483
		h-10.17c0,4.535,0,9.078,0,13.604h10.17V239.156z M5135.69,236.513l-6.654-8.436h-2.082v13.604h2.566v-9.178l7.135,9.178h1.594
		v-13.604h-2.559V236.513z M5119.868,236.513l-6.652-8.436h-2.076v13.604h2.559v-9.178l7.146,9.178h1.593v-13.604h-2.568V236.513z
		 M5100.11,230.153c3.201,0,4.484,2.559,4.444,4.851c-0.043,2.226-1.243,4.635-4.444,4.635s-4.409-2.385-4.46-4.618
		C5095.594,232.728,5096.909,230.153,5100.11,230.153z M5100.11,227.827c-4.702,0-6.984,3.584-6.984,7.152
		c0,3.577,2.209,7.011,6.984,7.011c4.777,0,6.928-3.518,6.961-7.027C5107.113,231.411,5104.788,227.827,5100.11,227.827z
		 M5088.558,238.206c-0.893,0.892-2.234,1.375-3.41,1.375c-3.359,0-4.659-2.351-4.685-4.602c-0.018-2.268,1.399-4.709,4.685-4.709
		c1.176,0,2.384,0.408,3.277,1.275l1.708-1.643c-1.401-1.384-3.143-2.076-4.985-2.076c-4.91,0-7.218,3.602-7.201,7.152
		c0.015,3.535,2.15,7.011,7.201,7.011c1.959,0,3.759-0.642,5.16-2.017L5088.558,238.206z"/>
	<path fill-rule="evenodd" clip-rule="evenodd" fill="#34495E" d="M5149.902,365.597c19.056,0,34.511,15.455,34.511,34.511
		c0,19.057-15.455,34.512-34.511,34.512c-19.064,0-34.511-15.455-34.511-34.512C5115.392,381.052,5130.838,365.597,5149.902,365.597
		"/>
	<path fill="#22A6EF" d="M5149.902,371.258c15.931,0,28.853,12.921,28.853,28.851c0,15.931-12.922,28.853-28.853,28.853
		s-28.851-12.922-28.851-28.853C5121.052,384.179,5133.972,371.258,5149.902,371.258"/>
	<path fill-rule="evenodd" clip-rule="evenodd" fill="#34495E" d="M5149.902,403.026c10.145,0,18.898,5.943,22.974,14.529
		c-5.268,6.929-13.596,11.405-22.974,11.405s-17.706-4.477-22.974-11.405C5131.005,408.97,5139.757,403.026,5149.902,403.026"/>
	<path fill-rule="evenodd" clip-rule="evenodd" fill="#34495E" d="M5149.902,380.686c7.911,0,14.329,6.418,14.329,14.329
		c0,7.912-6.418,14.331-14.329,14.331s-14.329-6.419-14.329-14.331C5135.573,387.104,5141.991,380.686,5149.902,380.686"/>
	<path fill-rule="evenodd" clip-rule="evenodd" fill="#39D4FF" d="M5149.902,386.354c4.784,0,8.671,3.876,8.671,8.661
		s-3.887,8.67-8.671,8.67s-8.669-3.886-8.669-8.67S5145.118,386.354,5149.902,386.354"/>
	<path fill-rule="evenodd" clip-rule="evenodd" fill="#39D4FF" d="M5149.902,408.688c8.677,0,16.056,5.602,18.706,13.387
		c-5.033,4.293-11.57,6.887-18.706,6.887c-7.144,0-13.673-2.594-18.706-6.887C5133.847,414.289,5141.216,408.688,5149.902,408.688"
		/>
</g>
</svg>
