<?xml version="1.0" encoding="utf-8"?>
<!-- Generator: Adobe Illustrator 15.1.0, SVG Export Plug-In . SVG Version: 6.00 Build 0)  -->
<!DOCTYPE svg PUBLIC "-//W3C//DTD SVG 1.0//EN" "http://www.w3.org/TR/2001/REC-SVG-20010904/DTD/svg10.dtd">
<svg version="1.0" id="Layer_1" xmlns="http://www.w3.org/2000/svg" xmlns:xlink="http://www.w3.org/1999/xlink" x="0px" y="0px"
	 width="800px" height="800px" viewBox="0 0 800 800" enable-background="new 0 0 800 800" xml:space="preserve">
<g>
	<!-- <path fill="#BCC2C6" d="M215.106,207.445h388.612c4.468,0,8.518,1.826,11.453,4.76v0.017c2.935,2.934,4.762,6.985,4.762,11.437
		v345.522c0,4.452-1.827,8.503-4.762,11.438v0.017c-2.936,2.935-6.985,4.751-11.453,4.751H215.106
		c-4.468,0-8.521-1.816-11.452-4.751v-0.017c-2.936-2.935-4.754-6.985-4.754-11.438V223.659c0-4.452,1.818-8.503,4.754-11.437
		v-0.017C206.586,209.271,210.639,207.445,215.106,207.445"/>
	<path fill="#EBEFF0" d="M614.049,223.659v345.522c0,6.519-4.527,10.338-10.33,10.338H215.106c-5.784,0-10.328-3.719-10.328-10.338
		V223.659c0-6.744,4.56-10.329,10.328-10.329h388.612C609.504,213.33,614.049,217.04,614.049,223.659"/> -->
	<path fill="#BCC2C6" d="M212.973,254.919h392.881c3.884,0,7.402,1.576,9.954,4.126c2.542,2.543,4.126,6.069,4.126,9.946v302.341
		c0,3.868-1.584,7.386-4.126,9.937c-2.552,2.551-6.07,4.117-9.954,4.117H212.973c-3.885,0-7.4-1.566-9.944-4.117
		c-2.552-2.551-4.128-6.068-4.128-9.937V268.991c0-3.876,1.576-7.403,4.128-9.946C205.572,256.495,209.088,254.919,212.973,254.919"
		/>
	<path fill-rule="evenodd" clip-rule="evenodd" fill="#FFFFFF" d="M212.973,260.796c-2.184,0-4.252,0.875-5.786,2.409
		c-1.542,1.542-2.416,3.609-2.416,5.786v302.341c0,2.167,0.874,4.234,2.416,5.769c1.534,1.551,3.603,2.418,5.786,2.418h392.881
		c2.184,0,4.252-0.867,5.785-2.418c1.542-1.534,2.41-3.602,2.41-5.769V268.991c0-2.185-0.868-4.244-2.41-5.786
		c-1.533-1.542-3.602-2.409-5.785-2.409H212.973z"/>
	<!-- <path fill-rule="evenodd" clip-rule="evenodd" fill="#94A4A5" d="M555.304,227.418c4.135,0,7.485,3.352,7.485,7.486
		c0,4.135-3.351,7.495-7.485,7.495c-4.136,0-7.495-3.36-7.495-7.495C547.809,230.77,551.168,227.418,555.304,227.418
		 M578.82,227.418c4.125,0,7.492,3.352,7.492,7.486c0,4.135-3.367,7.495-7.492,7.495c-4.145,0-7.495-3.36-7.495-7.495
		C571.325,230.77,574.684,227.418,578.82,227.418z M531.777,227.418c4.136,0,7.487,3.352,7.487,7.486
		c0,4.135-3.352,7.495-7.487,7.495c-4.135,0-7.484-3.36-7.484-7.495C524.293,230.77,527.643,227.418,531.777,227.418z"/> -->
	<path fill-rule="evenodd" clip-rule="evenodd" fill="#34495E" d="M228.213,376.451h362.401c4.535,0,8.237-3.701,8.237-8.228
		v-83.111c0-4.526-3.711-8.228-8.237-8.228H228.213c-4.527,0-8.237,3.701-8.237,8.228v83.111
		C219.976,372.75,223.678,376.451,228.213,376.451"/>
	<path fill="#22A6EF" d="M228.213,282.545h362.401c1.419,0,2.575,1.159,2.575,2.567v83.103c0,1.417-1.156,2.576-2.575,2.576H228.213
		c-1.42,0-2.577-1.159-2.577-2.576v-83.103C225.636,283.704,226.793,282.545,228.213,282.545"/>
	<path fill="#BCC2C6" d="M280.303,438.646h-29.417c-2.268,0-4.319,0.926-5.811,2.417c-1.491,1.501-2.425,3.551-2.425,5.818
		s0.924,4.326,2.408,5.811l0.017,0.017c1.484,1.483,3.543,2.409,5.811,2.409h29.417c2.26,0,4.319-0.933,5.812-2.426
		c1.501-1.491,2.418-3.551,2.418-5.811c0-2.268-0.917-4.334-2.409-5.818C284.629,439.572,282.571,438.646,280.303,438.646
		 M250.886,430.586h29.417c4.477,0,8.545,1.825,11.496,4.784l0.018,0.017c2.951,2.952,4.784,7.02,4.784,11.495
		c0,4.485-1.833,8.562-4.784,11.505c-2.951,2.959-7.026,4.784-11.514,4.784h-29.417c-4.468,0-8.536-1.825-11.495-4.784h-0.008
		l-0.01-0.01c-2.951-2.958-4.775-7.025-4.775-11.495c0-4.483,1.824-8.561,4.775-11.512
		C242.325,432.411,246.401,430.586,250.886,430.586z"/>
	<path fill="#34495E" d="M247.685,423.925h29.419c4.475,0,8.545,1.834,11.496,4.785l0.014,0.017
		c2.951,2.951,4.787,7.02,4.787,11.495c0,4.486-1.836,8.561-4.787,11.512c-2.949,2.951-7.017,4.785-11.51,4.785h-29.419
		c-4.468,0-8.536-1.834-11.487-4.785l-0.016-0.007v-0.009c-2.951-2.96-4.786-7.027-4.786-11.496c0-4.485,1.835-8.56,4.786-11.512
		C239.133,425.759,243.199,423.925,247.685,423.925"/>
	<path fill="#27CABF" d="M277.104,428.776c3.041,0,5.942,1.2,8.094,3.351c2.15,2.151,3.35,5.053,3.35,8.095
		c0,3.043-1.207,5.937-3.358,8.087c-2.143,2.142-5.044,3.359-8.085,3.359h-29.419c-3.034,0-5.935-1.2-8.087-3.353l-0.016-0.007
		c-2.143-2.15-3.344-5.052-3.344-8.087c0-3.042,1.219-5.935,3.359-8.085c2.152-2.151,5.053-3.36,8.087-3.36H277.104z"/>
	<path fill="#34495E" d="M277.31,423.925c9.005,0,16.308,7.302,16.308,16.307c0,9.003-7.303,16.304-16.308,16.304
		c-9,0-16.304-7.301-16.304-16.304C261.006,431.227,268.31,423.925,277.31,423.925"/>
	<path fill-rule="evenodd" clip-rule="evenodd" fill="#FFFFFF" d="M277.31,428.844c-6.284,0-11.386,5.093-11.386,11.388
		c0,6.284,5.102,11.386,11.386,11.386c6.288,0,11.39-5.102,11.39-11.386C288.699,433.937,283.598,428.844,277.31,428.844"/>
	<path fill="#BCC2C6" d="M280.303,487.02h-29.417c-2.268,0-4.319,0.927-5.811,2.427c-1.491,1.493-2.425,3.551-2.425,5.811
		c0,2.267,0.924,4.326,2.408,5.811l0.017,0.017c1.484,1.483,3.543,2.399,5.811,2.399h29.417c2.26,0,4.319-0.925,5.812-2.416
		c1.501-1.491,2.418-3.552,2.418-5.811c0-2.268-0.917-4.334-2.409-5.818C284.629,487.946,282.571,487.02,280.303,487.02
		 M250.886,478.96h29.417c4.477,0,8.545,1.834,11.496,4.785l0.018,0.017c2.951,2.95,4.784,7.02,4.784,11.495
		c0,4.484-1.833,8.562-4.784,11.513c-2.951,2.958-7.026,4.776-11.514,4.776h-29.417c-4.468,0-8.536-1.818-11.495-4.776l-0.008-0.009
		l-0.01-0.009c-2.951-2.958-4.775-7.027-4.775-11.495c0-4.484,1.824-8.562,4.775-11.512
		C242.325,480.794,246.401,478.96,250.886,478.96z"/>
	<path fill="#34495E" d="M277.328,472.299H247.9c-4.467,0-8.534,1.835-11.485,4.786l-0.018,0.017
		c-2.95,2.949-4.784,7.02-4.784,11.495c0,4.484,1.834,8.561,4.784,11.512c2.952,2.951,7.021,4.785,11.503,4.785h29.428
		c4.46,0,8.537-1.834,11.486-4.785l0.009-0.009l0.008-0.007c2.951-2.96,4.786-7.028,4.786-11.496c0-4.485-1.835-8.563-4.786-11.512
		C285.88,474.134,281.813,472.299,277.328,472.299"/>
	<path fill="#F65C4C" d="M247.9,477.151c-3.033,0-5.934,1.208-8.085,3.351c-2.151,2.151-3.36,5.053-3.36,8.095
		c0,3.043,1.217,5.935,3.36,8.085c2.151,2.15,5.052,3.36,8.085,3.36h29.428c3.034,0,5.935-1.2,8.078-3.343l0.016-0.018
		c2.143-2.15,3.342-5.051,3.342-8.085c0-3.042-1.216-5.936-3.357-8.087c-2.144-2.142-5.044-3.358-8.078-3.358H247.9z"/>
	<path fill="#34495E" d="M247.701,472.299c-9.002,0-16.306,7.303-16.306,16.306s7.304,16.306,16.306,16.306
		c9.004,0,16.307-7.303,16.307-16.306S256.705,472.299,247.701,472.299"/>
	<path fill-rule="evenodd" clip-rule="evenodd" fill="#FFFFFF" d="M247.701,477.217c6.286,0,11.389,5.095,11.389,11.388
		c0,6.295-5.103,11.388-11.389,11.388c-6.294,0-11.387-5.093-11.387-11.388C236.314,482.312,241.407,477.217,247.701,477.217"/>
	<path fill="#BCC2C6" d="M280.303,535.404h-29.417c-2.268,0-4.319,0.933-5.811,2.417c-1.491,1.5-2.425,3.551-2.425,5.818
		c0,2.269,0.924,4.318,2.408,5.803l0.017,0.017c1.484,1.482,3.543,2.416,5.811,2.416h29.417c2.26,0,4.319-0.934,5.812-2.433
		c1.501-1.484,2.418-3.552,2.418-5.803c0-2.268-0.917-4.335-2.409-5.818C284.629,536.32,282.571,535.404,280.303,535.404
		 M250.886,527.334h29.417c4.477,0,8.545,1.833,11.496,4.784l0.018,0.018c2.951,2.951,4.784,7.019,4.784,11.504
		c0,4.484-1.833,8.554-4.784,11.503c-2.951,2.951-7.026,4.786-11.514,4.786h-29.417c-4.468,0-8.536-1.835-11.495-4.786h-0.008
		l-0.01-0.017c-2.951-2.95-4.775-7.019-4.775-11.486c0-4.485,1.824-8.569,4.775-11.521
		C242.325,529.167,246.401,527.334,250.886,527.334z"/>
	<path fill="#34495E" d="M247.685,520.681h29.419c4.475,0,8.545,1.836,11.496,4.787l0.014,0.017
		c2.951,2.949,4.787,7.019,4.787,11.485c0,4.486-1.836,8.57-4.787,11.522c-2.949,2.951-7.017,4.784-11.51,4.784h-29.419
		c-4.468,0-8.536-1.833-11.487-4.784l-0.016-0.018l0,0c-2.951-2.968-4.786-7.035-4.786-11.505c0-4.483,1.835-8.551,4.786-11.502
		S243.199,520.681,247.685,520.681"/>
	<path fill="#27CABF" d="M277.104,525.534c3.041,0,5.942,1.199,8.094,3.351c2.15,2.15,3.35,5.052,3.35,8.085
		c0,3.052-1.207,5.937-3.358,8.087c-2.143,2.15-5.044,3.368-8.085,3.368h-29.419c-3.034,0-5.935-1.2-8.087-3.351l-0.016-0.018
		c-2.143-2.15-3.344-5.051-3.344-8.087c0-3.033,1.219-5.935,3.359-8.085c2.152-2.134,5.053-3.351,8.087-3.351H277.104z"/>
	<path fill="#34495E" d="M277.31,520.681c9.005,0,16.308,7.304,16.308,16.307c0,9.002-7.303,16.306-16.308,16.306
		c-9,0-16.304-7.304-16.304-16.306C261.006,527.984,268.31,520.681,277.31,520.681"/>
	<path fill-rule="evenodd" clip-rule="evenodd" fill="#FFFFFF" d="M277.31,525.6c-6.284,0-11.386,5.085-11.386,11.388
		c0,6.284,5.102,11.388,11.386,11.388c6.288,0,11.39-5.104,11.39-11.388C288.699,530.685,283.598,525.6,277.31,525.6"/>
	<path fill-rule="evenodd" clip-rule="evenodd" fill="#BCC2C6" d="M338.215,446.133h171.206c2.16,0,3.927,1.767,3.927,3.926
		c0,2.167-1.767,3.936-3.927,3.936H338.215c-2.168,0-3.936-1.769-3.936-3.936C334.279,447.899,336.047,446.133,338.215,446.133"/>
	<path fill-rule="evenodd" clip-rule="evenodd" fill="#BCC2C6" d="M338.215,426.468h110.803c2.168,0,3.936,1.767,3.936,3.927l0,0
		c0,2.167-1.768,3.934-3.936,3.934H338.215c-2.168,0-3.936-1.767-3.936-3.934l0,0C334.279,428.234,336.047,426.468,338.215,426.468"
		/>
	<path fill-rule="evenodd" clip-rule="evenodd" fill="#BCC2C6" d="M338.215,494.498h171.206c2.16,0,3.927,1.768,3.927,3.936
		c0,2.158-1.767,3.927-3.927,3.927H338.215c-2.168,0-3.936-1.769-3.936-3.927C334.279,496.266,336.047,494.498,338.215,494.498"/>
	<path fill-rule="evenodd" clip-rule="evenodd" fill="#BCC2C6" d="M338.215,474.834h110.803c2.168,0,3.936,1.767,3.936,3.927v0.007
		c0,2.16-1.768,3.926-3.936,3.926H338.215c-2.168,0-3.936-1.766-3.936-3.926v-0.007
		C334.279,476.601,336.047,474.834,338.215,474.834"/>
	<path fill-rule="evenodd" clip-rule="evenodd" fill="#BCC2C6" d="M338.215,542.89h171.206c2.16,0,3.927,1.767,3.927,3.935l0,0
		c0,2.15-1.767,3.918-3.927,3.918H338.215c-2.168,0-3.936-1.768-3.936-3.918l0,0C334.279,544.656,336.047,542.89,338.215,542.89"/>
	<path fill-rule="evenodd" clip-rule="evenodd" fill="#BCC2C6" d="M338.215,523.216h110.803c2.168,0,3.936,1.767,3.936,3.935l0,0
		c0,2.167-1.768,3.936-3.936,3.936H338.215c-2.168,0-3.936-1.769-3.936-3.936l0,0C334.279,524.982,336.047,523.216,338.215,523.216"
		/>
	<path fill-rule="evenodd" clip-rule="evenodd" fill="#BCC2C6" d="M555.535,436.73l5.053,5.05l11.438-11.436
		c1.525-1.534,4.027-1.534,5.552,0c1.534,1.524,1.534,4.025,0,5.552l-14.206,14.222l-0.082,0.064l-0.068,0.076l-0.08,0.067
		l-0.068,0.057l-0.083,0.067l-0.075,0.058l-0.084,0.06l-0.074,0.05l0,0l-0.084,0.058l-0.083,0.043v0.007l-0.083,0.043l0,0
		l-0.083,0.051h-0.009l-0.084,0.041l0,0l-0.092,0.04l0,0l-0.082,0.043l0,0l-0.084,0.033l0,0l-0.092,0.034h-0.009l-0.083,0.033l0,0
		l-0.091,0.033l0,0l-0.092,0.024l0,0l-0.083,0.026h-0.011l-0.091,0.024l-0.092,0.024l0,0l-0.092,0.016l-0.092,0.017l0,0
		l-0.092,0.018l-0.1,0.009l0,0l-0.084,0.007l-0.007,0.01h-0.092l0,0l-0.093,0.008h-0.008h-0.092v0.009h-0.092l-0.191-0.009
		l-0.092-0.008l0,0l-0.184-0.017h-0.008l-0.092-0.009l0,0c-0.125-0.018-0.25-0.042-0.365-0.074h-0.01
		c-0.125-0.024-0.242-0.067-0.358-0.108l0,0l-0.092-0.033l-0.176-0.067l0,0l-0.175-0.083h-0.008l-0.083-0.041l0,0l-0.251-0.144l0,0
		l-0.167-0.107l-0.149-0.117h-0.008l-0.076-0.067l0,0l-0.074-0.057h-0.008l-0.068-0.067l-0.074-0.076l0,0l-0.076-0.064l0,0l0,0
		l-7.826-7.829c-1.525-1.525-1.525-4.026,0-5.552l0.008-0.007C551.51,435.203,554.012,435.203,555.535,436.73"/>
	<path fill-rule="evenodd" clip-rule="evenodd" fill="#BCC2C6" d="M555.535,485.096l5.053,5.052l11.438-11.437
		c1.525-1.535,4.027-1.535,5.552,0c1.534,1.524,1.534,4.025,0,5.559l-14.206,14.214l-0.082,0.074l-0.068,0.067l-0.08,0.067
		l-0.068,0.057l-0.083,0.067l-0.075,0.059l-0.084,0.059l-0.074,0.049v0.009l-0.084,0.05l-0.083,0.043v0.007l-0.083,0.043v0.008
		l-0.083,0.043h-0.009l-0.084,0.04l0,0l-0.092,0.043l0,0l-0.082,0.041l0,0l-0.084,0.033v0.007l-0.092,0.034h-0.009l-0.083,0.026l0,0
		l-0.091,0.032l0,0l-0.092,0.024v0.01l-0.083,0.017l-0.011,0.008l-0.091,0.017l-0.092,0.025l0,0l-0.092,0.017l-0.092,0.018l0,0
		l-0.092,0.016l-0.1,0.009l0,0l-0.084,0.016h-0.007h-0.092v0.01h-0.093h-0.008l-0.092,0.008l0,0h-0.092l-0.191-0.008h-0.092v-0.01
		l-0.184-0.016h-0.008l-0.092-0.009l0,0c-0.125-0.016-0.25-0.042-0.365-0.075h-0.01c-0.125-0.024-0.242-0.067-0.358-0.107l0,0
		l-0.092-0.026l-0.176-0.074l0,0l-0.175-0.084h-0.008l-0.083-0.04l0,0l-0.251-0.144l0,0l-0.167-0.107l-0.149-0.117h-0.008
		l-0.076-0.067l0,0l-0.074-0.057h-0.008l-0.068-0.067l-0.074-0.067l0,0l-0.076-0.074l0,0l0,0l-7.826-7.819
		c-1.525-1.534-1.525-4.035,0-5.562l0.008-0.007C551.51,483.569,554.012,483.569,555.535,485.096"/>
	<path fill-rule="evenodd" clip-rule="evenodd" fill="#BCC2C6" d="M555.535,533.486l5.053,5.052l11.438-11.438
		c1.525-1.532,4.027-1.532,5.552,0l0,0c1.534,1.519,1.534,4.021,0,5.553l-14.206,14.222l-0.082,0.067l-0.068,0.065l-0.08,0.067
		l-0.068,0.067l-0.083,0.065l-0.075,0.051l0,0l-0.084,0.066l-0.074,0.051l0,0l-0.084,0.048l-0.083,0.051l0,0l-0.083,0.05l0,0
		l-0.083,0.05h-0.009l-0.084,0.034l0,0l-0.092,0.051l0,0l-0.082,0.032l0,0l-0.084,0.033l0,0l-0.092,0.051h-0.009l-0.083,0.033l0,0
		l-0.091,0.017l-0.092,0.034l0,0l-0.083,0.033h-0.011l-0.091,0.017l-0.092,0.017l0,0l-0.092,0.017l0,0l-0.092,0.017l0,0
		l-0.092,0.018l-0.1,0.016l0,0l-0.084,0.018h-0.007h-0.092h-0.093h-0.008l-0.092,0.017h-0.092l-0.191-0.017h-0.092l-0.184-0.018
		h-0.008l-0.092-0.016l0,0c-0.125-0.018-0.25-0.034-0.365-0.067h-0.01c-0.125-0.033-0.242-0.067-0.358-0.101l0,0l-0.092-0.033
		l-0.176-0.084l0,0l-0.175-0.083h-0.008l-0.083-0.034l0,0l-0.251-0.15l0,0l-0.167-0.099l-0.149-0.117h-0.008l-0.076-0.065l0,0
		l-0.074-0.067h-0.008l-0.068-0.067l-0.074-0.065l0,0l-0.076-0.067l0,0l-7.826-7.837c-1.525-1.516-1.525-4.018,0-5.551h0.008
		C551.51,531.951,554.012,531.969,555.535,533.486"/>
	<!-- <path fill-rule="evenodd" clip-rule="evenodd" fill="#94A4A5" d="M504.928,230.053c-1.109-2.251-3.467-2.901-5.744-2.901
		c-2.701,0.017-5.668,1.251-5.668,4.26c0,3.285,2.76,4.076,5.754,4.435c1.933,0.209,3.384,0.775,3.384,2.151
		c0,1.592-1.636,2.2-3.37,2.2c-1.773,0-3.465-0.717-4.117-2.325l-2.301,1.191c1.084,2.677,3.386,3.593,6.377,3.593
		c3.261,0,6.145-1.4,6.145-4.659c0-3.485-2.844-4.286-5.895-4.66c-1.758-0.209-3.258-0.567-3.258-1.843
		c0-1.083,0.983-1.942,3.035-1.942c1.582,0,2.965,0.792,3.465,1.634L504.928,230.053z M488.264,229.47
		c-1.5-1.484-3.467-2.235-5.434-2.235c-5.16,0-7.737,3.801-7.737,7.919c0,3.851,2.235,7.46,7.737,7.46
		c2.566,0,4.393-0.975,5.834-2.634v-6.161h-6.268v2.459h3.734v2.593c-1.15,0.925-2.152,1.174-3.301,1.174
		c-3.635,0-5.036-2.484-5.036-4.893c0-3.009,1.9-5.394,5.036-5.394c1.273,0,2.732,0.525,3.715,1.468L488.264,229.47z
		 M467.608,236.713l-7.169-9.086h-2.236v14.655h2.761v-9.878l7.694,9.878h1.719v-14.655h-2.769V236.713z M452.619,242.282v-14.655
		h-2.734v14.655H452.619z M438.006,242.282h2.76v-12.146h4.643v-2.509c-4.243,0-7.828,0-12.046,0v2.509h4.644V242.282z
		 M422.368,242.282h2.759v-12.146h4.635v-2.509c-4.234,0-7.819,0-12.037,0v2.509h4.644V242.282z M412.807,239.564h-8.211v-3.301
		h7.927v-2.567h-7.927v-3.394h8.211v-2.675h-10.955c0,4.885,0,9.786,0,14.655h10.955V239.564z M396.525,230.053
		c-1.108-2.251-3.477-2.901-5.751-2.901c-2.693,0.017-5.661,1.251-5.661,4.26c0,3.285,2.751,4.076,5.744,4.435
		c1.941,0.209,3.393,0.775,3.393,2.151c0,1.592-1.635,2.2-3.367,2.2c-1.785,0-3.469-0.717-4.117-2.325l-2.303,1.191
		c1.084,2.677,3.385,3.593,6.369,3.593c3.268,0,6.152-1.4,6.152-4.659c0-3.485-2.843-4.286-5.894-4.66
		c-1.759-0.209-3.261-0.567-3.261-1.843c0-1.083,0.984-1.942,3.027-1.942c1.592,0,2.977,0.792,3.476,1.634L396.525,230.053z
		 M371.168,230.202c1.733,0,2.508,1.176,2.508,2.351s-0.758,2.351-2.508,2.351h-4.211v-4.702H371.168z M377.161,242.099
		l-4.428-5.002c2.777-0.559,3.693-2.584,3.693-4.61c0-2.534-1.815-4.835-5.259-4.86c-2.327,0.025-4.645,0-6.961,0v14.655h2.75
		v-4.885h2.668l4.252,4.885h3.284V242.099z M359.271,239.564h-8.221v-3.301h7.92v-2.567h-7.92v-3.394h8.221v-2.675h-10.955
		c0,4.885,0,9.786,0,14.655h10.955V239.564z M342.982,230.053c-1.108-2.251-3.468-2.901-5.752-2.901
		c-2.701,0.017-5.668,1.251-5.668,4.26c0,3.285,2.768,4.076,5.752,4.435c1.941,0.209,3.384,0.775,3.384,2.151
		c0,1.592-1.625,2.2-3.36,2.2c-1.773,0-3.475-0.717-4.115-2.325l-2.311,1.191c1.101,2.677,3.393,3.593,6.386,3.593
		c3.259,0,6.144-1.4,6.144-4.659c0-3.485-2.843-4.286-5.894-4.66c-1.759-0.209-3.269-0.567-3.269-1.843
		c0-1.083,0.984-1.942,3.035-1.942c1.592,0,2.967,0.792,3.467,1.634L342.982,230.053z M323.543,227.677v8.377
		c0,2.509-1.3,4.034-3.584,4.034c-2.268,0-3.776-1.4-3.776-4.034v-8.377h-2.743v8.377c0,4.409,2.984,6.544,6.502,6.544
		c3.686,0,6.336-2.218,6.336-6.544v-8.377H323.543z"/> -->
	<path fill-rule="evenodd" clip-rule="evenodd" fill="#34495E" d="M409.414,339.539c19.063,0,34.512,15.455,34.512,34.512
		c0,19.064-15.449,34.511-34.512,34.511c-19.065,0-34.513-15.447-34.513-34.511C374.901,354.994,390.349,339.539,409.414,339.539"/>
	<path fill="#22A6EF" d="M409.414,345.199c15.93,0,28.852,12.921,28.852,28.852c0,15.938-12.922,28.852-28.852,28.852
		c-15.932,0-28.853-12.914-28.853-28.852C380.562,358.12,393.482,345.199,409.414,345.199"/>
	<path fill-rule="evenodd" clip-rule="evenodd" fill="#34495E" d="M409.414,376.967c10.145,0,18.896,5.944,22.982,14.53
		c-5.277,6.927-13.604,11.405-22.982,11.405c-9.379,0-17.707-4.478-22.975-11.405C390.516,382.911,399.27,376.967,409.414,376.967"
		/>
	<path fill-rule="evenodd" clip-rule="evenodd" fill="#34495E" d="M409.414,354.635c7.909,0,14.328,6.411,14.328,14.33
		c0,7.912-6.419,14.321-14.328,14.321c-7.912,0-14.33-6.41-14.33-14.321C395.084,361.046,401.502,354.635,409.414,354.635"/>
	<path fill-rule="evenodd" clip-rule="evenodd" fill="#39D4FF" d="M409.414,360.295c4.783,0,8.669,3.876,8.669,8.669
		c0,4.786-3.886,8.662-8.669,8.662c-4.785,0-8.662-3.876-8.662-8.662C400.752,364.172,404.629,360.295,409.414,360.295"/>
	<path fill-rule="evenodd" clip-rule="evenodd" fill="#39D4FF" d="M409.414,382.628c8.676,0,16.055,5.602,18.715,13.388
		c-5.043,4.293-11.58,6.887-18.715,6.887c-7.145,0-13.673-2.593-18.707-6.887C393.359,388.229,400.735,382.628,409.414,382.628"/>
</g>
<g>
	<path fill="#BCC2C6" d="M4955.596,207.445h388.612c4.461,0,8.521,1.826,11.453,4.76v0.017c2.936,2.934,4.76,6.985,4.76,11.437
		v345.522c0,4.452-1.824,8.503-4.76,11.438v0.017c-2.933,2.935-6.992,4.751-11.453,4.751h-388.612
		c-4.466,0-8.518-1.816-11.452-4.751v-0.017c-2.936-2.935-4.761-6.985-4.761-11.438V223.659c0-4.452,1.825-8.503,4.761-11.437
		v-0.017C4947.078,209.271,4951.13,207.445,4955.596,207.445"/>
	<path fill="#EBEFF0" d="M5354.538,223.659v345.522c0,6.519-4.536,10.338-10.33,10.338h-388.612
		c-5.784,0-10.327-3.719-10.327-10.338V223.659c0-6.744,4.559-10.329,10.327-10.329h388.612
		C5349.993,213.33,5354.538,217.04,5354.538,223.659"/>
	<path fill="#34495E" d="M4953.454,254.919h392.896c3.877,0,7.394,1.576,9.938,4.126c2.551,2.543,4.133,6.069,4.133,9.946v302.341
		c0,3.868-1.582,7.386-4.133,9.937c-2.544,2.551-6.061,4.117-9.938,4.117h-392.896c-3.866,0-7.395-1.566-9.938-4.117
		c-2.549-2.551-4.134-6.068-4.134-9.937V268.991c0-3.876,1.585-7.403,4.134-9.946
		C4946.06,256.495,4949.588,254.919,4953.454,254.919"/>
	<path fill-rule="evenodd" clip-rule="evenodd" fill="#FFFFFF" d="M4953.454,260.796c-2.176,0-4.244,0.875-5.785,2.409
		c-1.535,1.542-2.409,3.609-2.409,5.786v302.341c0,2.167,0.874,4.234,2.409,5.769c1.541,1.551,3.609,2.418,5.785,2.418h392.896
		c2.175,0,4.244-0.867,5.777-2.418c1.542-1.534,2.41-3.602,2.41-5.769V268.991c0-2.185-0.868-4.244-2.41-5.786
		c-1.533-1.542-3.608-2.409-5.777-2.409H4953.454z"/>
	<path fill-rule="evenodd" clip-rule="evenodd" fill="#94A4A5" d="M5295.784,227.418c4.135,0,7.493,3.352,7.493,7.486
		c0,4.135-3.35,7.495-7.493,7.495c-4.135,0-7.486-3.36-7.486-7.495C5288.298,230.77,5291.649,227.418,5295.784,227.418
		 M5319.308,227.418c4.136,0,7.486,3.352,7.486,7.486c0,4.135-3.351,7.495-7.486,7.495c-4.135,0-7.493-3.36-7.493-7.495
		C5311.814,230.77,5315.173,227.418,5319.308,227.418z M5272.27,227.418c4.134,0,7.484,3.352,7.484,7.486
		c0,4.135-3.351,7.495-7.484,7.495c-4.135,0-7.495-3.36-7.495-7.495C5264.774,230.77,5268.135,227.418,5272.27,227.418z"/>
	<rect x="4993.884" y="291.739" fill-rule="evenodd" clip-rule="evenodd" fill="#34495E" width="69.023" height="69.023"/>
	<rect x="4999.546" y="297.4" fill="#22A6EF" width="57.699" height="57.703"/>
	<path fill-rule="evenodd" clip-rule="evenodd" fill="#34495E" d="M5028.396,329.161c14.037,0,25.418,11.387,25.418,25.424
		l-0.01,0.518h-50.824l-0.008-0.518C5002.972,340.547,5014.35,329.161,5028.396,329.161"/>
	<path fill-rule="evenodd" clip-rule="evenodd" fill="#34495E" d="M5028.396,306.828c7.91,0,14.329,6.411,14.329,14.33
		c0,7.912-6.419,14.331-14.329,14.331c-7.92,0-14.33-6.419-14.33-14.331C5014.065,313.238,5020.476,306.828,5028.396,306.828"/>
	<path fill-rule="evenodd" clip-rule="evenodd" fill="#39D4FF" d="M5028.396,312.488c4.784,0,8.661,3.885,8.661,8.669
		c0,4.786-3.877,8.67-8.661,8.67c-4.785,0-8.67-3.885-8.67-8.67C5019.726,316.373,5023.61,312.488,5028.396,312.488"/>
	<path fill-rule="evenodd" clip-rule="evenodd" fill="#39D4FF" d="M5028.396,334.829c10.911,0,19.756,8.845,19.756,19.756
		l-0.008,0.518h-39.505l-0.009-0.518C5008.63,343.673,5017.483,334.829,5028.396,334.829"/>
	<path fill-rule="evenodd" clip-rule="evenodd" fill="#BCC2C6" d="M5001.137,404.702h54.511c2.166,0,3.926-1.767,3.926-3.927l0,0
		c0-2.167-1.76-3.934-3.926-3.934h-54.511c-2.16,0-3.927,1.767-3.927,3.934l0,0C4997.21,402.936,4998.977,404.702,5001.137,404.702"
		/>
	<path fill-rule="evenodd" clip-rule="evenodd" fill="#BCC2C6" d="M4993.075,384.946h70.643c2.157,0,3.924-1.768,3.924-3.935l0,0
		c0-2.159-1.767-3.926-3.924-3.926h-70.643c-2.168,0-3.936,1.768-3.936,3.926l0,0
		C4989.14,383.178,4990.907,384.946,4993.075,384.946"/>
	<rect x="5115.392" y="291.739" fill-rule="evenodd" clip-rule="evenodd" fill="#34495E" width="69.021" height="69.023"/>
	<rect x="5121.052" y="297.4" fill="#22A6EF" width="57.703" height="57.703"/>
	<path fill-rule="evenodd" clip-rule="evenodd" fill="#34495E" d="M5149.902,329.161c14.038,0,25.416,11.387,25.416,25.424v0.518
		h-50.832l-0.009-0.518C5124.478,340.547,5135.864,329.161,5149.902,329.161"/>
	<path fill-rule="evenodd" clip-rule="evenodd" fill="#34495E" d="M5149.902,306.828c7.911,0,14.329,6.411,14.329,14.33
		c0,7.912-6.418,14.331-14.329,14.331s-14.329-6.419-14.329-14.331C5135.573,313.238,5141.991,306.828,5149.902,306.828"/>
	<path fill-rule="evenodd" clip-rule="evenodd" fill="#39D4FF" d="M5149.902,312.488c4.784,0,8.671,3.885,8.671,8.669
		c0,4.786-3.887,8.67-8.671,8.67s-8.669-3.885-8.669-8.67C5141.233,316.373,5145.118,312.488,5149.902,312.488"/>
	<path fill-rule="evenodd" clip-rule="evenodd" fill="#39D4FF" d="M5149.902,334.829c10.913,0,19.757,8.845,19.757,19.756
		l-0.01,0.518h-39.504v-0.518C5130.146,343.673,5138.989,334.829,5149.902,334.829"/>
	<path fill-rule="evenodd" clip-rule="evenodd" fill="#BCC2C6" d="M5122.651,404.702h54.502c2.168,0,3.936-1.767,3.936-3.927l0,0
		c0-2.167-1.768-3.934-3.936-3.934h-54.502c-2.166,0-3.934,1.767-3.934,3.934l0,0
		C5118.718,402.936,5120.485,404.702,5122.651,404.702"/>
	<path fill-rule="evenodd" clip-rule="evenodd" fill="#BCC2C6" d="M5114.583,384.946h70.639c2.16,0,3.927-1.768,3.927-3.935l0,0
		c0-2.159-1.767-3.926-3.927-3.926h-70.639c-2.16,0-3.927,1.768-3.927,3.926l0,0
		C5110.656,383.178,5112.423,384.946,5114.583,384.946"/>
	<rect x="5236.897" y="291.739" fill-rule="evenodd" clip-rule="evenodd" fill="#34495E" width="69.023" height="69.023"/>
	<rect x="5242.56" y="297.4" fill="#22A6EF" width="57.699" height="57.703"/>
	<path fill-rule="evenodd" clip-rule="evenodd" fill="#34495E" d="M5271.409,329.161c14.037,0,25.426,11.387,25.426,25.424
		l-0.008,0.518h-50.835l-0.008-0.518C5245.984,340.547,5257.372,329.161,5271.409,329.161"/>
	<path fill-rule="evenodd" clip-rule="evenodd" fill="#34495E" d="M5271.409,306.828c7.91,0,14.33,6.411,14.33,14.33
		c0,7.912-6.42,14.331-14.33,14.331s-14.33-6.419-14.33-14.331C5257.079,313.238,5263.499,306.828,5271.409,306.828"/>
	<path fill-rule="evenodd" clip-rule="evenodd" fill="#39D4FF" d="M5271.409,312.488c4.785,0,8.67,3.885,8.67,8.669
		c0,4.786-3.885,8.67-8.67,8.67s-8.67-3.885-8.67-8.67C5262.739,316.373,5266.624,312.488,5271.409,312.488"/>
	<path fill-rule="evenodd" clip-rule="evenodd" fill="#39D4FF" d="M5271.409,334.829c10.912,0,19.757,8.845,19.757,19.756v0.518
		h-39.514v-0.518C5251.652,343.673,5260.497,334.829,5271.409,334.829"/>
	<path fill-rule="evenodd" clip-rule="evenodd" fill="#BCC2C6" d="M5244.159,404.702h54.502c2.166,0,3.934-1.767,3.934-3.927l0,0
		c0-2.167-1.768-3.934-3.934-3.934h-54.502c-2.168,0-3.936,1.767-3.936,3.934l0,0
		C5240.224,402.936,5241.991,404.702,5244.159,404.702"/>
	<path fill-rule="evenodd" clip-rule="evenodd" fill="#BCC2C6" d="M5236.089,384.946h70.643c2.155,0,3.924-1.768,3.924-3.935l0,0
		c0-2.159-1.769-3.926-3.924-3.926h-70.643c-2.157,0-3.926,1.768-3.926,3.926l0,0
		C5232.163,383.178,5233.932,384.946,5236.089,384.946"/>
	<rect x="4993.884" y="435.604" fill-rule="evenodd" clip-rule="evenodd" fill="#34495E" width="69.023" height="69.021"/>
	<rect x="4999.546" y="441.264" fill="#22A6EF" width="57.699" height="57.703"/>
	<path fill-rule="evenodd" clip-rule="evenodd" fill="#34495E" d="M5028.396,473.032c14.037,0,25.418,11.38,25.418,25.418
		l-0.01,0.517h-50.824l-0.008-0.517C5002.972,484.412,5014.35,473.032,5028.396,473.032"/>
	<path fill-rule="evenodd" clip-rule="evenodd" fill="#34495E" d="M5028.396,450.692c7.91,0,14.329,6.419,14.329,14.329
		c0,7.912-6.419,14.33-14.329,14.33c-7.92,0-14.33-6.418-14.33-14.33C5014.065,457.111,5020.476,450.692,5028.396,450.692"/>
	<path fill-rule="evenodd" clip-rule="evenodd" fill="#39D4FF" d="M5028.396,456.36c4.784,0,8.661,3.877,8.661,8.661
		c0,4.794-3.877,8.671-8.661,8.671c-4.785,0-8.67-3.877-8.67-8.671C5019.726,460.237,5023.61,456.36,5028.396,456.36"/>
	<path fill-rule="evenodd" clip-rule="evenodd" fill="#39D4FF" d="M5028.396,478.693c10.911,0,19.756,8.845,19.756,19.757
		l-0.008,0.517h-39.505l-0.009-0.517C5008.63,487.538,5017.483,478.693,5028.396,478.693"/>
	<path fill-rule="evenodd" clip-rule="evenodd" fill="#BCC2C6" d="M5001.137,548.575h54.511c2.166,0,3.926-1.769,3.926-3.936l0,0
		c0-2.15-1.76-3.935-3.926-3.935h-54.511c-2.16,0-3.927,1.784-3.927,3.935l0,0C4997.21,546.807,4998.977,548.575,5001.137,548.575"
		/>
	<path fill-rule="evenodd" clip-rule="evenodd" fill="#BCC2C6" d="M4993.075,528.818h70.643c2.157,0,3.924-1.769,3.924-3.935
		c0-2.167-1.767-3.936-3.924-3.936h-70.643c-2.168,0-3.936,1.769-3.936,3.936C4989.14,527.05,4990.907,528.818,4993.075,528.818"/>
	<rect x="5115.392" y="435.604" fill-rule="evenodd" clip-rule="evenodd" fill="#34495E" width="69.021" height="69.021"/>
	<rect x="5121.052" y="441.264" fill="#22A6EF" width="57.703" height="57.703"/>
	<path fill-rule="evenodd" clip-rule="evenodd" fill="#34495E" d="M5149.902,473.032c14.038,0,25.416,11.38,25.416,25.418v0.517
		h-50.832l-0.009-0.517C5124.478,484.412,5135.864,473.032,5149.902,473.032"/>
	<path fill-rule="evenodd" clip-rule="evenodd" fill="#34495E" d="M5149.902,450.692c7.911,0,14.329,6.419,14.329,14.329
		c0,7.912-6.418,14.33-14.329,14.33s-14.329-6.418-14.329-14.33C5135.573,457.111,5141.991,450.692,5149.902,450.692"/>
	<path fill-rule="evenodd" clip-rule="evenodd" fill="#39D4FF" d="M5149.902,456.36c4.784,0,8.671,3.877,8.671,8.661
		c0,4.794-3.887,8.671-8.671,8.671s-8.669-3.877-8.669-8.671C5141.233,460.237,5145.118,456.36,5149.902,456.36"/>
	<path fill-rule="evenodd" clip-rule="evenodd" fill="#39D4FF" d="M5149.902,478.693c10.913,0,19.757,8.845,19.757,19.757
		l-0.01,0.517h-39.504v-0.517C5130.146,487.538,5138.989,478.693,5149.902,478.693"/>
	<path fill-rule="evenodd" clip-rule="evenodd" fill="#BCC2C6" d="M5122.651,548.575h54.502c2.168,0,3.936-1.769,3.936-3.936l0,0
		c0-2.15-1.768-3.935-3.936-3.935h-54.502c-2.166,0-3.934,1.784-3.934,3.935l0,0
		C5118.718,546.807,5120.485,548.575,5122.651,548.575"/>
	<path fill-rule="evenodd" clip-rule="evenodd" fill="#BCC2C6" d="M5114.583,528.818h70.639c2.16,0,3.927-1.769,3.927-3.935
		c0-2.167-1.767-3.936-3.927-3.936h-70.639c-2.16,0-3.927,1.769-3.927,3.936C5110.656,527.05,5112.423,528.818,5114.583,528.818"/>
	<rect x="5236.897" y="435.604" fill-rule="evenodd" clip-rule="evenodd" fill="#34495E" width="69.023" height="69.021"/>
	<rect x="5242.56" y="441.264" fill="#22A6EF" width="57.699" height="57.703"/>
	<path fill-rule="evenodd" clip-rule="evenodd" fill="#34495E" d="M5271.409,473.032c14.037,0,25.426,11.38,25.426,25.418
		l-0.008,0.517h-50.835l-0.008-0.517C5245.984,484.412,5257.372,473.032,5271.409,473.032"/>
	<path fill-rule="evenodd" clip-rule="evenodd" fill="#34495E" d="M5271.409,450.692c7.91,0,14.33,6.419,14.33,14.329
		c0,7.912-6.42,14.33-14.33,14.33s-14.33-6.418-14.33-14.33C5257.079,457.111,5263.499,450.692,5271.409,450.692"/>
	<path fill-rule="evenodd" clip-rule="evenodd" fill="#39D4FF" d="M5271.409,456.36c4.785,0,8.67,3.877,8.67,8.661
		c0,4.794-3.885,8.671-8.67,8.671s-8.67-3.877-8.67-8.671C5262.739,460.237,5266.624,456.36,5271.409,456.36"/>
	<path fill-rule="evenodd" clip-rule="evenodd" fill="#39D4FF" d="M5271.409,478.693c10.912,0,19.757,8.845,19.757,19.757v0.517
		h-39.514v-0.517C5251.652,487.538,5260.497,478.693,5271.409,478.693"/>
	<path fill-rule="evenodd" clip-rule="evenodd" fill="#BCC2C6" d="M5244.159,548.575h54.502c2.166,0,3.934-1.769,3.934-3.936l0,0
		c0-2.15-1.768-3.935-3.934-3.935h-54.502c-2.168,0-3.936,1.784-3.936,3.935l0,0
		C5240.224,546.807,5241.991,548.575,5244.159,548.575"/>
	<path fill-rule="evenodd" clip-rule="evenodd" fill="#BCC2C6" d="M5236.089,528.818h70.643c2.155,0,3.924-1.769,3.924-3.935
		c0-2.167-1.769-3.936-3.924-3.936h-70.643c-2.157,0-3.926,1.769-3.926,3.936C5232.163,527.05,5233.932,528.818,5236.089,528.818"/>
	<path opacity="0.5" fill-rule="evenodd" clip-rule="evenodd" fill="#34495E" d="M4953.454,260.796
		c-2.176,0-4.244,0.875-5.785,2.409c-1.535,1.542-2.409,3.609-2.409,5.786v302.341c0,2.167,0.874,4.234,2.409,5.769
		c1.541,1.551,3.609,2.418,5.785,2.418h392.896c2.175,0,4.244-0.867,5.777-2.418c1.542-1.534,2.41-3.602,2.41-5.769V268.991
		c0-2.185-0.868-4.244-2.41-5.786c-1.533-1.542-3.608-2.409-5.777-2.409H4953.454z"/>
	<path fill="#34495E" d="M5028.753,318.257h242.299c2.391,0,4.56,0.976,6.127,2.542c1.574,1.576,2.55,3.743,2.55,6.136V513.38
		c0,2.401-0.976,4.567-2.55,6.135c-1.567,1.568-3.736,2.552-6.127,2.552h-242.299c-2.383,0-4.56-0.983-6.127-2.552
		c-1.574-1.567-2.549-3.733-2.549-6.135V326.935c0-2.393,0.975-4.56,2.549-6.136C5024.193,319.232,5026.37,318.257,5028.753,318.257
		"/>
	<path fill-rule="evenodd" clip-rule="evenodd" fill="#FFFFFF" d="M5028.753,324.134c-0.75,0-1.44,0.292-1.974,0.825
		c-0.526,0.525-0.816,1.226-0.816,1.976V513.38c0,0.75,0.29,1.451,0.816,1.983c0.533,0.517,1.224,0.817,1.974,0.817h242.299
		c0.74,0,1.441-0.301,1.969-0.817c0.53-0.532,0.822-1.233,0.822-1.983V326.935c0-0.75-0.292-1.451-0.822-1.976
		c-0.527-0.534-1.229-0.825-1.969-0.825H5028.753z"/>
	<path fill="#BCC2C6" d="M5124.511,479.136h-44.574c-1.717,0-3.275,0.708-4.4,1.833c-1.133,1.133-1.841,2.693-1.841,4.401
		c0,1.726,0.699,3.285,1.824,4.409l0.017,0.01c1.117,1.125,2.676,1.824,4.4,1.824h44.574c1.718,0,3.276-0.708,4.401-1.834
		c1.133-1.133,1.835-2.692,1.835-4.409c0-1.718-0.702-3.276-1.826-4.409C5127.796,479.835,5126.229,479.136,5124.511,479.136
		 M5079.937,473.025h44.574c3.393,0,6.476,1.391,8.712,3.625l0.015,0.009c2.236,2.242,3.619,5.327,3.619,8.711
		c0,3.401-1.383,6.494-3.619,8.729c-2.24,2.234-5.324,3.625-8.727,3.625h-44.574c-3.384,0-6.469-1.391-8.711-3.625l-0.008-0.009
		l-0.008-0.009c-2.235-2.241-3.619-5.326-3.619-8.711c0-3.394,1.384-6.485,3.619-8.72
		C5073.453,474.416,5076.536,473.025,5079.937,473.025z"/>
	<path fill="#34495E" d="M5077.512,467.982h44.581c3.385,0,6.469,1.384,8.703,3.625l0.017,0.008
		c2.234,2.243,3.628,5.318,3.628,8.711c0,3.403-1.394,6.486-3.628,8.721c-2.233,2.242-5.327,3.625-8.72,3.625h-44.581
		c-3.384,0-6.468-1.383-8.711-3.625h-0.007v-0.009c-2.244-2.243-3.629-5.326-3.629-8.712c0-3.401,1.385-6.484,3.629-8.719
		C5071.026,469.366,5074.11,467.982,5077.512,467.982"/>
	<path fill="#27CABF" d="M5122.093,471.658c2.303,0,4.502,0.908,6.127,2.533c1.627,1.634,2.543,3.835,2.543,6.135
		c0,2.302-0.916,4.502-2.551,6.127c-1.625,1.625-3.816,2.544-6.119,2.544h-44.581c-2.3,0-4.501-0.901-6.127-2.534l-0.009-0.01
		c-1.634-1.625-2.535-3.825-2.535-6.127c0-2.3,0.919-4.501,2.544-6.126c1.626-1.625,3.827-2.542,6.127-2.542H5122.093z"/>
	<path fill="#51F4E9" d="M5122.093,471.658c2.303,0,4.502,0.908,6.127,2.533c1.627,1.634,2.543,3.835,2.543,6.135
		c0,0.592-0.059,1.176-0.184,1.743c-0.333-1.65-1.15-3.168-2.359-4.377c-1.625-1.633-3.824-2.543-6.127-2.543h-44.581
		c-2.3,0-4.501,0.918-6.127,2.543c-1.208,1.209-2.026,2.733-2.368,4.385c-0.115-0.566-0.176-1.159-0.176-1.751
		c0-2.3,0.919-4.501,2.544-6.126c1.626-1.625,3.827-2.542,6.127-2.542H5122.093z"/>
	<path fill="#BCC2C6" d="M5222.293,479.136h-44.581c-1.711,0-3.268,0.708-4.4,1.833c-1.134,1.133-1.836,2.693-1.836,4.401
		c0,1.726,0.702,3.285,1.826,4.409l0.01,0.01c1.124,1.125,2.684,1.824,4.4,1.824h44.581c1.71,0,3.27-0.708,4.402-1.834
		c1.133-1.133,1.833-2.692,1.833-4.409c0-1.718-0.7-3.276-1.825-4.409C5225.569,479.835,5224.009,479.136,5222.293,479.136
		 M5177.712,473.025h44.581c3.394,0,6.469,1.391,8.712,3.625l0.008,0.009c2.235,2.242,3.627,5.327,3.627,8.711
		c0,3.401-1.392,6.494-3.627,8.729c-2.234,2.234-5.326,3.625-8.72,3.625h-44.581c-3.385,0-6.469-1.391-8.712-3.625v-0.009
		l-0.007-0.009c-2.235-2.241-3.627-5.326-3.627-8.711c0-3.394,1.392-6.485,3.627-8.72
		C5171.226,474.416,5174.31,473.025,5177.712,473.025z"/>
	<path fill="#34495E" d="M5175.286,467.982h44.582c3.392,0,6.469,1.384,8.711,3.625l0.009,0.008
		c2.242,2.243,3.625,5.318,3.625,8.711c0,3.403-1.383,6.486-3.625,8.721c-2.234,2.242-5.319,3.625-8.72,3.625h-44.582
		c-3.377,0-6.461-1.383-8.703-3.625h-0.008l-0.009-0.009c-2.233-2.243-3.628-5.326-3.628-8.712c0-3.401,1.395-6.484,3.628-8.719
		C5168.808,469.366,5171.894,467.982,5175.286,467.982"/>
	<path fill="#F65C4C" d="M5219.868,471.658c2.3,0,4.5,0.908,6.133,2.533c1.627,1.634,2.537,3.835,2.537,6.135
		c0,2.302-0.918,4.502-2.543,6.127c-1.627,1.625-3.827,2.544-6.127,2.544h-44.582c-2.301,0-4.493-0.901-6.119-2.534l-0.018-0.01
		c-1.625-1.625-2.532-3.825-2.532-6.127c0-2.3,0.915-4.501,2.55-6.126c1.626-1.625,3.818-2.542,6.119-2.542H5219.868z"/>
	<path fill="#FF7C6C" d="M5219.868,471.658c2.3,0,4.5,0.908,6.133,2.533c1.627,1.634,2.537,3.835,2.537,6.135
		c0,0.592-0.059,1.176-0.176,1.743c-0.344-1.65-1.16-3.168-2.361-4.377c-1.633-1.633-3.833-2.543-6.133-2.543h-44.582
		c-2.301,0-4.493,0.918-6.119,2.543c-1.217,1.209-2.027,2.733-2.367,4.385c-0.125-0.566-0.183-1.159-0.183-1.751
		c0-2.3,0.915-4.501,2.55-6.126c1.626-1.625,3.818-2.542,6.119-2.542H5219.868z"/>
	<path fill-rule="evenodd" clip-rule="evenodd" fill="#FFFFFF" d="M5313.698,280.735l6.228,6.219l6.218-6.219
		c1.527-1.533,4.027-1.533,5.561,0l0,0c1.525,1.526,1.525,4.027,0,5.562l-6.218,6.218l6.218,6.227c1.525,1.526,1.525,4.026,0,5.552
		v0.008c-1.533,1.526-4.033,1.526-5.561,0l-6.218-6.227l-6.228,6.227c-1.524,1.526-4.027,1.526-5.552,0v-0.008
		c-1.534-1.525-1.534-4.026,0-5.552l6.218-6.227l-6.226-6.218c-1.526-1.535-1.526-4.035,0-5.562h0.008
		C5309.671,279.202,5312.174,279.202,5313.698,280.735"/>
	<path fill-rule="evenodd" clip-rule="evenodd" fill="#94A4A5" d="M5219.3,236.513l-6.66-8.436h-2.076v13.604h2.561v-9.178
		l7.143,9.178h1.594v-13.604h-2.561V236.513z M5199.536,230.153c3.209,0,4.484,2.559,4.441,4.851
		c-0.031,2.226-1.232,4.635-4.441,4.635c-3.202,0-4.402-2.385-4.461-4.618C5195.019,232.728,5196.334,230.153,5199.536,230.153z
		 M5199.536,227.827c-4.693,0-6.987,3.584-6.987,7.152c0,3.577,2.218,7.011,6.987,7.011c4.776,0,6.926-3.518,6.969-7.027
		C5206.546,231.411,5204.211,227.827,5199.536,227.827z M5188.357,241.682v-13.604h-2.542v13.604H5188.357z M5175.386,241.682h2.559
		v-11.279h4.309v-2.325c-3.933,0-7.25,0-11.178,0v2.325h4.311V241.682z M5166.899,238.206c-0.893,0.892-2.225,1.375-3.408,1.375
		c-3.359,0-4.66-2.351-4.678-4.602c-0.024-2.268,1.391-4.709,4.678-4.709c1.184,0,2.383,0.408,3.275,1.275l1.71-1.643
		c-1.401-1.384-3.144-2.076-4.985-2.076c-4.912,0-7.22,3.602-7.203,7.152c0.017,3.535,2.158,7.011,7.203,7.011
		c1.957,0,3.759-0.642,5.16-2.017L5166.899,238.206z M5152.712,239.156h-7.628v-3.068h7.354v-2.384h-7.354v-3.143h7.628v-2.483
		h-10.17c0,4.535,0,9.078,0,13.604h10.17V239.156z M5135.69,236.513l-6.654-8.436h-2.082v13.604h2.566v-9.178l7.135,9.178h1.594
		v-13.604h-2.559V236.513z M5119.868,236.513l-6.652-8.436h-2.076v13.604h2.559v-9.178l7.146,9.178h1.593v-13.604h-2.568V236.513z
		 M5100.11,230.153c3.201,0,4.484,2.559,4.444,4.851c-0.043,2.226-1.243,4.635-4.444,4.635s-4.409-2.385-4.46-4.618
		C5095.594,232.728,5096.909,230.153,5100.11,230.153z M5100.11,227.827c-4.702,0-6.984,3.584-6.984,7.152
		c0,3.577,2.209,7.011,6.984,7.011c4.777,0,6.928-3.518,6.961-7.027C5107.113,231.411,5104.788,227.827,5100.11,227.827z
		 M5088.558,238.206c-0.893,0.892-2.234,1.375-3.41,1.375c-3.359,0-4.659-2.351-4.685-4.602c-0.018-2.268,1.399-4.709,4.685-4.709
		c1.176,0,2.384,0.408,3.277,1.275l1.708-1.643c-1.401-1.384-3.143-2.076-4.985-2.076c-4.91,0-7.218,3.602-7.201,7.152
		c0.015,3.535,2.15,7.011,7.201,7.011c1.959,0,3.759-0.642,5.16-2.017L5088.558,238.206z"/>
	<path fill-rule="evenodd" clip-rule="evenodd" fill="#34495E" d="M5149.902,365.597c19.056,0,34.511,15.455,34.511,34.511
		c0,19.057-15.455,34.512-34.511,34.512c-19.064,0-34.511-15.455-34.511-34.512C5115.392,381.052,5130.838,365.597,5149.902,365.597
		"/>
	<path fill="#22A6EF" d="M5149.902,371.258c15.931,0,28.853,12.921,28.853,28.851c0,15.931-12.922,28.853-28.853,28.853
		s-28.851-12.922-28.851-28.853C5121.052,384.179,5133.972,371.258,5149.902,371.258"/>
	<path fill-rule="evenodd" clip-rule="evenodd" fill="#34495E" d="M5149.902,403.026c10.145,0,18.898,5.943,22.974,14.529
		c-5.268,6.929-13.596,11.405-22.974,11.405s-17.706-4.477-22.974-11.405C5131.005,408.97,5139.757,403.026,5149.902,403.026"/>
	<path fill-rule="evenodd" clip-rule="evenodd" fill="#34495E" d="M5149.902,380.686c7.911,0,14.329,6.418,14.329,14.329
		c0,7.912-6.418,14.331-14.329,14.331s-14.329-6.419-14.329-14.331C5135.573,387.104,5141.991,380.686,5149.902,380.686"/>
	<path fill-rule="evenodd" clip-rule="evenodd" fill="#39D4FF" d="M5149.902,386.354c4.784,0,8.671,3.876,8.671,8.661
		s-3.887,8.67-8.671,8.67s-8.669-3.886-8.669-8.67S5145.118,386.354,5149.902,386.354"/>
	<path fill-rule="evenodd" clip-rule="evenodd" fill="#39D4FF" d="M5149.902,408.688c8.677,0,16.056,5.602,18.706,13.387
		c-5.033,4.293-11.57,6.887-18.706,6.887c-7.144,0-13.673-2.594-18.706-6.887C5133.847,414.289,5141.216,408.688,5149.902,408.688"
		/>
</g>
</svg>
